<mxfile host="app.diagrams.net" agent="Mozilla/5.0 (Macintosh; Intel Mac OS X 10_15_7) AppleWebKit/537.36 (KHTML, like Gecko) Chrome/131.0.0.0 Safari/537.36" version="24.8.6">
  <diagram name="Page-1" id="2G6bF4VcXpY9Qxo4oPtT">
    <mxGraphModel dx="801" dy="426" grid="1" gridSize="10" guides="1" tooltips="1" connect="1" arrows="1" fold="1" page="1" pageScale="1" pageWidth="850" pageHeight="1100" math="0" shadow="0">
      <root>
        <mxCell id="0" />
        <mxCell id="1" parent="0" />
        <mxCell id="UAMNCxBC-hiewUGZ62pg-103" value="core" style="rounded=1;whiteSpace=wrap;html=1;fillColor=#e1d5e7;strokeColor=#9673a6;opacity=30;dashed=1;dashPattern=8 8;labelPosition=center;verticalLabelPosition=top;align=right;verticalAlign=bottom;" vertex="1" parent="1">
          <mxGeometry x="70" y="360" width="370" height="110" as="geometry" />
        </mxCell>
        <mxCell id="UAMNCxBC-hiewUGZ62pg-118" style="edgeStyle=orthogonalEdgeStyle;rounded=0;orthogonalLoop=1;jettySize=auto;html=1;" edge="1" parent="1" source="UAMNCxBC-hiewUGZ62pg-102">
          <mxGeometry relative="1" as="geometry">
            <mxPoint x="220" y="360" as="targetPoint" />
            <Array as="points">
              <mxPoint x="220" y="360" />
            </Array>
          </mxGeometry>
        </mxCell>
        <mxCell id="UAMNCxBC-hiewUGZ62pg-102" value="domain" style="rounded=1;whiteSpace=wrap;html=1;fillColor=#d5e8d4;strokeColor=#82b366;opacity=30;dashed=1;dashPattern=8 8;labelPosition=center;verticalLabelPosition=top;align=right;verticalAlign=bottom;" vertex="1" parent="1">
          <mxGeometry x="70" y="240" width="370" height="100" as="geometry" />
        </mxCell>
        <mxCell id="UAMNCxBC-hiewUGZ62pg-115" style="edgeStyle=orthogonalEdgeStyle;rounded=0;orthogonalLoop=1;jettySize=auto;html=1;" edge="1" parent="1" source="UAMNCxBC-hiewUGZ62pg-101">
          <mxGeometry relative="1" as="geometry">
            <mxPoint x="220" y="240" as="targetPoint" />
            <Array as="points">
              <mxPoint x="220" y="240" />
            </Array>
          </mxGeometry>
        </mxCell>
        <mxCell id="UAMNCxBC-hiewUGZ62pg-122" style="edgeStyle=orthogonalEdgeStyle;rounded=0;orthogonalLoop=1;jettySize=auto;html=1;entryX=0;entryY=0.5;entryDx=0;entryDy=0;" edge="1" parent="1" source="UAMNCxBC-hiewUGZ62pg-101" target="UAMNCxBC-hiewUGZ62pg-103">
          <mxGeometry relative="1" as="geometry">
            <Array as="points">
              <mxPoint x="50" y="200" />
              <mxPoint x="50" y="415" />
            </Array>
          </mxGeometry>
        </mxCell>
        <mxCell id="UAMNCxBC-hiewUGZ62pg-101" value="features" style="rounded=1;whiteSpace=wrap;html=1;fillColor=#dae8fc;strokeColor=#6c8ebf;opacity=30;dashed=1;dashPattern=8 8;labelPosition=center;verticalLabelPosition=top;align=right;verticalAlign=bottom;" vertex="1" parent="1">
          <mxGeometry x="70" y="180" width="370" height="40" as="geometry" />
        </mxCell>
        <mxCell id="UAMNCxBC-hiewUGZ62pg-5" value="App Module" style="rounded=1;whiteSpace=wrap;html=1;labelPosition=center;verticalLabelPosition=top;align=center;verticalAlign=bottom;arcSize=16;fillColor=none;" vertex="1" parent="1">
          <mxGeometry x="70" y="50" width="300" height="110" as="geometry" />
        </mxCell>
        <mxCell id="UAMNCxBC-hiewUGZ62pg-9" value="auth" style="rounded=1;whiteSpace=wrap;html=1;labelPosition=center;verticalLabelPosition=middle;align=center;verticalAlign=middle;fillColor=#dae8fc;strokeColor=#6c8ebf;fontSize=10;" vertex="1" parent="1">
          <mxGeometry x="80" y="190" width="80" height="20" as="geometry" />
        </mxCell>
        <mxCell id="UAMNCxBC-hiewUGZ62pg-1" value="app" style="rounded=1;whiteSpace=wrap;html=1;labelPosition=center;verticalLabelPosition=top;align=center;verticalAlign=bottom;" vertex="1" parent="1">
          <mxGeometry x="100" y="84" width="100" height="48.46" as="geometry" />
        </mxCell>
        <mxCell id="UAMNCxBC-hiewUGZ62pg-2" value="" style="shape=image;verticalLabelPosition=bottom;labelBackgroundColor=default;verticalAlign=top;aspect=fixed;imageAspect=0;image=data:image/png,iVBORw0KGgoAAAANSUhEUgAABLAAAAC+CAYAAAAlZPasAAAAAXNSR0IArs4c6QAAIABJREFUeF7snQmAHFWd/3+/V1XdPTM5CeEIk5nO4boG8Yor4LELLgritR6gqwLhCocrKIoHgklwERUFueSQy1uJuityigpeeOL+FzUCTpKenknYEELIMTN9VL3ff37vvaqu7pkkc3VPH69D0z09Va9efat6pusz39/3h2BvZQqk0+l/I6KvAsCsaZRmByJ+IpPJ3AgANI3zsJu2ClgFrAKRAosWLeqWUl4HAG+qtiyI+O5MJrMWAGS1t2XHtwpYBawCVoHJKdDd3X0rAJwCAM7kRtr72vwZPZvNrqjmNuzY06vAqoeunwEQzMnnc4dLgcsDlIcVqdgNRBKF2AgE6wmD3yfd1C+ogLs6Htk9tGbNGvtZYXoPm916FRVYtWqV2HoUtHdAx4xCvvhaErhcEC2RRIuEIHTR2+Cg+CsB/aEt1f77GQO5HRcee+FAFac0rUPjtG69zja+bNmyxMDAwPUAwL8Y3Wme3tc9z/twT0/P1mmeh928VcAqYBVQCliAZU8Eq4BVwCpgFRhNAQuw7HkxWQUu/+WX56aE91Jf0nuA6HgCOFiCBEkEkvgZPxLwP6ZVgfR3EOCdgPTfuQL+9qrjLthu//A/2aNg168zBfATP/nMfgDJI1GItyHAOwWKWQIAEBAEIjj8DAUIvqtXsR8Q7nHB+w74z/2/Dx39oefqbJ8mPR0LsGISdnV1HYqI7L5aPmllJzkAEf09CIKTN23a9NtJDmVXtwpYBawCU6KABVhTIqMdxCpgFbAKNJ0CFmA13SGt2Q6xu2TWMV2HOYCnOUK8TwDspwAVQyuSECiIFQIsxlhQAlkaaD3lE90VgLz2c6+94K81m7jdkFWgygpc9NDVL0Qpzxco3iwEHmgAlQJXlQDLAQ2xHAWyuHwBt0qkbxT84h0fec0Zf0bEpqnqsgArduJ1d3efAQCfB4C5VT4f9zk8EfkAcMH8+fNvfPTRR4v7XMEuYBWwClgFqqyABVhVFtgObxWwClgFGlQBC7Aa9MBN87RX0Sox8xcLX51yvU8LFIcDQFLBKgZXFIBvABY/J3ZiMa5S0Eo7UIivZAkgAAokyP/JBf5FXzzmIw9O827ZzVsFJq3AR356xZtTmFglAF4q2GIFGtugSRdCROW4Ypgl0AEGWC4/itCNJfi9kfdJPlIM8hfv/Nmm3zZLqa0FWOb06uzs3M9xnCsA4FR1btTBDREfAADOgWk6618dyGunYBWwCoxTAQuwximYXdwqYBWwCrSIAhZgtciBnuLdvPTBaw+b3Tbjvz3hpolI+ApaBRDIAIrShyL55mtVQKhKB/kiLSyZ4ot4fRmPAKhKDPtygX/mF1/3Eb6GsjerQEMq8KGfXvm2NnCucwQsUDtA7KiSGuISP+rIN/VeAKGglYsueOiAJ1xwhaPu/A8QZSD9J3cEO99yyb+c//eGFKRi0nUBaupByIULF75cCMHlg8vqYT5mDgXXdZevX7/+L3U0JzsVq4BVoEUVsACrRQ+83W2rgFXAKrAPBSzAsqfIeBX4+C8vn7u/3P/3STexlB1WBelDIShCIShAgXwNsBTECvRFO1/FM6cymT+li3ZXOU9QaJgVSPmnAsGKq4654C+RXWW8k7PLWwWmQwEivPBnV7zUI+9WEPgSBW0lKTeihrk+SMkORXYk6gnyOc8uLAWv0IWE44InPEgID5KOp547iJCT/l8k4is/9urTd03Hrk3lNi3AAoCjjjrK3bBhAzuvvoyI0x3eXnl8v9Db23vhVB50O5ZVwCpgFZiIAhZgTUQ1u45VwCpgFWh+BSzAav5jPJV7eO6dq2YcPP+A21NO4p18YZ73izAU5CHP8EoWFbjSAe6BzsJi/5WJ8IkcWFwyJdhx4kFS6At1V7iAxI4T+fW8X7jw2uMvss2wpvLA2bGqqsC593z+oPaE80VH4L9z000GVvx+UHBXFhXICh1YYaCVIO1BVNlXKv+K3xOOAlgpJ6nuDLIYbOWKxa9nB54+++Y3rx6s6o5UeXALsABg8eLFs6WUXyOit1RZ73EPT0R9rusetmHDhh3jXtmuYBWwClgFplABC7CmUEw7lFXAKmAVaCIFLMBqooNZg1256P4rT0x5ia8MycKsQZmHoWIeckEBilBU5YPaXqIv0XXXQdJ5V8qFxa9r1wlfsLPrREOshLpY568FiK0+Bh/oezb9vbUnnhjUYJfsJqwCk1Jg1UOr3N2F9nc5wrlaIs1jiJtjqCvZkVgEP4S60rw31NtDFc8CQywup9VvGLYpIrjIgDcBKZGANjcJHW4S2kRyRy7In3LZ6y744aQmO80rW4AFAAsXLnyhEOLXADBrmo/HqJtHxPdkMplv1+Pc7JysAlaB1lHAAqzWOdZ2T60CVgGrwHgUsABrPGq19rKn37lqv9kdbbf5QG/eEQyIgWBIlQ5yYDsn/ejLcgCBAI6JJVa9BsOrVgWw+IJdZ2Gx88QRLqQwAW1OSkEszgMigl8n2vw3f/Y1n9je2orbvW8EBT780Bf2l768TwC+XLkSgzwMBTnIUUHDK9PIQJcOkgZVUQ4Whs0MTIdO/bV+fziQcDyY6bbBHKddJtD5/tYCnX7bWz/WsKWEFmABQHd396XD3VovqdeTm4h+ls1mj4n+FFGvE7XzsgpYBZpaAQuwmvrw2p2zClRFAY5p6O/vd3p6egr2c0xVJK6LQS3AqovD0BCTOPXOj79WOu6NgzL/vF3BIAxRQYVSKyClAtqRo6eVw4pdJAyyIj+WuXJFhliqXApV9pWDnIPlQrtIQpvbptxYDjrB8GX/qmte97HLGkIYO8mWVuC8By7/jIvOxwKQgktph4IhGJJ55b6SMuzCKTW7CusHdSycurMxiyGwKrfl0HfTrZOXZafiDCcBs9wZMAMSjwPIM29++2W/alTBWx5gLVu2LLF79+4eRFxYxwdxGwC8rre393/qeI52alYBq0CTK2ABVpMfYLt7VoGJK4ALFixoS6VS+wdB8HIAOJqIXoGILwCAGebzdQERM1LK/yeEeMj3/V8nEonshg0bdg//EdGW+Exc+7pY0wKsujgMjTAJfMsd510YCLg0B4Uku0sK4IMUBAJAhU2rPB8FpcK7oyAW30zVlIJdfNWuAJYpJWQXVkIkoUO0qZIpBloA4A8V5aFfeeNFTzaCOHaOranA2XevfmHCS/0vJ7KHpYMDcgjyMq/gVZh7xXAqAlgGXrFiDKw4HysgDnwnCBhiqfB3Lr8F4KLadnShg8sJMTHoBvjJb7/vS19qVLVbHmCl0+m3EtF/1/kBzCHiZzOZzKcjb22dT9hOzypgFWg+BSzAar5javfIKjBZBRYsWLC/67ovRcS3AsCb2Ng+ljGJaDci/kII8V2GWX19fRkLssaiXH0uYwFWfR6XepvV6684qSOY0/GZAOV5RQwUvPKFD/ycL0pdA6P4UXcZ5LsGWZpaRTVTkVuLy6R0HpYDnuNBm0hBu0ipEGt2ZkkIfiSCwvuuPX7NznrTw87HKrDiv1bN6WhLfkcgHssQijOvBoM85OSQbmaggttJuRTJuKpKlkSmuhpU+eouwZdSgyt+rqxaCClwoA1caAMPktyxE/CKwg73kvvOuzbfiEeg1QGWk06nf1CP4e0VJxOffT8DgJN6e3ufasQTzc7ZKmAVaHwFLMBq/GNo98AqMFUKsIN9165dhyPi+wDg7Yi4/wTHLnJUguM43ywWi/f09/c/O8Fx7GrTqIAFWNMofgNt+qivnNFJAV4TIL3NhwB8EUARi1BAX3UZDAGWpwCWowAWP+dugxxXHTqvFMcyQVn6dXZuOWq5pJNQECvlpHSgO+JAQP4HbzjuU7faMuYGOllaYKpEhGfd+5/nJlz3c5JkR5GKKrh9SOZUR07uQqjdVwywdO1gvHyQn7MrixsfFBlgSYZWgQJXIcDyQEAKPOhgeAUOJFSBLn5XovPBe0/98v81oswtDbA6OzsPcxznQQA4sAEOXlZK+YG+vr67GmCudopWAatAEypgAVYTHlS7S1aBCSjA8GpgYIDB1YcA4PkA4E1gmPgq/Ie6p4mI3Vhf2Lx5c98kx7Or11gBC7BqLHiDbu6116xc4rv05QDk633UAIvhVZHvwte5V4yiBILHjirVSY3vjnJhqU5rfPWqI7DU1yHAQl4OeFlPwas2kYSEysJy+TL/NwXfP+vWN63+S4NKZ6fdhAqcfu+lL02gcxMIeHkgAyxwR07lvsqDL7mxgc6+iruvVK8D8x7g7yn3lQwUvCoS3wMIJHFhrnqfpIzzqh1cSIALHnGxLtwbOM777z/1RnY+N9ytpQFWOp3+BBF9CvjY1v8tQMQrXNdd3dPT05B2v/qX2M7QKmAV2JsCFmDZ88MqYBVgBbq7uy8cjjTgz08d5qP0VAlTIKL7Pc87c/369U9P1aB2nOorYAFW9TVuhi288qaVS0QxuIEAXsfwykcJBSwqeMUgi9iFJTTE8lQJIbuwHP1c6I6DgNyRkLGVdmEpqMXP+fsKfjkKXCkXlkiBJ1yGXEWJwecLSfmfdxy9JtcMWtp9aGwFPvTIlW27dw6scgA/TCRdBk+5MLhdFlSmFbuouHxQO6/i7ivdhTAwJYNF47ziMbQLS989cIDBVRskVAkhu7FcEoCE9xWQ3v/jM2/Z2IgqtizAOuyww+bu3LnzTgDg7n4NcUPEnyPiWRs3bnyiISZsJ2kVsAo0lQIWYDXV4bQ7YxUYtwJLly5N5vP5DwshqtrVi0sKAeCd2Wx2+7gnaVeYFgUswJoW2Rtuo6++aWUXFYvXEeCbuWSQXVgMrnzjwFJZWAjKfcXAisGVes6lhKqkMHRhIV+/l0Es5cZSHQx5XReSTlJBLO3CctiN8vfApVNvfd2nHgHUefD2ZhWYFgUI8PR7V7/GFeJ2AlwcgA8F7jwo8yq43Ze+Alhh6SBJMrFXxPApAlq+JOW4YlhVJB8UyDKv8QoMrVT5IHL5oAsOMRxGIBLfzwXO+T8758ZN07L/k9xoywKs7u7uNwDA9QCwaJIa1nL1HYh4SiaT+ZENc6+l7HZbVgGrACtgAZY9D6wCrauA6dp8CiJeaToLVluMb/m+f96mTZu4E7O91bkCFmDV+QGqk+ktv2nl7ITvfxYJzuZL8gClCnBXLiwMlBNLojTASoe4M7gqAS1dSsiUi9fX0EpbsXR1IYe5axeWJzxow5QCWdyRkF8noFsTKfnBLx+9hruf2ptVYFoUeO+9q2alUFwnAE/SWVW+hldBDjgHi0sC+fwmqfoOqjaD6tGEsofB7cWodDAAfq5KCFWIe8l91Q6eKiNkNxYnyTlSObCuRsSLfnTWzYPTIsAkN9qSACudTnPJIJcPfgwAkpPUsNarX1ssFj++efPmhjzhai2W3Z5VwCowdQpYgDV1WtqRrAINpgCm0+l/ISL+w9+yGs19CBHXtLe3X7Vu3bpCjbZpNzNBBSzAmqBwrbcaHnndaR8Bgk8DQZJdWAytlBNL6DB3X0gQyoUVlhGG7iuGUuyu4sD28q6EUZNCFNqFpbKzHEhgAlKizXQkdBh07fYxWPHV4y79futJb/e4XhRYcc8l7xHo3oJEbQEEUKAiDMkh5cLiQPaAo9lV6SA/Gm4VegY5oB0494oUtOKcLP2o4RVDLKZd7arzoKfKBzm83SEuH+T3jhhEoE/+6KxbvlQveox3Hi0JsBYuXLjEcZwbiOh14xWsDpbnWtVX2W6EdXAk7BSsAi2mgAVYLXbA7e5aBYwC6XT6oOG80M9KKd+LiG4NhfmrEOKcjRs3/rKG27SbmoACFmBNQLQWXeVV1604PpB4PSCkWQLlwhI6yL2ggt199RqDqqh8UOVg6SwsvqssLL6ZUHcTg6W+5iB4RKEcVwnkUkLOwkqqskK+fAegv/u5wpFfe/vl1t3ZoufgdO72v//wogPb3cRvCGkRu6+49C8vC8Z9FXYdjGVfMY1SZYOhAwsiWKWC25XzKiwj1AHuCRAKXkXuKxIgGGAxviJcHwCdc+/Zt3Aju4a8tSLA4r8iHktE3wGA2Q141IiITs5ms99owLnbKVsFrAINrIAFWA188OzUrQITVwBN7MI3AWDOxIeZ0JoBAFwzODj4qa1bt9qSnwlJWJuVLMCqjc7NsJVXf/k9c32Z/C4QKCMBF0dF3QgVyOJw9wCYNYUuLPWocrF0Z0LPYQ+WuYxluxaXE/JgIuxKqAEWg66Ewy4szsLyVBYWQyxJdPUdb1zzwWbQ0+5DYymw4p7V1wuEc9lHxe6pgoFXBfIhkNw7MCwd5EemVuXwit8vxcB0HAwdWDH3lTDZV5x/xRBLZ19p95WDyHW792MieNddp9+2q7GUK8225QBWZ2dnm+M4lwLARxr1oAHAQ729vRw+z4007c0qYBWwCtREAQuwaiKz3YhVoK4UWLZs2YzBwcHr+Y9n0zSxv0kpT+nr6/vDNG3fbnYMCliANQaR7CKRAkd8+bSzUcIVRDSDX9QuLAZXxokVc2GpLoQjsrA0nFIXssaFxd0JFdRS1YW6lFAo55YLKZGAJLILiyEWfw+2E/hvue0Nl/3KHharQK0UOPnui4/x0F1LSHM4pL0oiyq0nR1Y7KKSKrhdlwCqAPcK9xXjLM63CrOvClH3QQ3DpHJfcelg2HnQAZe4fJCbGwh+3OVLOv/ec2+5vVb7XI3ttBzA6u7uPhgAuLvNP1ZD0FqMSURBIpF4UU9Pz7pabM9uwypgFbAKsAIWYNnzwCrQegqY2IVHiOiAadp7iYjvT6fTtzz88MP+NM3BbnYfCliAZU+R8SjwqltPmxkMybuA8CheT7mwFMQqmnLCQDmxuFJQB7mzA4tD3U0ZoelSyOWCTKyI4ZUCWeaRUZYCWAKEcCApPEiKpMrE4jEEOJIE/Agocebtx1+0dTxzt8taBSaiwBk/uezAoFC4HQGPlRAIzrrKE5cOMsAqKnjFJYUq+4rfESr8KnRf6XeJJM6+CssG2YWlSwcZZDHYKrmvdPmgCm4P3VeEnAX/oBDi3xo1vD3UvRUB1juGA0jvZJPpRE6+ellHCHHlxo0bP1wv87HzsApYBZpfAQuwmv8Y2z20ClQqsGjRotOllLdMpzKIuNZ13TN6enp2Tuc87Lb3rIAFWPbsGK8Cr7zutCMJ6AEimMnrsguLSwfDPCx2ZAUYqK6DUemgCWdXMEsFupdcWHytbxoSllxYfMHHy3EWlkiqjoQeugpiAcI2iXBxovepW28+6+bieOdvl7cKjFWBlX+8ySs+3X8WkrgUEOaq4HUqGnhVAF/6CkBxcZXmVwywdOwVhl8DKHjFHQo5qD181J0H2bnFnekcaI+VDrqkXFcq+woJdwQQHHPv2bf9cazzrtflWhFg3QcAx9XrARnrvBDx70NDQ6/esmXL02Ndxy5nFbAKWAUmo4AFWJNRz65rFWhMBbq6uu5ExBOmc/ZE1Od53svXr19vP/NM54HYy7YtwKrTA1Pf08IjrlnxBUC8IJym7kaoywh1SSFnYUmVXZVQ0KrkxFJQSwW6lzoSMsQSfMVvnFnswuJyQl6fXVgJR7uwuKzQoK9fSAfPuuPY1Y/Xt1R2do2swKn3rloGCF8BglcqtyGXDhr3FZcRMryK3FfGgSUJNbxSZYRcOshdBzW40gAsUJ0IC8Tuq0A5rUJ4xSWEoftKlQ+SgEDC5fee+5WLGlnHcO4tBbDYBi+E+BsAeE1w8HYFQXB2f3//t5pgX+wuWAWsAg2ggAVYDXCQ7BStAlOsQFdX13pEXDzFw453OOl53mE2OmG8stVueQuwaqd1M23p8GvO6ESUPwWgf+D9kkiqdFADLC4n1BCLIZV2XWnnVcLkYo10YekcLMOvVHmhEIJ7r6kuhEmRgASXEoZZWIA+EX1qBm6/8trjr803k7Z2X+pDgRW3r0rBAfQxB8XFkqQbgISCcV8VZF65rzi4XUp2YGlYpd1XxK4p7cYy7iuVfaVKBjXEUuWEpuyQw9oZYLVDwgS3s/NKwysg+AtQ4bi7z/napvpQZXKzaDWA9WkhxMWTk2xMa5uWAWNadqIL8Vn+nY6OjlPXrVtXmOggdj2rgFXAKjBWBSzAGqtSdjmrQHMosHTp0mSxWBysh9gFRPy3TCbzw+ZQtvn2wgKs5jumtdij5Tet9JyCfzoSXY0ICd5m6MIqlRMGIFEqt1UpD4uD3U1XwsiFxWtzHpb6P6DqThhmYXEHNnZseaqMUGdhuSojCwG2DwWFV377zZdbF1YtDnqLbeP0u1e/kBz6DRHMYJeVT75yXxWCvApx5yws1XkwzL6SCl2N6r7SAEu7r5Qby3Qf9KDCfcXB7Qxt2cUFmIPAOXf3lie+/vCa5siRbBmA1dXVNRcRH6lFeDsi/pmIDq3BB77HiOi0bDb7aIv9LLC7axWwCkyDAhZgTYPodpNWgWlUYNGiRQdKKf9vGqcQbVpKeVpfX19Dd06qBx2rNQcLsKqlbPOP+4prT1rkgHMtAR7PxIldWApeoW/KCQPwhQ8c2K67Eeow94TKtuKv+VGDKrZeqct/BbG4nlBDLSEwcmEluCOhk4qysHg5Ank3tYkT7jh6Ta75Fbd7WCsFVv5odXvRoR9wcDuBLv9T7iuZh4IqHSwq55XqN8gASzcgVM/V+auysCgCVWHelS4f1O4rXqFNdR701J1zsFT2leo6KHjwuxDx/B+ddXO2Vvtd7e20DMDq7Ox8h+M4twHArCqLGgAAZ0VcCQDpKm+Lw0wv6u3tvUGlvtmbVcAqYBWoogIWYFVRXDu0VaAOFejs7DzEcZz+epgaEZ2VzWZvroe52DmMVMACLHtWTFiBVavEEfP6/h2QvgAAB/E4HOjOYe4FLiVEH3wV6K5dWLobYQiu2IklwHM458r05zLdCBW6MlBLP+gsLM6/SoqUKidkF5ZaD5EZworbjl/9tQnvh13RKlChwKn3rDoDEb/ClIlzrnwqQk4WgEsHiyq4ncPX48HtpojLBLer9wK7rAINq5T7yoS489eBlJBQ8IrvCVDZV2RKZtUjbAaJH/rR2TevVed4k9xaAmAtX77c27p1682IeBIAONU8dkT0JyHEv0opP4eIK6u5LV0oC98SQnx448aNW6q8LTu8VcAq0OIKWIDV4ieA3f2WUyCdTs8hou31sOOO47xvw4YN36yHudg5WIBlz4GpVeCoq1bMyXl4ExBwt3iHaRLnX2l4pUGWL6RyVoVZWFxCGLqx1GsOX7CbS1ttwVIt3HQmVnh3wBEOJNGUEiqI5ehlAP9WJPq3r71xzZNTu3d2tFZU4JT7LznUkc4PON9NBbdTAAVZ0J0HqaDgk4ZXMQeWyrxitXQWlmT3lXFaaXjFIKvkvmIkxdCK7+3gQQJc1XWQc68c4g4I+J0c4vt/ctbNO5rpGLQEwFq0aNGLpJRsO39ZDQ7eh3t7e7/U1dX1dkTkD1qqnruKtw3DHQnfm8lkflvFbdihrQJWAasAWIBlTwKrQMspgF1dXTsRccZ073kQBEf39/c/PN3zsNsfXQHrwLJnxmQVeMU1K14jEH4IgHN5LO3CYohVVMHu3J2Qs7DCToTaicUQi7OwdGkhu6nUxW0FwOIX2YHFIEuo8kNXhbknRVI5srjcCgF9Kem23YPrzl174lquqLE3q8CEFFh500rP7zz4ZkBQ5hnlolKlgzr7issIw66DDLA0r+JyQZN9ZYLb1Xqm82AY4K7KCI37issFObg9pcoHXVU6KEgA99gUErYRuMfffc6Nv5/QTtTxSq0AsDCdTp9JRJ8DgDnVPBaIuCuZTL74iSee2Lh48eLDgiDgksWXV3ObPDYRnTd//vwbH3300WK1t2XHtwpYBVpXAQuwWvfY2z1vXQW6urp+j4j/NM0KFFzXXbp+/fq+aZ6H3fweFLAAy54aU6HA4detuA4J36+ub9i1YlxYIcDibCyu+AvD3BXAMrlYOtRdqKwsFeMuTI6QcWEx1OKOhOy14lJChldJh7sSsm/FNZ0LRcYX8gNfe/2ae1Q0lr1ZBcarABGuuG/NWx3AqwlkF2f8BORr95XMQz4o6NLBWOdBlX9FJr9N8vlLyn2lg9pLZYMlN5ZUIe/aeaU7D3rgKOcVB7c7gOQH9MX7zr31wvFOvxGWb3qAdcghh8xzHOcLiLiiBgfkvz3PO6Wnp2fn4sWLZwdBcDkAnFXtMHci+innbmWz2bqw+ddAZ7sJq4BVYBoUsABrGkS3m7QKTLMC3d3dXwSAC6ZzGkT0Rynlsf39/c9O5zzstvesgAVY9uyYCgVec82p84sI3HRrKY+nXFgc6C5MFhb6EAipQJQCV+FdBbnrkkJHQSrFsIC4dNCEujP50g4sfo0dW7qMkLOwPPRMR0JFrb7lFAsX3PLWz9h4lqk4qC02xsr7LzvYp+KXgOBEBlEMoFTnQRXcnodC4Gv3VRjcbjKwdOdBXTrI5JRLDAsxgKU6Dpo7SYKE6jyonVfswFLB7YTKfQUEjz8nvVf+6twbmpINND3A6uzsfIXjOF+tQfdBHxH/I51O3/rww7pFZTqdPpWIrgCAedV87xLRgOM4r924cWPTWQSrqZsd2ypgFRifAhZgjU8vu7RVoBkUWLx48TFBENwHAO507Q8Rfcn3/U9u3rx5cLrmYLe7dwUswLJnyFQp8E/XnvouB4Cv3ZLKhWUC3TkPK8zF4qigRBjoHsEsdmBpiKVcWFFHQn7OnQm1M0tBLBBq2YSTUE6sBCZUNpZCXyi2AdEFC9voW2uOXqOu6ezNKjAWBVTpYNchJwNxQwKaI4GD1gPIm86DxaCggFZYPqh8hsZ9Ffn9KOa+UoHtfOdSQn7UmVguoMm+0gArQY7pOohcQjgEBO+9+5yv/NdY5tyIyzQ1wOLw9m3btp1BRFcDgFfNAzScQ/V3ADgpk8n8LtxOV1fXoYjIP4CXV3Pb6o8MiF/KZDIfqvZ27PhWAatA6ypgAVbrHnu7562AGsjoAAAgAElEQVSrwJIlSw7wff/HAPDiaVKBM7hOyWQyd9mOy9N0BMawWQuwxiCSXWRMCiy/aeXsRLF4CxG8k1eQSCrMPXRhaUdWEJUReoilLCyVbxV3YSFQFOSus7FUoDt7sFTpoWtcWEnw0FX5WMqzhfS/JOG4O9645v/GNGm7kFUAAN77/VWdyTbk35cvUCWCCj7pzoMc3u7L0H0V7zyoy2VRBbjzs9HcVwEUuAuhlKq0MAxubwMPUiq4XXDZoHJhkcTvyOLgWfed982dzXpQmhpgmTI+DlJ/Yw0OIHcDvKCiG6DT1dV1G4es16D74bNCiEMymUyuBvtqN2EVsAq0oAIWYLXgQbe73PIKLFu2LDE4OPhhIvrMdIiBiA8GQXBOX1/f+unYvt3m2BSwAGtsOtmlxqAAAR5+/YpjkPDrAHAgr8HZV2Gge0EE4CMHupNyW+muhA4kKkLdnTDIXQEpAMFowDizdCkhh74z8DKlhOzCUhBL5WRJH+iqrx6/+iNjmLFdxCqgFFhx36prBIn/YOzKRYKB9LX7KshBQRZV9lXkvlLOKwKpSgd5bV07GLDLKjDdBrlzoQJXoQtLgqdKB7nzILuvPPAUvNLlg0hiUwDylPvPuvVnzZzh1tQAq7u7+wUA8CcASFX5fTVIRJ/MZrPs9CoL/Ovu7n4PANwIADOrPAe2IJ6UzWa/Ue3t2PGtAlaB1lTAAqzWPO52r60C3d3d3MWZHeUvrKUaRLQbAPjz1bWVn69qOQ+7rX0rYAHWvjWyS4xdgaOuWjEn54rLAIizhB2GAb7woWDKCPk5O7EYUpUFunMJoQpzRwW32E2lSgkrXVhsxuJSQ1VKqF1YKUyq57qToeD1aAj9w7593Kf/OvaZ2yVbVYEzf7zqJUEg/sStBBlLcQdB7jaowtuDPBQZiYIEKTnW3WRdme6DggPclfvKBLdLk3clOT+LQ9w5zL3kvtLZVx5wF8Iw+0qQ4wPQdY4nP3XX6bftaubj0NQAq6ur6zOI+IkaHMC/EdGZ2Wz215XbSqfTBxERhxEuqsE8ftrR0XH8unXrCjXYlt2EVcAq0GIKWIDVYgfc7q5VwCjQ2dnZ5rru+UR0US3+IGc2y5/y7xdCnLtx48ZeezDqWwELsOr7+DTi7I649pRXIeBNBHgoz19lYYWlhCbUnV1Y3HlQdyI0HQkZYPHXDjusGETx2gyyzFOhv1alhMa1FbqwOAuLIZZGX8q59RN/KP/ur7398m2NqKGdc20UOPXeT8wHSnxfIL5GlQ4qEOVDgQpQCPKQN+4rUoHt2nmlywW5bJB5lva/MPQqKveV6T4YZV9xlpZ2X+nOg6H7Sue2cedBJPG/QHLl3efc2vSZ2E0LsObPnz+jvb39LwDQXeVTlz9g3RV2HxxtW+l0+iYiWlnlefDw26SUx/X19f2xBtuym7AKWAVaTAELsFrsgNvdtQrEFEin02kiugoA3lztWATe7PAfBjcBwKnZbPZBeyDqXwELsOr/GDXaDJfftNJL5IsXk4CPAkFKu7CCWB6WLisUCApYcfaV6kQYwizOwsJSoLsGWeUQi7sZqo6E6ELSTUACk6qkkEsLeXEBYqgog0vSb8Sr1uAavuazN6tAmQIn3HmnM6PjLx910LlEgmxjLFVyX+UhHxSgKIsKXHH5oCJW0pRshXVbJrhdrcduK1MyyO4r3YlQqjJDzrsKARa7r1T2FSGXEOaA8LK2/Z67fO2Ja4NmP0RNC7C6u7vfMWx1/14NDmBYPvilPW2ru7v7lQDwq/BnZhXnlJdSXtHX13dJFbdhh7YKWAVaVAELsFr0wNvdtgoYBdLp9EuIiLNFl1VZlBz/4S+bzX6bjRdV3pYdfgoUsABrCkS0Q4xQ4J+uX3GQI/FnHIrN32QXFudfRYHuIlBpQ05ZJ8KSI4vdWbokUAe46yemI6EJdOeOhRzerl1YKdWRkN1cXF4IKLhN3P8ETrDyq8d++lF7iKwClQqc/KNVr3BdcTMQvZjPLYZURdLuK4ZXXELIYe4cvh66r9RjzH2lgtvZdWWyr1TnQQOu2I0lJZVlXzHI4uwrQQKUX1DCY8KF19915i1bWuEINSvAwq6urvsQ8dhqH0RE3Or7/qv6+/u5C+Gebk53d/djNfjAx9t/GADe09vb+1S1992ObxWwCrSWAhZgtdbxtntrFRhFAf58xfDqQUQ8uEoKcTOaDyxatOiOhx9+2MKrKok81cNagDXVitrxQgWOuPq0E0HQdzV60i6sAoe6G5DFXzObUi4sFeiuywlDNxZ/zZAqnoUVQiwUYVdCdnB54IkEJAW7sDgLS3ckRBQ+EF05a86s1Ve98oIhe2SsAqECJz3wkQ5PzrgUCc8nkI4GUb4KbM/LPOS4dJDdV1xUyABLGoilEtZLnQcZbnGHQVU6qNxXGmDpUkIJwrivdOmgCwnVeVB3HeRHKeVb7zn3Nu7U2xK3pgRYixcvPiwIgocAYF4NjuK9vb29++xymE6nP05El1d7PkTUJ4Q4L5PJ/He1t2XHtwpYBVpLAQuwWut42721CuxJgYULFy4RQqw1oe7eFCnFtRVbpJQXHXDAAd989NFHi1M0rh2mBgpYgFUDkVt4E0ded9p9RHQcSxBwFpYqJSyq7oQMs6QIIheWyr8yZYTcnZDD3EMXFncj5OyrCGCVdSU0LiyRhKRgFxZ7WzgwS2GsXkS54pbj1vy8mbu7tfApNv5dJ8JT71n9ryjEHQh0iM6+kqpcMM/B7ZLdV0XlvlJ5V+FdBbjr0HYuCwzdV8pxxfAqKh/UAItD3xPgmM6DCUhxcDt3HZS6+yAQ/OCes2/hyrOWuTUjwMLu7u5PcteaGnQfJCJ6dzabvXNfZ4zpiPgbAJi9r2Un+f0AEb/o+/7q/v5++1eCSYppV7cKWAVKCliAZc8Gq4BVIFSAIZbjOB8loreYVveT+Uw5CAC/I6IrFy9efL91XjXeeWYBVuMds0aa8ZHXnPxSCeIedn7yBb92YfmxcsKAA6sUuHKROxCG3QjZlcVdCUdxYaFaRTmzuCMhYypHuJAyLixPeOCiq6oOVaA7wPdzMnfmt9702e2NpN0+5oqrHnrIWbD7yUTeybtB20zhBQOO53iYdzzEHHmppEzmBXnkk0BCJ2DbGgchkuR+ewEGKB3HKwinkM+D5yeDIjl5R+5K7pKFnbMCb/4Ov/PIzsKJeGJTZTOd/INPzHNTyTsQ8E26fyCBT74BWBzcXgBfdR5k55XOvpIqsF07CZFpKnFeVui+CowLS0Msn0gBLLZ1xYPbGWaF2VcCsK+I+IYHVn6lpTplTubDRl2+dxctWnRgEARfR8RjapA5tclxnEM3bNiwY19iLF68eHYQBJwbsU+31r7G2tf3iegXQoizMpnM4/ta1n7fKmAVsAqMVQELsMaqlF3OKtAaCnR1dc0lomOFEO8czvrkz13j/SMdlwvyB+/vIOLd9nNL4543FmA17rFrhJkftWpFKre/+Ngwu7oYgFx2YbH7KszCKohAfa07EiJ4Blrxo7qzC0tBqlgWlonEUo4slYOls7AYXOkyQg51d0GoDC3uSIgFIDrztuNXf60RNAvneOUjV7YFu9pmJoRIOQ7OJAg6HeEukJLmOoAdEqEdgNoQMYGALgExtXOQhZHUBogdRNSGzKwAPBZCj80WIigCoC8QB4nkAADmgdcikgjIJeBFQioAwiASDJIPA4TwrHCg35dysxD+gCvdofxQftd5x5+Xr0Nd9b6GYeslckKn3bfmdAFwIxG53GCAOwxy9lWOOw/6eShy9hX/i2dfmYaD7LzSXQgZXnHHQtN1UIErHofLCHX2FTuu2kzXQc6+CssGHRLF4fCr1TLf8cX7zru2HrWr2uFsOoDV3d3NgOg6AEhXTbXSwNf39vb+x1i2s3z5cu+ZZ57hToTXqKYW1b3tRsSTMpkM18LajhnV1dqObhVoGQUswGqZQ2131CowLgWWLl3a6fv+oUTEEOuNRNSNiO17GESVCgLAIwDwgyAI/tLf389do+3nlXGpXl8LW4BVX8ejGWdz5LUrDiPAmwHgCFV2ZQAWO7G4pJDD3SWSglVRJ0LlyHLVa65gKsPB7CZ/SIW4h3YHBMF5WKCXTzg6CyuJCXCEycLSEKt3aHvu8G+/5zN1F5Z95Z1XttHs5P6JlDtHSPF8COQ/CcfpIofmUKAAlQcCkkAwFwHmAGE7ISUQWZTwpssrmfQpyKKQn/ILhU0c93Fq6XUj5hOCHx1YHhDIAgIw6NoOgM8BSIZbRZA4JEk+C0QbEOB3EjAz4Oe3Dz73zDNrTlxTqOn5rCr79MRXr149gpWsXr2azrxv9SEEyJVVnbwkB7dzqWCeg9tlHgpBAbiDIL+uA9vZdsWQS7uudIC77lYYAiyGX6UMLC5FlCq4nd1X+u5BghxVNsi5V0D4a4Jg5X1n376upvrUwcaaCmAtW7YsMTAw8CkA+Hi1WzwzWQ6C4FWbNm367ViPI3cjJCJ2hy0e6zqTWO6GXC534ZYtWwYmMYZd1SpgFbAKRApYgGVPBquAVWAvCmBnZ2dquBtyRyqVag+C4DBEfIWU8gD+yz4APEtEf2lra/ut7/vbETHX09PDn1GaqqykVc8QC7Ba9cjXbr9PuPMEZ9PTHedLiZcCQge7XpQDy8CrEGQ5iJBgYKXcV2GgOz/qgHcdzI4cq60eNcTSgIZLCRkQeI52YfHdC11YvCAhQ4db73jjmjNqt+cjt3TnnXc6fbO3LvBE4hDhwnKS8i2Og/8IiCkg5nToAZt3ENzIOGGu+ksoyoAUw6zUVkyXRv1UW9QUgDH6KDAVQSk9L+1q08/NotFzbV1S5ZflACzWhU/BIqUt0x52dEFOO7uI+c+QJHocCe4CAX+AgWLfucefuwVR47Vq3FatWiVgNcC6tYfisvl/HcFKDt16KD0wa93XgPA9YTkgB7czsGJ4lQ/yUfaV8liFbivFsIh7Buo8LOW+0qBKB7hr11UY4M4rsuMqLB9MGveVIASHnJ1EdEnHvB3Xrz1xbcv9Dm0qgLV48eLnBUFwIwC8thondHxMIvq9lPIN/f39z451W93d3QcT0VWI+K6xrjOJ5bJSyiP7+vo2T2IMu6pVwCpgFYgUsADLngxWAauAVcAqMJoCFmDZ86IWCrzyutO7JdDtQHQUMxFVRmi6Eepg9wAkSgOuGFgZiMUlhQpm6VJCTa0MOEENshSy4TJCpj4Ou7Y8SIk2SKCnOhKGpYSIsKMI8uT0cXD3alhdBlIM9JkSuKJAyqHgzpsxL+W0zWwnKnQT0vMEOMcCwrECcX9ioqbmbdSPIJWKqddcqBIhxXa97JiF4fY64t7QqBidikGo0KFUgaVikzASKInN0nqqMQIWduJTXLBUpheqp7LOS+OEOyIlPYOS7keEe8EPnnDR3SxSYtBP+bmVy1f6k4FbRIRrYa3Y/uh2sTm1GZ9NzsP9+rfhzuROo+xC2LZj+zuS4H5ZAsxULiqQUefBXJBTZYScfRV3X3H3QU0DjUS8XgivInDFMEt3H+QywoRyX3kqvD0FHnjccVC7r/jfTwpFueLBD9zWktf5zQSwuLXzmxDxqwAwt8o/RGnYbnnpcEj8ZzOZDOc3jPUmuru7PzRMwnndPVnrxzrWPpcTQpyycePGhqrT3udO2QWsAlaBaVPAAqxpk95u2CpgFbAK1LUCFmDV9eFpqskdef2p/06ENwDRbLbscKB7CLFUsLsIVJ5VmfsqzMRSLizVu01DrBD4hC4s5TTiLCwBCeFFpYTswmKIpQGVoio/c9zkaQcfvPj/eKgFue20eddmWrf1UFr217/SmtWrmYrxt8YFs25/6PYUOTRzcKi4GDzsJoQugXQkomBgt582RZXK/MIdUK+ouRsoFzviehdL+xo/GSLwZSaqGdZIPKBR08hxoiXVN3Wpob7FPVclCXQponYlxZeM5mTsXdEaZeoZN1OFqjKgbYD0U0B4RAbQTxT0CQrWy4LcPd5crVUPrXLndc5z/K2+CDoCIZP7Cdq9VcDcuQDbAbLbn15QCORNAPhqkookqdJB7jyYU+6rAhQVvAqMocxkXcWgHO8818vrjoOm8yCXErL7ynQg5DOMs6/awVPwKsmdBxlgKYiF24ngjHvOvuUHTfXGHsfONA3AWrBgQbvnef8JAAyIqn3bKqV8X19f34Pj/cG0aNGif5ZScv3286s9SSL6ZTab5R94Nlei2mLb8a0CLaCABVgtcJDtLloFrAJWgQkoYAHWBESzq0xIgSOv/FAbuM/dQQgnqvwhlKqUUJcQcmdCdmEROAIhgey4ciCBqEsK2ZHFLiyVhRUDMjrHPSov5Fgoh7OwuCuhk1KB7gywGH2Z0PfnHBSXPX/mQbfN3m9+MfdUP7kzXZmfvTBI7uiTczfMlSeccIIcixvo+ofunBEEz3YJIY4QjngBEB0ERIeDwEWmBNC4w4xcMZdVyXqlv6d3Kb5A7PUytfcFtEZBBCPqACsPX0hpYuvGSFVl6WE43xKs0s9GLKe2q1r3aYgW/U9vR2dMhaHo4IOE9SDgESLYQj6t8wv+7+WuXPaCEy8Y2tsJx4639Ip0IpMZdNtmuo4Miq7nOw55u4QnZuNAvpjYPLTjZD8IPjxcUTWbtxtwsJf0VcfBvMxBPihCoOCVDnXXj2arppSQv+Lsq4KBV1x6WFCOLH7Uwe2cos/wSoe36+B2N8y+AvxG+9wdp689cW1ts8Em9G6tzkpNA7C4+6CU8tcAsKQ6UpVGJaIHAODcbDa7YbzbWrp06axisfgtADi+Bl0S+cQ+ore393/GO0+7vFXAKmAVqFTAAix7TlgFrAJWAavAaApYgGXPi1oq8MprTllCiH8iwFns+9Hlg75xYgXKhcUcR5UNmtJB3ZkwzMWKQJQuwjOh5Sj0F7qU0IEEwy8nCSmRUllYDMPY3aUKDRH+1OEkPrJwzoLH0c9Jd3bCl65TTO4Y8Oem5vpwKAQnwOgQ6/qHrp8R+MHz0Em+WwjxUgDab7iKaJGqIlKVf2GKugZNcTAVcrfIfRVdze8BXFV+P4xmj22idOzCWr4YIojbrAyMGdU9VWnnKjsh4laq0tolWBWDX5Gbq8ImYkBWHHAxIApnHHrdwtB0ImSCtA0QNwLBtqBY/COK4LtDxaHMhcdeOCIjetVfViXa3a7kczu2JBI42/MAPAfynu85Dvgkdg0OPn9XLviMBDqUzznuLigVdPKN+4qzr3wgFd5OANIArDADzAAsnh87r1Teleo6qJ1YKsCdpGJ1nH2lAZYLnH3Foe0MsRDwWXLoZfeecWtvLd9v9batpgFY6XT6XUTEYKiqHf6GA9MCRLx8//33v/TRRx/loLlx37q7uz9iygjbxr3yOFcgomuy2ez541zNLm4VsApYBUYoYAGWPSmsAlYBq4BVwAIsew7UgwJHXn3KJ0iIz/BcApTKgRUvJ+TXOLR9BMRChlIiyrQCYaxFBhTpYHe+s3vLhaTKwkpC0kmCJ3QpIaMEQAwSwrnjoOS8G9pSYje5Ig9BIZ9MzMgNPBUUug9JFdeuWxuEIdtEJK758Y3LHE+cDALfKQBngYCZAJAolQCGgfKxOUXEynQHNMV3YcaVOhax0kJVpBexrAjv6EMWh0ymzK+Mbyl4FEKzeEkgv25gUUVRpB5SB7WXbmb+MfdUSJpCI9eIwsKSvao0VuVrcTeTWarkcNIjR/lcKig9tHQhtwrMA+IuCmhbAHCHQ8X/Ovfoc57kklDOvvrCY19vHyg+3ea6Ikm+m3IEJAmDRADoQVG0bx3YfU5QDE4gJCEldx+R2n0VFBTA4s6DHMCusq9k6MAyivAkSc+Nv18IGFZxaHsIrxhk6VB3Lhfk3KuS+4qdfwiOFBAQXXD/ObdeVQ/vv+mcQ7MALM6/egARX1cDMTkc/QN9fX13TXRbS5cuPbRYLP4MAA6Y6BhjXY+INkkpXzSesPmxjm2XswpYBVpLAQuwWut42721ClgFrAJjVcA6sMaqlF1uqhR4xXUnzxPkcJzLSzmLyOdSQuXCKkKBOxOKQLEYT+VhsftKdyTk5+zK4q/ZTcVQp8yFxa8JzsFCBasSpiNhu2hT3QkZiOlQdwWHCnMSM8+d3972OAEMFqUcwCA5gG3PDiSeS/g4gF6QdDrRodeBEB9GgAW6BDEGikLYFIdLUYWf/mYUxh5bphTcXrqcLzdbmXVDwc02dcO/8t6AUYh6vLIwXjI4Ilor9IsoW1GstG8v9UVhpV+Uj1WBskLmFSdhYbdCDoLXmyqDZJXleVF8FwOk0GkWg2BhGaJyaamugLBRSvisA+Ln4OWf3p2kZF4EHZ6AGRKC9oCgzQWReG5w6Pm78/4XEcBRzitVOiihGJjsKwWwihAw1uJtS2lC3E0HRuO+4nV1x8Gw22Cgvi5QwHBKua/CroPswPJU9hV3HRSMD38jHXrTA2fcOuYGclP1Xqu3cZoCYC1evPgffN9fh4hOlQXm0+/nQRC8r7+/f9MktlVL4LabiLjc8euTmK9d1SpgFbAKgAVY9iSwClgFrAJWgdEUsADLnhe1VuCoVUe5Q/svercAuJYA5gQKYvlQELqUUHUoFIECWApeReBKQyzXYXcWFwMKlZml4tsVz0LgUkIOcufcLO5ImBRJaHdSkHK5oMsFx1Fh2vqfEP/vwI65lyeAtgWEOyDn513fPxjRW4oCjkWE1wNiKmx8qM1b4SW4ruOLfx1FWFVkWVXCqT3Cqtg3TJ8/Ez4fHqGSu0tTHh0Lz7c4sxr9eJZi2uOjjd6NsHIE40KKdxYsx1Fh1FVsNnpSZahrRNB76bsRq4rcV6VZxqKyokE1D2PgBAMEdA9IelAm4KlBJ7cj78iZDuKMQAZznh3Mf5AIlqkAdnXX4esMrYYUvMqr8HaGUVxWqLOveDmjquQjwevwnZTzSoW4RyCLOxmSKh1kgBXPvuLyQQHiWZB4Tse8574fOvpq/X6rp+01BcBKp9OfJaKP1UDYAiJ+abjz4MfHG95eObfu7u73AsA3ajDnAAC+WywWz9y8efNgDbZnN2EVsAo0qQIWYDXpgbW7ZRWwClgFJqmABViTFNCuPiEFll+18mDXLbIz5l0cI8OuKxXmbgLdixgAlwjqMkId4F7KwkLlyFKZVqELi9OtBBuwBAhhMrNUGWECUk4S2pyUcWHpsi7+jxlFm+N9dZ7b/gfHl90g4SAgOBod0RldaKvM+HiulPnK5G+V2iGyDAakKUXKw9bDcr1QrLKKQLW4hmrRrayUsELieHVhVIIYXyYGugyH2etBqqhWDFeJwwadTxXHZaURQ5ikXgndWuxKii2ufFWag+mbcVKVTW8v8EqvHlnBSgHwYRg8R1cRbSSAXxZF8bmCJ5/a5g+9wg/8t6nd099XQe3FINDlg0EBCrIAxcBXZYFSQSwNsFS/QYZXah12X3HJIJncqxLA4uwrBlUaXHmqhDABju46yFleiN/II3z0p2fesmVCb5QmW6nhAdYhhxwyz3XdRwDgH2pwbLYj4tsymczPJ7utxYsXzx52cvUAwP6THWtf6xPRn4no9L6+vj/sa1n7fauAVcAqsCcFLMCy54ZVwCpgFbAKjKaABVj2vJgWBQjwiC+veBMQXgMEaQnckZCdVwZiGRcWO60YXqlOhAZmRSWFppSQ2I3Fd4EqrJ2hlytc8IQHCc7BcpOQchKqIyGPxb4YhUOIYKZI7JyDqaeJOwgCzlDlhUKlUcUypUJaFUIZDarKIVUMXpXxrvgluwmaj+rpYkHv6iCUtqO/iihWeQle+HJUljd6Z8Ly41pWw1f6VljjGL0SLlfygMXHiUOkyvMm+p6ig+E4MegU20bccVUOseKgKl7iGOsKqFYofR11M+TOlhxyBbBTAm3bKXMH7BRDHdxxkEdVAEtKyAc6/4rvBVkEXzmwAvU9BlilLCwNvSJ4xSWE4Kvg9tCFxd8P3VdcOsjPDbzizpcbJeL771v5lfsna6CZlvdoFTba8ACrq6vrRES8BUCF4FX1hoh/njdv3vKJhrdXTq67u/tmADizqpPWRHk3AHwym81ea0/8aqttx7cKNK8CFmA177G1e2YVsApYBSajgAVYk1HPrjsZBZatOiExe97MWwjpPQDg6NJBDbA4C4tdWGxiidxXKFR3QfW1cllpVxaXDergdv4elx264DoJSKILnuOqLCydh5UAB9lSFYBACbNlhwp65y5xChgZR1fJPMVlhjoCvSzmynyh3F/KaRT7Pj+PV/qFy+oNGCQVA1NxUKWWCesB914eWMrD0usQ8RzC/KgKTKCCs/aADiq+p6cehlrxF+ErI7sGltoIagRVEXNVdmqEDqz4i0QKNqlbyeEVZlyVRgthV2mMOLziKfJ3dFA+DxkCLeWcAh+ew92Q59I/7nqpnFS+KiHMB0UoKPeVDz4/hhCLx1Mgy+Rlccmh5FJB/aizsHSIuwfCZF/p8kGP2OEnOP/KJ6KvdqJ7zs1n3Tyh5nGTeW/V67qNDrDcrq6u2xBR/cCqtshE9PFsNvu5qdpOOp3+FyL6aS3mDgDfFkJ8aOPGjdZ6OFUH0I5jFWgxBSzAarEDbnfXKmAVsAqMUQELsMYolF2sKgocec3pL5UQ3IOIB3PAtiolFJyD5auSwkAEChAxtEqEge7oKpCVcBz1yMHsruOAw0DLccFjcMUOLH6uYBY7sRh4AZAIoANSMIPadKg7OYrtcOlhCGvCXKtSaHt53pQCViFsMgDKRFLpksaoaSAvpZdlwMLurhIvqoRYBpTFVS4LhK90UOn1IwOVYVS60i90kJUGG5mAFXb5K2db2jhVKhcMQZkOudoTGIs5pcrKEQ1oqihR1JuI708IpHTelCZavAg/NyuXjFzafWUWCgPiI3zGAMuUKzKA4n/cdXAQcrALhqDA3QcZRAW+CnLXj+yqYieWhlPsxNJh7hp4cedBBU5hXssAACAASURBVL1UfpbpQshOLwJIgRPlXqmUNRIguHwQoF+SPPa+s29fV5U3ToMO2tAAK51Ov4SIbgeAl9RAf86PemFvb+/GqdqWKX9U3TOmasy9jLOBiE7OZrO/rsG27CasAlaBJlTAAqwmPKh2l6wCVgGrwBQoYAHWFIhoh5iUAkdcc+rFgHQpo5QAGWCx+8pXbix2ZXFQuytQu6+4u6BgV5ULSRXS7kCSOwwyoFLAytOlhq5nXFoOOA6C44DKJpoB7eqRSxLZjcWwQYEgVTZo4I+hU+VlggYKhVlVJjw+pEhq7ejqvFSCqIGWKT1ULqlQqpGX8pU5WSNELWdepUyqKFw9nlFVGn9v0GBkYWFIwkKQVZqv2o+wJChkXNEA5Y6psuWiHTHYKbZR5ZaKAa7416M5ruLwSs0wBFvRE+3AUv/Ma1wSqEoBIYCdOAh5KsKgKiEsObEYZjGs8gNdSqg6FZq8LOW6Cth9ZbKv2KlFBB4JBbD4jOIAd1e5r5DdV9IH/OgDZ93yxUm9MZpw5UYGWJhOp88ios8CwOwaHJv7e3t73zCV2xkOn08R0ScB4OKpHHcPY0lE/Eh7e/v169atK9Rge3YTVgGrQJMpYAFWkx1QuztWAauAVWCKFLAAa4qEtMNMWIHDr3nvLCES9xPBkQweOAtLu6+4nDBQrizOt1KuKwZWnGvFJYGOax75OQMrV5UPsjPLc9mRheA6CAl0IQkJSIGnOxGC0PDKlAzuDVyFYCpcJsI5FeWAcbeW8UbpRcugU0Ww+4hQ9JGurLIugVF5YRnziW9GPedywhJP20P2VdnR0q6xkAaVxWLFyyFHDFVyaqnVYyHr5SfDnsoLyx1aZUuFoe3GERbPudJTDT1YpXlrN5YpJ1QOLj0nFeDO/7i7IEgoUBEGIAdDsqDueb8IA8U85NmFxQArYFBlXFrKgcXlggZgqRLE0H3l6vwr8iDJUFQFtzMUhV8WdxXe8OMLvz4w4TdFk67YsABr6dKl833f/wIRnRRrZ1Ctw0SI+O+ZTOa7U7wBhnDHEhF3I5w3xWOPNtxDw4Hu78hms9trsC27CauAVaDJFLAAq8kOqN0dq4BVwCowRQpYgDVFQtphJqXAkdec+i+EwGHXqQClAVdFBbN8IYEEleCV63H3QAWv2twEtHHeFQe2syPLdcFxdUdCdlm1IQdre+BwPlHougKhSv1UYHusHLAEq2IAKAJVUV2gKQrUmVPxIHe9frx8b5SQ9oiAlfGt0TOqRkRXxQhWPAi+7Hn5uBTOcdSjo/OmRis4LI0SUqu4u6s02AgD1ujWKw2cQvtZRUfBcLQISUXlgiEg446A5SlbUVfDELyZCscIbKlKxNDxpd1YXKKqOg1yqSoF2okFORikvIJUg4U87CoOqnwsLhnMK9eVDwVfwyt+rvKvpFSwqo1cSKGnAJbHrQEUvMJBkP7r7zvnq7ZyapRzrmEBVjqdPlxK+XVEfN6kftKNbeUsABzR29v71NgWH/tSS5YsWer7/g0AcMzY15rwkkUiOjKbzT464RHsilYBq0DLKmABVsseervjVgGrgFVgrwpYgGVPkHpQ4Kjrz52Rk7kvAdDpbCAKVAmhdl8FCmBJcF0HUiIBbQywFLhK6uciAe1eAlKeA8LRQKYNOcRdO67YgcU5WQ5DK+V64nB2/agejF1pTwDLLGHMUAyuSmHskQcpNFfFIM3IToUlP5UKho/BLMV9RstaN0BMuaoUbaoId49NIIQ3UZmi4jcxV9eoDqrSImEVXrQLIZ8L46+MG2p0/1epPDDKzSo7sWKOqfjrUZ5VebuySjeW7hqpoVTc6RUPhw9dZJGbTDmvTCh8RS4WlxUyxOI7O7J20qCGWoEP23I7YVdhCHIq7J1Bln5kyMUASxJAkhzjvnIhwaWDxn0FAm8IkvkLf3yydV+N9nOlUQGWu3DhwjOEEAx+anH7Si6X+9CWLVum3MK3dOnSpO/7q4joozUKc7++t7f3P2ohmt2GVcAq0FwKWIDVXMfT7o1VwCpgFZgqBSzAmiol7TiTVeCIa095FYL4FgF2MbBicMUh7pLbfbkE6CC0ux60uwyuEtDhJKDDTcKsZFKVCjJYYZdVCpMKWmnHFeddieGILaHKEBW0Ul0LmYWEDindbTDiSREBYljEyzBu4pD3klsp5F6aKVWWBpbS1cua/4W1eSOyrELQFCvJi13px31XhsPsoalgLEzK7MweDFFllYmxPY9RJG7pp7sQVpinypsPaqZUvl4UAj966WCYpVW5aiXiUkBOHaMQQpk14rlXqgNjSOZikIvBWBzYsQMrKjHUAfEMsTjLirsLcj7WoGQ3VkEFye/O52HT0DOw28/DkK/D3lXgu5QKViXYfSXZgeWAKwXwPyTsESTfd+9Zt/9usu+FZl2/IQFWOp2eQ0TfBoDjanBgBono1Gw2+z1QxsOpv3V3d7+NiK5BxM6pH33EiFuI6AW2jLAGSttNWAWaTAELsJrsgNrdsQpYBawCU6SABVhTJKQdZtIKvOrW02bKQXkRIJ6PKNqkkCAdAnAIBJcFeghJ14MZbgpmJ/jeBm2ey2hJgSqVdYVcKsh5WJxzxWlXCi0o55IGWKYvoH5Jf1XpwlL8yUApFbweS7UK4VOMTJWcVBr6lHEqTcpK3QhHc1mpaSgSE80ngkblMVOVWKosjScCQ3Fr1wjXVXiYzDfM9EozjMMorU9YihdrTqi7BFbSCAO89DdKGw53weyenkDkpoq70szc4iWE0TAxvBUvQTR5WKUseEWpysPdY3laUbi7eU3lYpEOZWeQlaMi5LikkMsFScLWoR2wJb8DthcGYcgvAAWkwtoT0oEUuSrI3bivBkHCF4Jdhc/b7Ks9/yhoSIDV1dW1HBEfAoCZk/4pt+8B/hgEwWn9/f1/3veiE1tiyZIlC4vF4jcR8TUTG2F8ayHiaZlMhrs32lsdKrB8+XIPALwdO3a4uVzOlVKK9vb26L06NDQkPc8LBgYG/I6ODj+TyRQBIKjDXbFTGr8CuHz5cnfLli1uR0eHWywWhZQSfd8XQgjiezKZVMd+6dKlxYcfftgf/yYmvoYFWBPXzq5pFbAKWAUmoQB/BhDpdNobGBhwZ8+eLfj3Av9+4LvrunLnzp0ylUr5c+bM8detW8efC/Z4yTmJeexxVQuwqqGqHXOiChx57YrDBIrbhBAvZ1cUOQToIjieUPeOZBIOSs2EDtcD19F4isPbNbjSritXlQyGpX5cJljqNKjmZcrwNLcqAazIVRWHWiHMMjsUrqNWNevH97UMZsXXqRQk5gALvzX2i3sDiGKOsFFisPbykySEV2aL8Z844STK7Et7Ppp752N7/lEWlflVDF22RgxyxRcLSwnVaxUliKXugwZ4xVxX4bKRYyt0ZbHnygAs7j7IpYRDVFClhUUOfPcLsC23CzIDz8BQoaCgFQMsLh3kLCwhGWLh7xDx1HvOvOVvEz33W2G9sZ/jdaRGd3f35wHgwhpMicPbb3Rd9+M9PT07q7g90d3dfQUAcGlfoorbMe9R+uXhhx9+9Nq1ay30qLbY+xifO1EODQ3NamtrWxwEwZGO47yYiOYjokNEbHbm35b8Po2/V/nHqCQi7iwZEFFeCNErpfyT67q/mTVr1tNz5szZXWu4Mc1SNuLmncWLF88AgAOKxeKhjuO8VEr5AkTs4OPPx550WEH8+PPPJHaC8vFneMWOyv9NJpO/GBoayh544IG7Hn30Ub5wqcrNAqyqyDraoM6CBQuSQoiU53meECKRz+fnuq7bTkRtROQiIh//PADkXNfdmc/nhzzP84MgKMyZM6fw2GOP8fdqCjhrps7YNoRLly5NPPPMM22zZ89mzeYCwMF8H/69fhAR8R/AUqyx/uxK+eFS/kFEHCCipxBxsxBiEwA8t2PHjqGDDjooNx1QYGy7apdqMgXEsmXL2nfu3DlbCMG/E16CiC8kov3ZIEJEAlFdSZf9btCnMQX8O4KIdiHiYwDwm8HBwXWzZ8/e3tPTwz8TqnazAKtq0tqBJ6DACXee4Gx+ZvYHHMTLHCHa0QVwXAGJpAsLZs6CNo/zr1w1ssddCdFTd37Ooe3suuJyP8Flf1w6GIW0x7Kr4s6rWJ6VNl3pjnxhHhZvJ3RghbsTga/IWxXGaIXd/GKZ7MZYFSVXjeJaKiszLCvQi2hSlL8VgqqoU2AlfCo3Vo24CCk7JOVGKfWteH4Vh9RrWKTnwXtXBpgqJxFW/I2oKjRliHvYeDm0ijmtypavLAnU0yrBqFLIeykjS4/FcErdVGfCuENLj8mv6Y6FulMhO7ECSQpg5WUBcrKgsrR2FAbh2aEBeGrXNhASVemgcl9JHJQSP/bA5s4vw5o1Van6msBbqS5XaTiAxe6UrVu3bkZE/kVe7du24Q+zF2YymTuq/Zesrq6uYxBxLQDMqfZOAQDv15symcxva7Atu4lyBbjz5GwieikinkFE/8y/O82dL6SSE8hC45+iPl+AIWLOXLQ+S0R8Pq0VQqzPZDL8ur1NrwL81/NZRLQIAE4HgDcAQLuBlXzc+c4Aezw/lxlC80XJkDnuz/Bx586mBxxwQHaqYZYFWFN/Ap1wwgnOb37zG75QPch13X8OguBNAHBYxbnA5wRDzUqgyR9wFNTkK9fY7yl+zhey64Mg+DkA/MR13Sfa2tq2r1u3rjD1ezH9I5o8ybnm/cUavh4AFpg/AvDFPt8Z/DEA4KuWUQEAf0ZlOMggwLyn+FH90QAAngSAu6WUD3R0dDz1+OOP72hxSDj9B75JZrB8+fL2p59++mDHcd5BRO82sJXPUf6dEP5u4J8BY73xOasANwAUiKgghPhxEAQ3zJw58/F169btHutAY13OAqyxKmWXq5UCR155QlsiNecPnuscysHtc2ak4MBZMyHlaXDloFDQKum4ym3FJYMq50rokHYFrUwJoPrlG3YbjLmeSkHsPGK4jn5uXqnIP491HYzcV6EiGk9F4KsM84RuqdJHRPXKqKWEetnS/8PxVatAQ2zMa+Ego330jHEvszOlQzfCFKVfYD0i05UCeaGDqXKw0j7rZ6WMrHDoiIvFawbDboijOLtG+rR05pUePV7EGL4YQ2nRoqVRok6ERra4Kyt0fqkPXjoUK/zPgCzjxlIdC3UZIXck5HwsLitkwDVUzMOm57bB7qEhcCRnX8Gfhlz5qodPvcNes+3jh8R4LpRq9fNmr9tJp9PvIqLv1GgyjxLRKdls9q/V3h6DuWeeeYb/WvaP1d4Wf6ghoiuz2ewnqw3marAv9b4JMX/+/Pb29vb5w2Dh0OEPkx9HxFfVeNJ8AfY1ALhFSplJJpPbenp6+CJ25M/6Gk+syTfnpNPpmcVi8QDP85YT0fkA8E/mwrkWu74DEa+UUn7Pdd1NGzZs2DXZHD8LsCZ32I466ig3m812BEGwHxEtQMT3AMAJADB/ciOPbW3jMPqOlPKGXC73+NatW6f8InZsM5nUUgyCE7lcbmYikWDdDkXEkwHgtQyEJzXy+Fd+ygDj7zmO0yeE2N7V1TXw8MMPh9Br/CM2xhq1+uzYrL+jxIEHHtjW3t7Of4h9vpTybABg6Mp/zKrFjRsSfZc/E3ie19PT07N9KkCsBVi1OHR2G+NV4J9vPOP4mcnU3QvmzsZ5M/hXBDuqdEh7UiSM40p3FxQOd4EDBbDUP1MWqKLXVdaVxjEitDpFZYMq0l1NreSyMl4p89Oy0n2lM93D8PcSYIn2L8y8Cp1LFT9149wpjoZCbFb+ET++cgix1GxLi432Uz36CVz6URzfDw1xKo6IGsfQoBD0qUX2/uM8BHEj4JVaNYRj7IIyrrSy4TTqiiBV+CROr+K7W7ZuPNjdjFOxY/FSwah3YZSHFQK6kotLO7H4rnoXgpTKk6VD3qWEIXZjBXkV/s7HYMvO7bB1x46gkPNf/+Nzbv/ZeM/xVly+Vh9CpkRb4776ESIeOyUD7n0Q/uv1N9Pp9Om1KsVatGjRJcN5R5fWYN/4jfVL/itfX1/f5lpsr9W2wefq9u3bF0kpGVy8DgDeDgCz60CHDUT0dSL6k+M4v89kMlttftaUHhXs6upiFyVfVD+f32OIeMyUbmH8gzGs/NGw6++HQog/pNPpnon+TLMAa/zi8x95lyxZMq9QKLzEcZzFRPRGAPhXAGib0GhTs9JuRDyvgbIQ8UUvelH7rl27lgZB8DxE5FJrfm8tnRo5pmQULt39MQDcK4TokVL+edGiRVsn+l6bkhlVYZDOzs79hBCvQsSqw5ZcLvdANbo/V0GWsQyJCxYsaPM87x8R8R+M+/okAOAy8um8PTZcmnidEOKxWbNm/eWxxx4b3OeV5h5mawHWdB5Gu+1KBTiC4WMPf/4QUSy+BghvZ17FsIAzrRLCgwS7rvifKRlkKBU6rkJwFbboi74OCwPZpaVbCepHUzJX5roywKQU7q5nGF14x0LZw7mXgagI/mhiU2mUir6Otj2OcyBeaxhzMlWas/Y4YoWrqbJwIHJOVfie4jHrZaAqAk6xLUZp6jE4FWk2Mg8+Pl4UDB/u2yjmr9FwWqkLoZlHPOQ9ysgyhYWhY0u9ruoHNbQKV9U1hbrskHT5oe5WqO8+u7GCHBRloNb3fbnVdZ1zk0HhF6uPXc3XZs36B5xxnKh7XrShAFY6nX4JEf0EAOZNyd7vfRB2K5zd29v7rRpsS22is7NzqeM47Paqeg4WAHC2x3m9vb0/qNX+tcJ2uIwlCILDpZQMrdhpxSWC47H910qmHAMNRPwDIt6TyWT+bkHWpKTHJUuWzA+CgMs/lhtA0T3OcsBJTWCMK/8KEfkC++4NGzasG+8xtwBrjCoDwLJlyxK7du16seM4xxj35ZsBYNbYR6jqkuy8Or+3t/e2qm5lkoOzY+3JJ59c4HneW4b/oPQ8IuKfqS/mUsBJDl3t1bcPO20fJKInAODhXC73uy1btkwYDFR7suMZv7Oz83DHce4FgP3Gs95ElvU8b2lPT8/6iaxbT+s8//nPn1koFI6WUh5lfje8sIZO3LFIwRdK/BmAy2N/OHPmzN9OpNTYAqyxSG2XqYUCK2+6yds//cwxgHAmAbwRmFmx60q44DG8EhpcsetKh7RzxpWGUWXwKnqtMsvKAKzKXKsoB0vvZdytVA6uRqpQ+r75XtSaz9CdvV2xG9QxYoxwqD2IPhkIUAaM9rKdEswabRKxFoSqNFCFIkTspoxrmZcrt1tOeeJkLQwN2zu9GkGJRislVPOK0JTJuQqD3zWoUovoIMJYnpYui9ROK11qyF6sgAACyW4sH/KyCPmgqALfESCHJL4jgO447LmlvzrxxBNtVnUVzt1a/Awq20Y6nV41nPPzCZMHUNXtI2JfIpF42ZNPPvlMVTdUPjh2d3c/aD7gVHuzHO77pVwut7qJ/sJZbc32Nr5YvHjxy4IgOGf4r/CvBIDn1Sm4qtwHDi1maPoTRLx648aNW6ZTxAbcNr9nDxoOfF5JRP8y7HRieFUvkGJPcnJe1t+GQ4G/5/v+Tf39/c+OVXcLsPatFEOXnp6elzmOcz4RHcZui1r8ztr3zMqWqHeAxeW3hxHRmQZYvahGXYfHKeM+F+cmGxsA4AlE/M7AwMBdzzzzDP9xrGFvFmCN/dAtWLCgPZlMvpOI3kdE/HOgqw7/qBHfIb5YYpD1J0T8ZCaT6R2PC8ACrLGfG3bJ6imw6qFVc/JB6gNC0orh+IzFjBUcDmlneGWyrlzhgiO476AGVsp9pSoAw7K/WP5VLIg9gluq9C+KUx8JqozDaYTbypQMlvZeI5rQ+aQgRzzTSnERM4oJGi8Pao/rOD4cNb6lx2IHGomWVJB9pdUq2oHYN2IAaMSZMSoBm7g5qbTVsHyyBJ9GOyu1u0p/J+7Q0rFcsiz3KvwidF1FzqwY2GKIpcJLQzeWDKAYaJBVkEUgwgCA/g6INxeke/MXjr2QS77trUKB8Z6/0ybgokWLDpRSshuKcy6qfkPEmzKZDOcS1PTW1dV1EiJyXlEtbr8edmKd2dvba1t1TkLtpUuXzvJ9/woieqeBF/XuDhhtbzns9TlE/Jzv+zf29/cz5LC3vSjAobvPPvvsaVJK7oh6AHc0azDBhoiI4dWKww8//KGxdCW1AGuvR5i7yXLZ6E3DDTk4745LSXUoRv3d6hVgiUWLFrHT6iYiYpcKw+Cql6rV4PDwR13WnLsZfyoIgm836s9YC7D2fbZwhMC2bdveONwI4BIAYHA13WWC+550+RJ8fcWdOG8tFAqf27x5M7sH93mzAGufEtkFqqzARb+97EDcgX/gXElCSDFwSnA4u+uAhwyt2HmlOwoqfMWPnHcVdRjkCcZKCfWXHIpl3Fl6B+KdAEvPY30HQ+gSJ1Oj7nvJY1S+aOzyPF7Gthf99NbLwU44t/jr4SxHDrWnuYRLxsYuMzrFHE5qiNE9V5wjVgp0N2OW6RTH5fH9iNYy2sdmXr5Y2S6Vuh5y5tmeUHy52ys83CPxmIFcUffB2HohfAu7Epo0Lh3sbqCXOYZRNpZxY3FClpQSJLuxOOQ9KMJQUFAlhkgwiIR/9zvg6M++5hOcU2hvMQUaCWC9WUp5nfkLVrUPoiwWi6/ZvHnzI9XeUOX4BtRxmDtfEFf7lkPEd2cymbvG81e2ak+qQcYXXV1d3DnsrcPt2a9uANfNmGXl1ttSygvy+fxvrTtvhGxhF8mXDbvsvgkAB41Z2PpdkN2Y30PET6TT6f69ZfZYgDXyILLjav369d1CiA8DwGl16LYa7cyrJ4ClsoGSyeTzgiC4dLismTPC6rHseirfwT3DnQ4vLhaLP9m0aRN/MG2YdtkWYO35NDARAv9ozuO3TOUJM41jcRfTizo6Ov64r7JCC7Cm8Si19qZx1UOrZvv59hWA8j8BqIPl4A6DnsNdBR2Vd+VwQLuBVuy2Evw/474Ks6y0OWiUToIKcMUyr2LZVzqMvbydoMIb8WWi42MWNPwjfhFegkwlqlN5kR5upqy6MN5r0FTNhSBm5CdY/UoJVYVLhJDIfD2qwcm8qGXQ40R2pj3V95W2pJ8ZqMNCq6dhp8SyFoGlwY1bS61bNqe4rcvskQnY3yPYiDnbKqOxKnWKdK48bqZTosq7ivpFmvj4KBOLsZTZT1UyqMsI9TphiaF2YOmYrFg2luRsrADyfkF1LNQOLtxFgP/hJYd+sOboNY3YeKcqP50aAmCl0+mUlPJTAHAhItbC3fJ4b2/vsumAOvPnz5/R3t5+DQCcWpUjXjHocCesm/P5/AUWVIxdbf6QWiwWOYvlA8C19c3hEKgUYICIviKE+Gomk2Gg2jAXWGM/kuNbctmyZTMGBwc5lP+DTXrc/ySEuDqRSPzXE088MWqZkwVYZecMLl269BDf99lp8XEASI/vjJrWpesCYJnGLIcPQ3NucnFGg5YJTvRA8mfZB4iIc8h+ks1mn5uOzxzjnbwFWKMq5nV3d3O5MP+h9eIafU4d76GbzPLbhwOx13ie94P169f37+k8tQBrMhLbdSeiwJ10p/PnH69/CRHwH5C4o6/LUIpdVirnynFAlQuiAKGcV6AfK7Kuoq95ElFnQQZZ/AIvX5FnFXUhrAhlj/hUpbUo3Ls9WYb29XrF5boavhLixBTcx/dHAhq9brRaDFKNVjyo4U35Puk9Nq8zbTLNDuOgZ9RjHNIp0ngr9JGFHR/VOnsJY9dJ+qUyv1J3RwOOzJ6NyMw3QCuWYV/SIBIjPuP/z96ZALhV1fv/d+5NZrqDpaXQzuRmpiObuKAi+lBwffpUBFRwF3FBlAd/UUEWoVQWFRAQXHDFFRDE5fnEh08FQVFR3EXhtZ0kMy1LgULpTKeT5J5/fuf8fuecm8l0JjO5N8k016Vtcu7Zk9z7ud/f90fz7TSlQwr1yDnUUEMqFSRI3dZ/qvdVxCFnKCSgFWrgpTIVSqm8sVCBpSFWWSm0KvxjBIT4VgrCK+SdO+5bu3btLn9P1hYAa9WqVfukUqkvVMxQ0QAz9kMIcVYul/t47A3VbsAPguANmN44iSxV6PXl+/6h69evH2rSeNuqWczA5Pv+qS2YASuWeaxkTEMp9rdGR0evaXfvltlM0KpVq3pSqdQpAPA67akwZ4/HK+P7hhDislwul6seZQdg6RlBg/aRkRGE12+hPdFuG6LZAAsVrPt5nvcGKSVmYutrtwlsYH93CCG+LqX8r2XLlv307rvvxmyGLXt0AFZ0aVauXLkslUq9VgiB/pfo1daqYcON2FPfk1Jefcghh/yiVsh5B2A1Yoo7dUx3Br7why+kNz306PHSE+8NpXwmcgRj1J6i7IKeTx5XHvlcaXUVQgeddVCTCjZbFxhOqDrgvEblIxCLOY3prPuCE6RnpFJU0Nx1VwMrDTOMsqmGIGm68zKdcqZ1gkc7hwGuOsv2m6aO1EVu56MQK8K6qHMkvoqMN9Jvl6SpN6o1Y878KanbRJg3GULkdqyD2SQzxhXUeNuo5ZhpGQ8vC60YYOnMhFFFls5YSGosB2ghxMLyKlMhqrHKJRgvl5TZOyVl/IUA/+oDn8h+b1c3eG8HgIVp6V9dyUCE4TqLp/PBnGWZrUKIQ3K53L9mWc+MT6dsi9cAwDNmXEl9J747n89/pb5TdrnSGDp2iJTybAB4+RxVXU22qKjG+Y7v+5ds2LABDV4jQt65vBPWrFnjff3rX3+NlBKf7j0noQyhzZ5SXN/bAOCSfD5/i6u+6wAsgFWrVu2RSqVOFEK8V0rZ0+KmzJPtpaYBLFJUv4Hm7+A5qFaZyecXn6YW0P8SAUE+n79/JpUkcU4HYNlZ7u3tXe153qWV7NjPF0IsS2L+m9wG7tN1UspPhWH4zWoftw7AavLq7ELNf+D7a3Zf0r3gM1LIVwBIlZkejdrRpD3te8rrCv+tDdp1uCDCKQ2mtJpKhwQ6/zam7OyJRTIkfD2irNK/+gy61u6SqAAAIABJREFUDBAhosMqIrMcDDmMsbuFVVGQNHEBdaAaGaGzyoilRM6VuGEtLgHD6lwI49zxM0BSRXZGAqzoyHbO4UU1bwZqqr8sYGKY4wKmaD16BifwIwrbY3CmuRbLqKh7dBKPicVdFqLVxlZmLavnq3qAkU4hbNIv8Ioak3cKFwQMEyQTePyb+i8DLZWdkJVbpMpSKiwshr5Y+n9F/F+pqEMKpdoPwxB6P35iJHXq5cd+cJf1K255gIVZXNLp9CcoXCuJr+f/9n3/rRs2bEAlQlOObDaL5r+flFKekEQHhBC/y+Vyz02irTZtw8tms6gU+BgArG7TG9bZTj2qAv4ihDg5l8v9bleAWHijTWv+riRSxs92gRp8Pv5sDwkh1hx88MHf5KftuzrA2meffZaNj49/VUr50iQUsg1eU7e6pgCsTCbzJCHEpQBwbAWQok9Jy1+DxLgGtaoew4yFvu8fQw8LEm5+6uY6AEvNET9YxQd/ePM8l1VXtTYFWgxcEobhxS7E6gCsqT8/nRKzn4FzbrnkEFEufQrAe64E6SOMSil45SufKwRYgBkGMWyQQBX+qXmVa9DuvEZgy/hfMaFyMw0ysooQFEVRIhkJJ2UeE0VCmsEofycJ0gFTjkWUmTDS8EQM5BmYWAN3VwnGsW56nDYKr/YzaBsWGH2/2gDdvBuBOfQPZ4wKtjh0jF2j0BxM/Z375EC3iKpryq1SrcqKnhC5uKAJtUtXjR/V17q5tdHl2KfLrde2aUAcTbNEwKiTEtrwQVd9pVRXDrByMxPiSfSeUmEpVRYCLIRcIZRLZSjKMoyXiirUUACgd+3PhQxPWfuqs+6bcqrmYIGWv3gMgmBvAMBseUmEGODTpVOWLVv2xWbL+IMgQD+QiwHgSUnsO8/znjE4OPiXJNpqpzYIoGIq3ksq67GgnfoeU18fl1Ies2jRol9OZegaU/tJVOv19PT0p1KpC3Gsu/hN9piU8vQdO3Z8FX3ydmGA5ff39/eXy+WfJZRIJO59nijAwpDLrVu37uf7/k8AYGXcg5sD9Usp5XHbtm374aOPPoqZC1vm2MUBFifxOAuvFdskYUOce+faUql0ysaNGzGbrewArDinulP3CX/4Qrr3ocdeVZRwGQip7gkFGrV7PqRQdaX8rrTqSiDAUuGA+HcVMAhCIDTRmQeNaTuDKwJVHF5oQgqNaoq8sUwwG/suaQXXRDsqh+44MiCtfNqprMcAkGi2wIkapeiOIIpiIJi+vdcCIcrC55wwmS+VcEIeDTDDOibIoZyMhw5HQuiCc6wbR7DHEi6PVEq14BlNoKsemzSToa7aFGVj9hosC9fcPSzwcOCVQ0HU2N1/08lK88Tjr+oqOVuZuBQ3tNB4XSmqRUotA7GqTd013EIIgTBThxJqgIXzWJZl7Y9V1t5YGF6o5xj+4nviQ+G80V+ufdFahFq7zNHyACubzb5JSnltQisyiJ4m+Xz+Nwm1N2kzfX19Tw/DEMMID0qoL5/L5/MnJdRWWzSTzWb3klK+HwA+uotDjOr1CoUQp46Pj1+7adOmh9tiMaffSfTmeTGmuhdCvGD6p83pkvhLeaEQ4nNCiG7KBvvquEdMGVJvbHYCAYTYXV1dLwOAL0kpl8c97oTqTwxg4fcoALxRSnk+ACxKaHxzoZlxzHTqed4nBwcHMXS7JUxbd2GAhUrsfcrl8jme5+GDjfRc2GSzHYOU8hdCiA/n8/m/BEHwJQA4Lu4solLKrxcKBXyw2Dl2kRk48+aLlqfD1OsFyM8oGgVSmbEr1ZWnlVc+AisCVzaToA4h1P/WJu4mlFC9pkP0NNTS4WUMYCzEIhIU4RsWYJklqLqj5ug2zRkc529nzSbDUvb16HlK5aMOaoyMkdjYQ3Ec9RZ5ManwR4NVzLm2q/TeBEDFRavPjw7SqKqoOEMv20e3v67RukuCCO7obtewh+cJY41YVcZEHrM7mRMUV9GQT1ppdyapy1OEGJq1q1JiMT9kTKdJpSqtsBSZuCsFFvlfGY8s44GlwwsRWKnQQuOTFYLE0EI2eg9DGC8WVbZCamKLJ+G0J9Le9Ze+/LSRXeQroeXl+yjT/rkQ4kVJLIgQ4gbMMNYK/hMUvvRFAHhz3BcD6gMm5SD6OAwNDW1KYq5bvY2+vr59y+XymUIIvBjrHBNnAENdPut53lWDg4P5uTBBlBHtnUKIjySk+GyracObBryhFkKg8mCXAFj77rvv4u3bt7/R87yPVrLFZdpqwXbe2SQAlujv7x8ol8uYoRGTH+w2h+YvqaFg6PYvPc/72ODg4J0AUE6q4cna2VUBVm9v7wt83z+Hwodb/uFvgvsEwepdQogzwzA8TgiBSRn8ONvvAKw4Z7fl6hYX/uSSp46XQ7zuQDsH7WvlCZVhkMEVQixl4q4yDXKYoIZRCkqxGovCCC3gUjVqsGWMrTzKO1jldTXpp54VPVF8487kRIv2KjNZzlJHyIPPnahXUhoda0RrOEpVSayP+sv+XRNESq4yzDl9gieWE4nodg/hn+U0pPiqyyLX6aRaBpqlqo5GEhA6SijTFAHKap93R2elus1CMovI2MSf9gBNut0HU9q8Rz8sLDbTRlemezrMkzIOEqDS6iybkdCGD2rFFQIsPJQqi7IUIsTCl7USq6z+VypjlkIVqoktXpoKxZfOOeJ0fOA154+W/hHu7+9/arlcxixo3QmsBFLLNfl8/tMVxU1LyPAymczbhRCfTeip9Ta8Mc3lcqj62qWPTCZzQMVY+AIAOEKl5O0ck80A3gRfVywWz9+0aVNbZ7Hs6emZ7/s+GrWfugv6XU13hysfNAprRi+4WI9mK7Aw7G3btm3HCyHOnYNhb7EDLDK4xmy6/7aLJD+I6/OAV7L/lFKeUSgU/rvZ/oO7IMASvb29R3qedyEmII1rkdu8XgSr/5BSpoUQ+8btCdYBWG2+W6bZfUyiI5698KUgVPIk/B1JIWnyVbigp8IFPWXYrtEEghcEWNqY3fW6cryvCIBVm7hrhIHnosoHoZdQAIhvkl0vp0m776iYati0W9ijyjmAg43ajYxKh945Ih7dJNU/UbVlG67SO5mukuuU0/XJJFfR0U1aijtn4JGWTpm+mc5Hw/I0ldH/pzy/1GmTgz/uTZXurMYSuAGXFm1YGKWVdnywAku1rfrhZKRUc019YwioehxFYlybRop6XO66a78rfoO9rxha0Ryw2kr9kzMThqS+IuhFmQkN9AoxQ6EEqf4MoVRCiIWhm1CUIdwiIX3+2ld/8Pcu55zmR66tirU0wOrr67s0DEO8qUziuNfzvBMGBwdvT6Kx6bQxMDCwvFgs4g0j+oDFfeDn7Hv5fP5NANDSabzjnIhMJtMPAJcJIV7VgVfTmulxIcT1qVTq5HXr1rWUV8u0eg8AK1asWDhv3jxUiXyw43M25azpR0kJmBY3G2D19PS82ff9LyT0AGHKiW9wgVgB1sDAwFOKxSL6ha3ohF83bOXQf/D0QqGAYVoTH8w3rJmdV7SLASz0vHqHlPIiAMBQ2M4x+Qwk9tvQAVi7wDasiErW/vjSfxcQfj0EWA4gPYRISnFF4YKowtJm7RpWKc8rkg9p03YdPqhDAlllhWosHUqoNVcOuDB3xKTaMlIkjXFU3RQXWA1U7Bey+9XMAXaUfS6ybPrjghnnNJii2DlXxWOdnqq+8PVJEexjzqMQQkddxbAsgl9URsNoKB6HHrqNWWN37vxk7lkT96SZI+4bjdN6o1si585aBJq5lIJUSVFvMEuP2MOKsza6SrIovNJAkw8Ls1hxZ72zeM54v9ish9a430KqKO7jsFH9vhtGiMutHQHULkCFFauxWJnFrzmm7yasEM8phzpbYTXEAoEPE+4VZTjh3CNPR9V2064V4v6WalmARaEb/xBC9MY9CbTAN4+Ojr5x8+bNeGHfMkc2m71GSplUrD/O97soy1zLzEFSHVm9evWepVLpMvRBS6rNOdTOl0dHR09ttc/PVPOL/kYI34QQ+HQ91rCHqfrSeT86A00EWH42m32ZlBINx+fqERfASvVks4f6Un4/qQQkc3WBJhnXKPrzlcvlz7nZ35Kcg10FYJEC8w0V37+PV/zvViU5x522dj4DHYA1t3fIlTdf2f1EafzFJRHerEZKYX9o1C5SQnleYYZB5FKIU5T3lYJYBCZYfYVaKid00PXFMgCLQwdJmaWaYxPyiGZHz7lW9EwESOx3ZRVIpEhitZHDEazhezXYqvaqmuid5ZZgXBLRXynZ2ES8Zl/REE79m9VT+PdInJ4RSekxu4bqNay8GCSoWRFC+zhx/ervFrYRCqQN7MKwaJ91FbXYCyu6oshLt+AiOjLqd4oxxIrAK5Nlkt6lydQKPQ2yDChx0ia6pu6qkAsQeXQmAyEhLidMVHtdaX8s63XF2Qc14NLRhrRWYahMMNlDS60hKbMwhBAVWOViCGUEY1rAtwNS8JLy70Z+t3bt3DR3b1mARebt+PR7cQJf1dvxojCfz2N675Y6stnsC9EkM6Gn2E9IKc8tFApXtYLXRpIL0dPTs9T3fcz6qGLsO8eMZuCqUqm0duPGjY/M6OyET6IMkx+ogCs0l97V0qAnPNv1N9ckgOX19va+1PO86+Z4KGnDAdbAwED3jh07Xi6EuFQI8eT6V7xzxjRn4CHMiuv7/pc2bNjw+DTPaVixXQFgoR/iww8/jEbtaCWQRAbshq3PrlBRB2DN3VW+8KbL9w7TpXdKIS9gyIJhgQiiPB+BlP67UlcRnGK1lc4+SBDDhVgEt6oBVrXXkQUbpNCyTCSCspyXiV3wK46qxqEa1QburnJKKXBYfcXgw6UhjhU4r3qE7Rh6xH1gxGVR0aQSHHVK9F1dy87RAIfJ6VJsFk8dtaIqUrlxaJ27Z90ZNO7nEVzlQjH3TC3iol5SITvyGiGfiiO6WSd1bWaMbNyvXrQj12q76LlVZ1K39Dl2TR0VlgFWDLDcMEKeFwdgkZm7MXHXhMtAK6W4ckzezXsItxTQApWlMCyXFfxCvhuWxbu2p0o/+MSrz9wy1741WhJgkR8NwqtEDMyFEJvDMHxhoVC4p9UWGC+kHnnkkb9XMjHuk0TfpJQ3CCFawsg+ifFiG8uXL1+0cOHCC6SU/y+pNudoO2jsjjdWn2rGjVU9c4pJEgDgDCnlOR14Vc/MJVe2GQCrr6/vOWEYfp6yv7bk72ODVqDRACsVBMHLAeCTAPCUBvWxU83kM3B/GIb4Xfv5XC6H37uJHbsCwAqC4Ggp5SVCiNi9/hJbuDnUUAdgzaHFdIby8f++rL8oS6cJKY6XQnZr5ZWnfK7Qo10ZtEfUVpRVMOJ3VUuJ5XpgUcigghUO7GIcoaQ1RoazU5hTbcxu1FFVWf9c1ZQBVqq96DsumFIG7GzkHVluAkY72QK1/LdscaY+jkrKqcvNnFjdRDXqwpA9+1pUQUX0R49yUoLGLbhIz1E8KeXW5Cfv7AJNQyvMoGjlH2bFXdUdhZEa//6qPREJPSTFmpvBUKMrCi01oMwq58jFypQhhGX9rlxoRZNlMhWquXOUWGrzaCUWxg9Wm8CjEktlK1QQS2cxFFJsBwlXCOl9/qNHfaitvYqr92NLXqAHQfBMAPgqADw9oa/p/8nn82jY3RLm7dVjzmQy5woh1iY0FwUp5ZsLhcKvE2qv2c34QRBg1jk0iVzQ7M7MgfYfCcPwo0NDQ19pVS81erp+GgCcOUf9jebANlIXnG/M5XI3avOA+I9sNpuVUqIK9zUAkI6/xaa20FCAlc1mD6EslWjg3DmSmYEHpZRrCoUCPuxL7JjrACubzb5CSvm5jvIqsS1Vd0MdgFX3lLX8CefffPFqKHnnA8jXSICFCiOltMoKlVfoW6V18uhrpZVWqowJEST/Kw4lVN5W0dBCCzDodTUrTiY6AzyqQtFUOTL7ZrsqJdCxcWNSeUo5LMNRVbH5tq6FYY1zbrWJOQIw9+48kqGwKrAuEq6nl9lVJPErbEpveJAjcXI0Q1Vhe1FE4GImHq6eQv2O8aaiDvDZyufLWKBPZcrkeoFNRBRRpZMLu+wWJ87kwEcGldhVq8biPrPyTqPLaqhJ+wphEPlmmd1BIYXcnp58Xb8Jo4zATEeJRXMSgVDsiabM3DmckI3dWb1FvmnVhu+4sKGwYYVlDbJQlSUAngAJ1wvpnT+XIFZLAqze3t6TPM9D34Ekwgdxy701n89/u1W/4Xt6ep7s+/4/ErqpwpvF0xcuXHjVPffcM96qc9KgfolMJvN6IQT6XvU0qM5dvhop5ZCU8q1DQ0MtkxDBWRRcc8zuieGie+7yi9XCE5AkwEJFnpQSoSYq8uY6vMJVbxjAWrZs2d4LFy78c+fz1JQPE67j2/P5PHqOJXLMZYAVBMFBmMwGALKJTGankRnNQAdgzWjaWvak83506TK/LG8UAg6V+PuLIEkprgAEhQ0qrqAAljZtx/d0yJdVXCnvKlLX6L/ie1HDdhVhSNCLAYZV31CdRrVT6xbZ9bZiPGRN2Cm6TYMqw6ii0Ir9ndABSperglqahOiXCZJMUFVZP3ldLiJUsuoq7o8j6KoybLJjdIMPo5uFoIwzJjN31SGQrhCLgR51TsMj9MjiZ5LUNocx0jgMvCNKZoYWgW7O2ljB3ATFnGvSb4CV+gthKMMlLdSMQqxq+3feV9UzxBjQdpIYlQZ8Sq3GvlcOyFJLTcDKyVqo1FS0N1zIxX5Zan9wdkI+D6tFBRa+hwosfF/9qZZ8HED8oBT671179KmPteyXQR0dazmAlbSRtpRyW1dX17J169btqGPeEi2azWZ3D8PweiEEhmjEfkgpbw/D8Ojh4eFHY2+seQ2Ivr6+p1G40POa14252XJlr/6mVCodMzw8vLGFRogZpQ6rZJO6Wkq5Xwv1q9OVGjOQJMAaGBh4XrFYvA0AunaRxWgIwKJMub8EgP13kXlrxWHi7/QR+Xz+t0moFecqwFq5cmVvV1fXtyqeo/gb0TlaeAY6AKuFF6fOrl1+0+V7j/rhb6WQGZWzD+GSyi4oVeiggkvK8wq5kwBJCitWYWFzKmegG0bIvkb0GoeSKQUNGb2zcxEbtls/rGgI22R2UEZJZeROpJqKqKUQTOBtNiIFfZB3N2mxLHWKBBMa8sFm6rZuVcdOwupMI5xlT/WP1WEU8kciJ14qy8kiFMxZSY0KDOByJVvM6VQRRHK6jQl9ZKZG5xpI5c6XgklRaZg7Q3bYUXShqyQlnVF/RZ28eO2xDuWZRmors+6Ss1TaTJasyLLKK6O9iij31JhZoaVZFSWWjM6na0yvQgNptmx2Qfa8otBBgoNazaWVV/x3Y/BOEIsc4a0hPBZGP3c8p6RhlhprCL8opba94bwjznu4zo9qyxVvOYCVzWafK6X8JgAMJDRbX8rn8yck1NaMmsGQp82bN58khPhUQn49Jc/zDh0cHLxrRh1ug5MGBgaWFItFnM93t2h38RsLQ1oxdfoWIQRmnypWPGbmV3ymFkoplwkh8O86P3BrHl8pl8snNytbVvWU9Pb2rvY8D0MbD2/N6ZrQK36uhn9ialxUROKzFF8I0SWl5KyJ+nd2jh1JAayenp5Vnuf9VAhxQJtMofu8dbIrTh4K74vqP2cNsPr6+laEYXgFALy+YnadatO5w88Vfq/i/KDyjr9P2+ozJaX8vZTynUNDQ3+Pex3mIsBatWrVHr7vXwQA7xRCtMNedn8b8DcBfxtwL+P+RQiPvw28h+fcb0MHYMX9KU+kfnHBDZcdLNLhDVJAoFrE3esjsMK/M8CyoYIm3K9WaCCDKYZWJoSQoQjVw0bdqMzSFEPDDDbtNgClag60pzc5b1uCo1mTG/LneBMZe29yQjIZ+bTqykCtiJOUVee4PXAVWBydaPpTLcDifjqXhRzSxookF6bQ0HVzTpZBN/vg1D5WdDKNeWcXJlGNklUmmfGaDjlyLvMtFumgDZh0Qvz0snKooF3kWh5YHm46TmzIaj7ajAZgcV1UzvXAsl+ujEQtxLPLEFVe2Tlm5ZWeO/WlTuo0VGCxCi8aTmg90Kw/lvbG0ucjuHJAGIMs/HXA/ymeKe4AGb7/7NeeFvv1QpzfJC31w0ag5kQhBF4Ux54VTEpZCsPwpcPDw/gEuaWPTCZzqBDi2oo3WCaJjkopry4UCu9Loq1mtBEEAYKrzwBAdzPan6RNBFbrAOBnAPCQEAJvrO7HkDwAeExKORaG4WLf9/cgf47dhRDpMAz3F0LgU2MMiYv9c1PHfMlKgoSTcrkcmmI39SDT9q9KKd/U1I7svPGKpY0cEUL8TQiB8HhLxWQef3LwBgX3wnYhBH5ndXmeN19KiTfcQkqcZoEhL/8GAP0EE1rqu30mc54EwCI/NNyfrZp9VInCK6B9uOLN9UchxH2VEO9R3Ch05eZeJ/KzYHe61TUY7hE0wFW3BVIuEUIgBP9OPp/HDLd1H/QAAJNefBAAdq+7guRO4Jv7v+D8SSkfFEJoQT1e5kmJ37ljnud5YRh2E7zgG/8uzKYopTwEAHpb/GFBUUp5nZTyzKGhoU1xTu9cA1iYPXN8fByvO9cAwJPinLtZ1I37FX8D/g8A7pRSDlf66+7h7Z7njUspEb7hgy2EWPi74NPDLvSow+QK+F7b/zZ0ANYsdlJrnCrO//4lhwspPuN54oAQNSsReKV3qTZs10buJLIi5Ys1YjcZCAlCKd8rhlfqF4/BFQErfM3xydLT4WAI99EFS2nMnDFcsqomVyHEQEmDBBd4ubCKDb4t9LIhhfwTzpCiSsekaRn1t4YBfK21JUWQGmWtK4SqDIiqhakei0XamVjpThVibnHTTvUZjgqran0mOmg5qqjIN5tVVHF3qwEWgyjNLKOA0yrBTCm2ezdwzJ6lBzWBfVbNY0SBRROt/dEYcBEMpdcYSLGpuz6FAak2d9fhh5yd0Nlb/Bpd7SguRhBLSCgLgDtApM4466gP/K41vhLq70VL/ZBRqNyNQoiX1j+UGZ3xx2Kx+PJNmza1vJQOVQK+738aAF43o5HWf9KjUsqBQqEw51Jv9vT0PM33/Z8AwMr6p6XxZ2AYqxDiGinl/0op7x8bG/vX5s2bUSExnUMEQbCX53lPLpfLK4QQx0kpX4EXrtM5OYEyucpF91vy+fydCbQ1WRMYOrimcrP6UXoy3cSuTGgaf4JGKiFY35FS/hBvpgFgY6lUym3atAlVd9M6UEHgeV6/53nLaV+fKKV8Rgvtg2mNwy2UBMAKguC1FTiBqryWgjAEMn8KAN9FFSbCzFKpVNhrr70evPvuu/FGdqaH6OnpQb+vBaVSaezBBx/EvVfv4Wez2VdLKRH87V3vyQmUx8/U/ZUMcqjkxrC6sXK5PNzd3V1Yt27d1jra94IgWEF+SEsrocd7CSHeJqXEkPNWDDV9QgiB3qGXx5mZcK4BrL6+vsPCMMSHg6vq2BuJFKUHGJhQ58tCiIellA95nrc+l8tN28PkgAMOWLR169a+dDq9d6lUmu/7/puklEcCAGbibcujA7DactlMpy/6wSWHyNC7RgjYT2EcD0DpyVl9pR+7WP8qZVzlhH6xh1UNw3YFujAcjLMV4okcUmhCDbkrFGbmkAet3HHJg257MlwUfd2ad7t+R9VKKVZDRcIQHXt3VwXlQg/D2apM3U34mBt+p53EjRn8pDf7jsjJALgq8GKD8aJvTMbD3H5GqJk6wYGANLN2N7McjiVlNWmXAXj6vIkAS/MoksxFMg7q8gw5dTEXUPFesftCbUU3Y6XrssWm/9TcTp8NEHw0DFJtKg4NZdN22mkOlDI+WFxeRQZqlZULuIxnGp2rikAIItTzoPYRqrFKAALxlf7bXWUJ7z/3tR/CB3xtd7QUwOrv739quVy+O0ET3QsqCpYL47zYa+CO8DKZzGmUjTAp1dB78vn8lxs4hlaoCufxVlIsNbs/qLb5EAD8cHx8fGs9wGKSjov+/v4lpVJpD6r3PQl+liabS1Q5/Gh0dPRtDz/88BPNmPAgCF5ZUSh9TUqJcKdljorRPartzhZC3DE6OvpEHdByqjH4q1at2j2dTi8uS/luD+DUdsywGTfAymaze1UUa9+QUuIDk5b4LURw5XneyQDwk1QqNbpu3ToE2YlkYZxqU/H7K1euXJZOp9EvDBUdLXPgzb4Q4kepVArN+Lfu2LHjieHhYQTCdT1P3smA/Ewmg+o1vPH/j0oo9yUAgGCrlY6R8fHxw+6///4/xtWpuQSwXvjCF6YGBwf/BQCr45qvGdaLDw4v9H3/xlKp9EShUEDwSgEgM6yRTtt3330Xb9u2bbd0Ov3KymcGk1a0XQKbDsCa3R5o5tkX3nT53iDCPwmAFcoHyZMgfWVMpAGWoGA5glY6kyCrpmwGOavM0tnhIqFgZNxuwEMkRKw6C52hDybgr/piQPVTqbFILYNeXK5JuwIRUUzlmm3z5QUCBXUaNeAqaxRvQsBgshuy8TeuVhUCU/9UnXLeY9CmV1ewMXwkHA/nin21nOg7UxftDAdqRWVF1nCex2SKcndMX92GNASyP8TVEMucXLU1J/50R9eGzaac00woKL+GWSvt+7hTmPMxvNLqK0wOQHNn5X7kl2Uhl3LbcoCWXgnWdpHP1KQfMBv+Z4CTKov+Vk6YIa+dekkrrRh6uqGFuo5qBRertGiO+eqRARb+G9FV6OF2xhyF/4B5qZec9cpTNjfze2EmbbfERTt3PJvNXialxJutJI6tUsrXFQoFDNdqiyMIghdjaB+GNSTRYSHEndls9vDbbrsNwyzmwoHw6t2UdXBhkwaEQOdRIcTXy+XyRXEa5ff396MqCzMsvqDyVH63Jo0Xm0WF4xn5fP5rjboIn+5YVq1a1ZNKpa6rhGU+f7rnxFzuCSnl5lQqddyGDRt+FXNbqvrly5cvWrBgwXkA8AZSzLSKOm+nw48ZYPlBEJyIN4nvFM2NAAAgAElEQVRN/mzgHKhQ4TAMz9tzzz2/NUuFVaxbikIur0avoFgbmn7leFP/EABcXywWL0pSTU3w41ghxBmoVqbwrOn3PL6S942MjDw7rgcGcwVg4V5+5JFHrqqont8b31LUVTN+DwxLKb9UKBQupe+FuiqYSeG+vr5jK9YE6AeK1gQYYtjyRwdgtfwS1ewgwisPwkEptHWH9KRyT0T4gxBL6khBrZ7CAppS6dcMyOIscMrVnYzeXBN3Dgaz6ppoPapixyzclledNnfF7u3xJH5VTtY4zZQ4nEuNzsAqG/GvlVwaO1GMIdURQVQGPrlKJP0kS4OpicBHWSY5MYIK0rAap6o4zqV5KjaBETkO75FYwmp0NDFQ0OVePHhr1k7v0nqq/tKcqT/V4Grv65q2ZNw3x8BLj5mBJFfGoYRYPY5NgRsKSaV9Q51UiQGc8FNWnmnvf+vO4qqyom3SkAhqRdRWLr5Dvy7OQMm+VfwnqevUnlEiOgZUjrcaq7kIbLnG7jakUO8VrdLi/SjUYxAcP6qwRMlM+IauMXnIh9/84ZaPRnN3SMsArP7+/t3K5fI9CYZ1/bxcLp84PDyMKoi2OHp6epb6vo9hEfj0N4m1w6eAr25y+FfD1qanp2fA9/1vVdQN6GnSjAPVAD+RUn6qUChgWEAiB4VJoarj0CYqsm71ff/EDRs2oIdPIseKFSsWzp8///SKqgUVGc2+MMdwQJTpfnbhwoU33nPPPWi6m+iB3x+e510hhMD9v0+ijc+gsTgBFn0XYAhcUuHqk83AA5WMmNf7vn/F4OBgfgbTlOgpmUzmbUKIbyTa6OSNoQHpb0ul0tqNGzeiR1hTjmOOOcb/wx/+8MEwDPF3GX3oklJITzpeKeUXPM/7QBzq8rkCsHp7e9/ged6XAGBxUzaObRRv3f4mpbytq6vrI83IiN3T0zNfCPG+Snji2wAAk1m0YoismbEOwGryjp1B8xfedPEzhfB/xPd4CK902KBywFLwSgtfrJeQyf5Gr7N0RnMthlAUEsYqLScszJansuRppeFYJPhMAwX1hhu2pv/tMh4GUNVeVCYskOETn+dCLiWqYvUR16qzy/FhQsYUmGHrdoZe1HGywIywJ/cf1SGQ9J6b+c+ot3gy3DV1fdLV6wyfqJADthDFuL3Xf7evKQ7DijNnbq31FoqATAFzrhlO9Z0uwRj9Mv1/TXMvm9HQeF/ROQaSMuxCFmpUVNb0X7+mgZjOdKlVcROVfazC0qNnHZbhaVEOGZkv9r/inWb80BwVFu4DFTZo/K/sHoqcH1FjMSClHUzEUs07TjmOoyQ4nBB7+HtIw9vPOuLDqEhuiyMJCDKtiQiC4C2VzIMIF5I40PD00jAMz2+VDGnTHXQ2mz1TSnluQv4FaAp6RaFQOKOBYRjTHWpDy5GJN5oOn10BSM24YEVwg6qry5ux51asWLHnvHnzTicVTjNCBsaklB9ZtGjR1QnBG/S9OkxKiSGwSWU0nWzPPlQxzr4sDMObWgCYp4IgQEXeKRUz4H9v5dDCuAAWKWfeUfG9wmQhzVJi4pO1n3qed00ul/tOO3y/ZjKZA4QQ328B+PkIAHwf4UMrZcodGBhYXiwW8UEBZmXcv6E/YPVXhiFn78jn87heDT3mAsBavXr1QKlUwt8GTH7SzOvgRwHgB/hgI5/P/7nJ4cLop/kM9KxEVZoQYlFDN04DK+sArAZOZgJVXfD9y57jy/AzEsSzlU6IwgZDBAIqfJA6YUCVhhMm1Ks6nNBRUDHIIn6lz1Plo6baygjeNONkqKuluHK8pLTgyTHZJkRh8JMDrBSEqMouaPCXo4YxGixHoqNVWUYuYwLxWJkVNVZ39Vo0KFYVqbAyGxapquR6I990TLX0XOvQxZ1diejyrOyy28YNDdSvcu9YnWT6Xs26an3zOvCs5taMqMkMhSQlnj7DLiljLuvipaFo9N8MqRh0mUQANC8cImj2owu7TBlu2xmUWRNnJO60m71j112DKj2LvG5uOCrPJWcg5HIq/JQm33qsUb2OyTtHneoUIAK8sscQCzVZ/yO91OlnHXUKiola/mjmD7c7OfjDeWtS6e0pg8spcVzcxb3iq1atenoqlfo5yb3jbg6/jG9PpVJv27BhQyH2xmJsIJPJPEUIgResz42xmcmq/nUlu9UF2Wz2Z80Mx0Tvi9HR0VdWMm59rEk3ofemUqnD1q9fjyE/sR441rGxsS8CwBtjbWjqym+r/Biel8vl0MR+NubbU7dUR4mVK1f2ptNpDCnEzFsteaMSF8DKZDJP8jzvh1JKBHnNODCM+EupVOqyJBWJsxkoKjQoicjxlOVyNtXN5tx/VhITnB+G4f+0YoIRelDyjDAMPyaEeHETk0aEQghUmb9vaGho/WwmvPrcdgdYtJc/jGHtTQb4+GDj5FKp9IskQ1+n2gv024nfjZ8DgGCq8s14vwOwmjHrM2vz/Os/ub/flbqK7u9SSm2VCiFEGQiat7PySoV3Wb8rIiUm45tVYxF8MkotDvtiDmPDCbHHGqJYYOVml1Mjcu6CddEoZeGIPdfzykADPJ9DvdBUG8GZAlXWz0hnmeO5qzLeZsWXiSa0MioNtLS+ycIt1WCVqaOmJFw2Up5hyASRFHtt7QQBVImu9AgcSMJDcsVTZovYcUR4k10QjrCcsKki4rEptlx0rexSutkG9bai9VfqKbvo+mXrYKXDVfX+oW1JIJRUVwQGDQKjhAEk0zKhrnbBHYWYNlLTG64qRNQa9dfwyKL9ZJVZTqKAiG8W7Q0Dq+xOIMEezblVZrHBu1fywUOzd4AxAfD9spRnfvR1H275iICWAFi9vb3P9jwPs8Itm9lXZN1n/apUKr2pmWEHdffYnoDeLf8LAC+aRR31nLpJSvn/CoUCZsNqy4N8W9DQHLM4YprpJI/fFIvF4zdt2oShqg0xYZ1l51MrV64cSKfTCEGTzsIoPc/7yODgIJofx3r09fUdEYYh7tmmhUJIKT/ted4ncrncA7EOdoaVY/r47du37+/7PgLWBTOsJrbT4gJYtDe+14TvAnwgUBJCXIkQJpfLYXZBe6UX20zOvuL+/v5Xh2H4GSll025oK5nT/lQul1+zcePG+1vku3SyiUX1525hGK4RQnxg9rM/4xq2V56xnpvP59HfqGH7rN0BFl1vfp1C5WY8ubM5UUr5f/PmzXvRfffdh78NrXBdUD0ckclk+oQQCB5eOZuxxnFuB2DFMauNr/PKm69csm1s/BoAgVkvfeUa7UsIPYJXilagCksFaOnDCKU4VEsbvLNKBouYEC7lmcWQwKqOVG2qHgdYsBomAqj02cS3jHKI3JKslsihMOxNpA20dZcnZhxkJRaFfdHQTPhhlfLGACo2iSclF0+JZh8cTkj8g+AXAzYGPwaGTLi7J+P5SZa5urirxjKhhwTEWNc02Y5xTer5p0f5LtHcR3+Mqn6apvtL5SipokjPwiobJkqgigbJPlcMtyYoq5yQQR08yHvMyU7ojEfXVzUbDMto3/G7Zp3UxnEHK7RRO/mooX+VFlU5UBPfD1GjZZMIGH81K9wyhu+s4LIEVDeJai3V31BoPyxMBFryOGNhEQR8bUdp3gfXHnsSJhFq2aMVAJbo7e1d63kehjcl4R2B4YOfLRQKSZnFN3zxs9ns8VLKrza84skrvEwIcXYcfhpJjGGvvfZa3tXVdbMQSr6c2CGEQF+Ll+fzebzhaqljv/3222NsbOzuyj7KJBxC8XixWFzZgIyLk84nPWHHLFz7NWnSR6SUF4dheEkzwkXrHXNvb+9Kz/MwmQX6YrWMwXtMAAszyf2iSVlId1Qyfn152bJlp7ayUXv1/qHvz08JIdAfpxnHdiHEDblcDsM+2+rIZrPHIchuYqKA35bL5ROGh4f/1qiJa2eAhb8NnuedJ4TA681mHPgd8GPf99+5YcMGBNgtfeBvg+/7H5dSopK5aQ+DqiepA7Baetuozq259Zp587c8emUIgA+PtfDEY4BV1tkH0cyajNpZcaVhFZMGfaOtVTG6EtcXSyu27G2sCR0kvyIXPEQDhaNKHJ5NVySDN/0KFQgy3HZCA7G8Fr/YBMERiEVG3Eap5YAIVlYxkFJ1OWFjukYNLRhssRk3y7FcYEO2TLq8MgfnyaY556yGlraZqTBzxyCOwwgnPPHQBSYDBra3NJNKZleDRGnpkgImZtxGO+bs6ckgVlUHTO4/UkaxwsnNMkjxlKrvaNJuB0K+VrTbWJnFMErNDfl3KT0Wq7XIhJ7RKZfjteHMhjwEo9ZyP7JWyKaN5Qk+aU5KYJRkU2r3mfBT2j08vwi7VGJLB5Sq9zTksoQV6yQKSwotDdKEMs9XflhSgF9CSaSeoxDEJ4p/efyctWvXtmwSt6YDrL6+vhVhGF4PAC9M6Cv5MSnlMe2UfbB6XsjMHRU9T0pozn4jpXxPoVD4R0LtNbSZnp6eo33fR8VFksfdnue9anBw8MEkG62nrdWrV/cWi8XvCiEOThhinZbP5zHLUixHJpP5SCXV/SdiqXzqSrdIKT+5fPnyy9oJUpC/0ZWUsbIlblTiAFi9vb0He55319TL2PASGD76hb6+vlObGUY8g1F52Wz2CAx5xISWMzh/tqdguPFV5XL5U+0Ag2sMFj3njqiE6eL3Xf9sJ2MG50shxJkLFiy4vFHeg+0MsNCCwff9nwkhklL7u0v2BPq8hmF4wdDQ0KYZrGVTTsFr9HK5jNAPM4+2xG9DB2A1ZStMu9HL7rxs/uhD4WleKNbySai6kn4IobpHRgWWvmvn8C4MByNGFQnzorgs64dlyrlQi1thoCUpk6H1Z3KBhFUUkTG3utnXdbDJur6R54x8FKBX5W9lQsGcwL6IX5GjnDJQqioznDWF183pfztZ6lyVF2WlY/ig+ooyHfIIsyDJKnTckDUzSANy3JC1KmoVMVZXM2NC4PT8MT4guMXEhhRHjm5ITywV11zLStp0Nj578L92BieqExaaMFFqyFVDKaDk0CQOEXSN3bVYT6sAGZYalZYSBWqDf37fQFRFtfS+ZXAY6TcP0+lDZNZc4Fil6NO2a8768N6jsEETSmpgqeJWvIlIsWfhFzEu9TnSflnakB7/8NSfQimwlCeWHqwsieJby0duv36tWGtJ7bS/BeIv2HSAlc1mjwzD8CohRG/8w1Ut/Hl0dPQFmzdvbmlp3FRzkc1mvyalPG6qcg16f5uU8l0URtiSG3kn40Qp/B1CCMzAl9RxNwCckM/nUQXUyocXBAFmpPssAByUVEdRmTY2NvaSBx54YHOj2wyCoE9K+b9CiNWNrnsa9WGmwdPz+fzVLRoWstMhBEGAewBvtA9vBSVWHAArk8l8TQiR1Pcmzzf6EX16jz32+Eg7QU3s/MDAwBI0u8aHPtPY/40ugvDqUiHEl3K53GONrjyp+g444ICukZGRV1USBmDodOLfSxiuViwWX3b//fc3xNOinQFWJpP5phDirUmtvdMOKq++kkqlPrF+/fqhJrQ/qyZRhdnd3X0eALx/VhU16OQOwGrQRMZQzZpb16S8x+e/ywNxqR+mlL8mwisdNhhqFRZH+/EdKHkUqe4YGuAarVu4xUoYXbZKkWVCvdxwNacert+M2ypyFHfhLIFMKxwvKzzFBS2sgrKG2a7vlQ35s6GGNpMgn2MUWlXtqLZYwRSBYAZbkLzK9soR2Jhp1PUwXan2zrKLX0ssNWGqnL0yAU7Re2o2rcWSftWlDFHmZcq6ZXArWLt9t/+2upAIVgRU0ViNkirifWXDS60/lmPkTso+Vy3leq655u5627m4ygGvzoDZwN7s05qqMklwzdI9Fuu5qjaj0DOQkDCn82+z1o7STtflyL1MH2iv6ohFzWnVBtIAyw89tddLXvkh8OS71xxxBmYPbbmjqQBr5cqVC1KpFGbU+1DF5DoRbyLP884dHBw8v+VWos4OrV69+kVo/lnnabMp/uWxsbEPPPjggyOzqSTpc1FxIYS4M6n9BQB4k3BqPp//r3aAGHRzhVmzPlkJb0oqO+ETQogTcrkcKi8bemQyGXxSjOa8SYQju30fB4D35fN59FZpRU+Tac1zf3//U8vlMmbFa3YWNbxIeGMul7uxUZm5VgRBX7eUt1eSOSS1z3nOv7xo0aKP/OMf/8CMY2119Pf3v6RcLmOWtKSN/kcx8QUAfL6d4RUvNn7PYgINKeXXmhFOKKVcUygUMHnHrI92BVjYb8/zfi6ESDzzKK67EOKsVrQTmO6GWLVq1R6+718ghDhxuufEVa4DsOKa2dnXe973LzpK+OIKkCJIhWkVZlf2y1rZhKorjFrShkhaDeIyDitlsaGB6jXHY8gJ4dJ33w7Ewu5zxkIThkhjmmBS5KiCuAhDKjJm59mwUMFFN9XqGIsc3HBCrCNko3fjfeVmNeR6WIulZTt6ZBZ66b6wLxJxIVTlKPGM9k/SEILOJZpkDLyr7vYNH8NzqW73j2nthMjiRWYrAvscwdW0qp1uoYkAi5MA6Br09rCwKYKdzD5ifyx6l9RSnLXShLCSOqs61NC4sJl2qG3dA/3/HM3HosEJKjTiTDyfLlFkhRVtQuNxpqMG6bCpG/V604ryxlWbsLqs7pSCtqi+0tsLEZaCWGjqXvJx55b/VA7hA+cfddYd012XpMo1FWD19fXtG4bhF5LKPoiTWiwWM5s2bWq7J2DVGwJTdo+Pj+PF2FOT2CxSyod93z+wlUPias1DEASYSed9ScwRZZn7RDqdvnDdunX4xLUtDjTzLhaLFwHAfyYUIoBfpTfk8/m3NApO4ETT9wneICaeaRLDdADginb1iXM36sDAwOpisYieOfObuYEbDbAy2ewJQsrLKkqYJG9gMbvuSfl8/l8TbCWaObnTbDsIgpsB4D+mWbxhxVCxhlni5sLnyZkU9F97nRACAXHSx8i8efP2vvfeezGMbVZHuwKsIAi+X1HgHzWrwc/s5FtHRkaOfPjhh2c99zNrvnFnkeUHKoybMY9mIB2A1bg1bWRNa75/4TOEL74CQhwkUHcsPJCovlJeUvj/eGC2PvQUortvE2ZVDap0zzjEkPtpjMAnDTmkCh1AYeMPbeSU8Uuq4ffETlI6ykqH85nsghTg5/pWYd+s4bYOAJTKh8jFUGzsrufA2F6ZoEEaoROmqGeMxqNgleNrZP7qUCQsQ/GRDAdt6J8DC6vVQE64YOStWoTAhSLcZRYQ2UFZU3OzzNXyq1o7z1QUBWBqI/B+qD6Pe2wVVWzCb4R9ZKhuVFEcLsj+asYHy7imRcIFrVDQeV8tixOyKlA3xqGfGqShd5U5VON2szMwsro+XmdnnTCzZeQsDTAV2LRO+Sb0VH+k2EPLBK3qGvQGtSyR1Ve8HQ0A1XozDCekT2wZQN5SLpdPueDocxqa0Xi23z3NBFgY2vVquphL6kbp5/l8/qWznbRWOJ/MSDHL0UeS6o+U8sRCoYDAsS2OpUuXLlm8ePE/E8q2h98Ot1cUWMfn8/nBtpggp5MUKnSXlHLfhPqOGcXeMTw8/NcGtYdePSdIKT9eAUm7N6jO6VRTklJ+y/f9M9oN7u5scNls9uVSSvSNa1p2wgYDrFQ2m71WSolqw6R+93JSylMKhUJLyq+n2tzZbPYZmPlvqnINfh+/R39cCb9+TTsCv+nMRW9v70c9zzsnoYcFbpfOzufz+KBiVkc7Aqz+/v5nl8vlWwBg6awGX//J/0ylUi9cv349hsPOiYNCzTGJ0NMT/C6NzF0HYLXeVjrrhxeuSAnvS0LII0gXxRIYAjmhVqIQVVBl0A8Lb/rxZpzjxtxfZyIOxmzc8W7Sr1kfLDUjypLIyrqs15XRybBHtb6R10ZDjkSG55U8r9Q/KfSOlDB4no5gc7IQGuhkEJ0WvKi6tVm9ZgsWSCi8xTBIKbS03soACsIhFkCRUioS76fkNsqlybxMYJDr5uHRUGpe/FTzLLu7LByqsrwiwFR9KcXlrSJoZztVlZ6sip2cSKwoIt+L4CvDifSc6YA43RAauRurewU5UXNE73P2QbWRNIwy4YNORku982jvkdG78cLCoXvoI6UHYIZnijvnOSBK99Rx0bdbkYCnsxZk0m7N3QlMqaQI5HFF9m0atOpesMm/C7+0AssgP1JjWZDIUKws4fPFHf6Znzz2jJZJPpLUhfyErYjhg+l0+mJ8Op3UV7GU8u2FQuGbSbUXczsiCIJXVDKtYRjWkpjb4s1/V39//6HtYkKczWaPwgudJOZHSomeav9ZKBSwvbY8Vq1a9apUKnVTEuF3qOgDgA83ar4okx6qNhBQJHXgL8pvcd3bwO+srjnJZrPzwjA8Uwjx4WZBrEYCrL6+vqeFYYjqvKS83sallJcXCoWz2zSk1MtkMl9vgl/QH4QQR+RyuQfq2rBtVHjfffddPDY2hsrgNyXpNSelXF8ulw/ZuHHjI7OZrjYEWOkgCDBEHq81kzQh31gul98zPDyM4KzdvEN3tkXwu+HNQgj0S1wxm70003M7AGumMxfPeWtuWLNIzu+6GMA7EWSo7sI9DxUcrAKh7a+SudHNNP6hRSv2Lt9R2Wi4Qf5VCgrYc9knyxiAV8GByI0tKZWYdxl1lYIcNdBNJIGe4xvlZiFkI3Z9Z6T/S+GMaJCt/kOG6zzAqGcWhQaakEJXLaPXKGLgTboZ01sHpjGYMFkceX7dwgx0HF2TO3LqOo8mukmYxJh1qlJSRabQgg8eQ/WOUyUikDL6QnRFaqwPh7u5W8eMT7fGmQRt265PFW8yyr5XFWLo+ltx+KDuszaDt+/Ta6ZFVyXGxvHa5L16yLU+hZxN0hjO09YyHxDjZUVzUsUKXbWXCRvlhiLnojrQCiCNFJAM3bmv+DlRH09ipCrYUMIZ3mt2XNoqpu5NA1j77LPPqh07dvwaAIJ4vlIn1LoxnU4/d926dcMJtRd7M/39/fuUy2VURCWVwVH6vn/Ihg0bfh/74BrQQCaTuVwIgRet6QZUN1UVt42MjLymzcMEEIp+FwBeO9VgG/A+XtFcUSwWz9m0aROan8/mwH6/CAC+DQB7zaaiOs/dKqV8NyU3mPwhVp2VtkrxSqKIrJTyKgBAA+rEfysaCbCCIHhzBWRj+GBSN1y/KxaLx7RruDr9tqCiNKn5wm2f9zzvlMHBwR+3KfSb9keXVCxfBIBnT/uk2RfcJoQ4JZfLXTObqtoNYGWz2f3CMPwGZdudzdDrORd/Gy6bP3/+ZY0I26yn4STKomK7WCyiR917E4aCangdgJXEKk+vjTVyjRf+MP3RipzqPKGkVJy5zwg/tIbJgVNqDUlANRFmULt8xeF4ZSk0oVogDy0sWu1txfWSioZHoS/QrPql2pepJjhxoZXVYhmDdX2OVWJpTKfv+NX/qwLsbUWvYuJABklGqBQ1WNfG66wOc+vRozHsjTywjIqsFpQzvMMdYQRfTVxoc7XnlKsGVYZVTVbGUQxNbytVhQ2yhMmqkia9CDWhgE6IKFqukR8abRfWTdEcMliq8lAjVRYWQrUWz3e1+bsJJowAKirvyK4YfvEU8PasvmFgBhcBWHY7UT8ceBURuTn/MGoqx1fLhKE6CxE6+4jboT9dNRttZ/0xlWIMwHv3x448E++1mn4kflPCI+7r63s7PRFPqg/XjI6OntLu2QfdHYMqCSklGrN+iJ5lxL6hhBBfzOVyeNHS0kdPT8/SVCp1nZTyZQndfL86n8/jjVdbH729vc/2PO+2hHyCfkL+QLMKuaTPwVmVpBkfTWit1Rp7nneV7/untZPfWZ2bE8Myj5BSorItqQcNpouNAljo8TY+Po7h1qcBQCLJQsrl8quGh4fRP6otj0wmc3rlSSNmHUsqvH9MCHH5yMjIRXPpN3qyxSdT93dU9uMFUsrlCW0SdKW5afv27cfPJhlLuwGsIAjeSRkgkwofxLuM21Kp1HHtmHFwunuxv78/Uy6XfwoASdkOmK51ANZ0Vyn+cuf94MK3hwCXSyGXGhilQgXtLbriMQyemDlhKJeStNRWYUV8qwh4sYG2hWRWTWMq0uZDBlYhDJogHlKhWhRuRZ0z4XxqymzInzuDBkVRaj/SWpECS5fkcEFjyS7Rxt6FPDoLI5V2ksQxDnNarFZouebyDh+y4YO672xFxfbs9qKKW51mgH6V2Id1YqoWB9JYPzBdf0RzFLnDr8I2kzE1d9InSLbcNmzUnW3GbRDXOOprpfvnqLCcJAD8HocHumdq5ZUOK0RlEv4b550hF8NVw2pdsGUNyaLeYAa+2sXUrbAhP4X2OesQBVwanmq4VLWmvPHtVuPAV60kYxN4VbezYpE1MZSSARYWHpTSO+GCo878WfzfLjtvISl4NKEXQRCgo/3zE5qAspTyTXNRKZHJZI4RQlyRkM8TLtfGikfJwa2eTae/v//gMAy/IqWM3eReSvm3/v7+Z7ZLaOXOPnP0ZBWf0CehwkJw9ZZ8Pv+b2XwPrFy5clk6nUbo9pTZ1FPPuVLK3Ojo6NPaXHE35ZDxRnvbtm2fFkK8KyElo73WalAWwlWrVvWkUqkrAeDoKQfcgAJSyh8VCgX8/JQaUF3iVTQB/uNF/12pVOqtGzZs+L/EB9ykBlesWLGwu7v720II9PtK6lrsHinlCYVCAdXvMzraCWBh5rxUKoVWFccnOMePe5739sHBQfS+q37QPqM5b9WTent7j/I8D83xEz06ACvR6Z60sXN+eNGhEuTnBMBTJYTkXK3VQ0ZFRGezH5Xy7cFwQPJ80uGAOuRKl1FUQJtOs4KGZSv4tgJhVuliPmAMOvibVEU8RePMtLOV81VrU/EZpRTzNM7mptti0GaVUpoP6FBB7LvxtOKxE1lQuIoFMjRGhFx8KO6gYBr5bjl+WeS0RWxOK5FUKQq91GGKVdHJZtC6Be0JplGW6+yl3pxEiGVQmuEq0/h5isCuqb/2jBk/d8SMOhMAACAASURBVGSyUyI8ygU9elO4Ajy9HuRdZTac++Nqt6jFWBSISqBL70vcj7gm2pitWn1lzlWeWc77Zru5WTN5pXXZCak3I5sU/+EpfzXeh7yJdSIB+1HEZbeWcOStxu/rTWWAlQkFpDXnuvQ+1J8I81FwP1AuHFNzom3cPIA7QiFPuODIc+5t5jfRNHZl47uXyWSeIoTALFdJtf+nUql0/MaNG//S+NE0t0YK8/kWAByaUE9GAOAD+Xz+ywm1N6NmMpnMsQT29p5RBXWcJIQ4NZfLIUScCwdmykJ/C4RYfswDKle+B16Xy+X+azYX+plM5iVCiCSfBhQB4A35fD7xC/eY16Nm9RiCI6XE+V2VZPuNUmAFQfDMSpJK9KY7MIH+F0ul0uEbN26cFZRNoJ+TNoGfp0ro4OeFEE9OqB8jvu+fvmHDBvSF2qWObDaL4f83JKjCGhFCnJ3L5RDoTn2XUWM12glg4WdfCPG1JB5k8VRJKb9TKBTQ32xG89tuH4BMJvNf6FuXZL87ACvJ2a7d1tnXXdAruuUVwhOvNeGArFzSZkHmI2BFHvSRMO/bMEOO7iNxlL47NODKKmZqAyvHUN0T4AlSOVneoaMHJ/EWVzfy7P3ON//UfXT00hIuVjZh3fQiASUGTboebdrOijBjP0RfB/rfoTKzZ5CFwCJUk2gBGd8cs7rJwD1aDnuuY1pPpCwCh0wfo+sYAXmRlp078wiUwvNrfaU5oLBqqxhDfff1nd31V1c/ZVm9zxD5ME5gVZxWXtm5MRuAQIwS6k3wp8K9Y+Gogjvse6WW1GYaNKbtjqKL1V6EhAjIVivApEZUTjQrT4/xh5OY8ECDR6voIhkiZyHkHeZAJrtVNQDTCQF462p6yoxYtalgqfsaG8DRHDhAjP3mMEpYSHR68z7vdy0+a+0rT9narG+jpABSZHyZTOYKIcT/S2jQUkr5JUzJXSgUtiTUZqLNBEGAPjUY1peE1xPi/u8Vi8XjGuBdFNc8oScShlWeDwDz4mqE6sWbr4PmknKAwggx2cF+Mc8dfkmfsWDBgsvvueee8Zm2FQTBVwAAw0SSOn6QTqePW7duXdO+uJMaKLcTBAGGZ+LnKbGjQQALvwteKaW8vmI6vCiBzv/E9/03bdiwoWUytdQ5Zj8Igg9WzsHwwUQyUAohfrdkyZKX/PWvf8WHI7vagfsTvbDendTAhRDfGB8f/9CmTZswkUbdRxsBLAyBfgMlckni2gjn8hHf9/9tw4YN99U9sW16QiaTeZYQAkMJkwrR7HhgNXmvXHnzld0PbX/idPDCc0FAymT7Y9VTtQqKb7bpdaOSIb5gQgl5XKocK590dj6jxiI2pO6tUcnlQils32QhJLCi/q1DyfiGPSI5oTajLlRakWKUSFhGqaxcxMSeVgS/XFDkeGdxvQZkmSyBBMSYdbGXliO9cXmODivj0DWnt4pUREM29ZBqgSUXWxH04+yPtfaUUQfZNycgLJYBTYrr7RtmWd3+TWMvE07hYdEZDr5Q4FCPjbNTVq9nNGsg10jZBmnPmFfJU8u0QBkANCazmS/NNiclmIY8HGLoDiyqFFNLbAzhCSFxsoHq+aD9obaNA2T53wzLaEoNEVam7jgnKqmA2eQ64ycXNoDKnUv9bkTxZSCZA7ukeAKk/NBDm4e+9sX3fhEf6id+JA6w+vr6VoRh+CsAGEhotAitTm91xdBs5iIIgv+o+BBcBwC7zaaeOs69By+4Zxv6VUd7dRUlT6QLAQBvxGI9pJS4l18zl+BoT0/PKt/3UVGWREa/L4+NjX1gpp4sS5cuXbJ48WK8WUjKbBpv+t6bz+d/ONeNpt0PzurVq/cslUqoKuqP9QPlVN4IgPWsZz0r/cgjj7xfSpmEQrIUhuHJQ0NDqE5ty/BBWufLAQBN75M48BIK/QPb1i9stpPU39//5HK5jCF9iXhhofq9EgL9jplmTm0XgIUhmvPmzcO9/J7ZrlEd51+Uz+cx8+guc1Ao7KeEEIl5o3YUWM3dXmd+7/zX+kJ8UYLcQ1MVR5vDvlaO5xXdEesbafeuk1iAUjmx1EQxBe2PZctTQbdOFeoVPYzvFoMyepstsTQLsKSA/aq4Fqubov4QxLLeV7qkgVJObKDmCyxZckINHQxmIwetYsy2zbhMA41qXymD0xxfLJ5XF2xwLFh0bhxoQSOwM1cLA0TRGc0Gx2/u/NTqremESzL7mZR1TWdbG+Bn+222j1poHdSnD2fcjtG7C8RcbyvdP7deBk/6NR3RajAWtUD/NtALVVzVA2EqSW+oU6zPlVaH2Y9AdJdR6KFaBDsexR2rl4n+rRmp0XPp6lSkqQVQrp2a2RJOfdRFZ80dNRh5aAnw1oEXvuP8I8+dsSXBdJZ8sjLNAFhvC8MQQwWSeBqO4/6T53nvGBwc/OtsJqqVz6W03HhzmZQHEGaNOzefz+PFYculh6abMMw49pYE1u2qYrF4Rgur0eqeAjIYXiul/EjcYb5Syp97nvf6XC73WN0dBYCenp5XVDJjohl8UscPSqXSyRs3bpwz2UynO3GkasTU6YkcjQBYCd9crRNCvC2Xy/02kQmKoRHKjofhw0+PofpaVf5y2bJlL7v77rub8gQvoTFO2UwQBJcAwIenLNiYAmPkPYgh0HXfS7QLwCJvRLyw3qcx0zZlLYVUKvWS9evXr5uy5NwqILLZ7L9LKfF7I3bLBpy6DsBq3gY677sX7Vf0yv8NAlYrZEMKHoNsXKAVucPUflGWKVCYIb+GsMiz2QqVbxNFUdk4Kj1upbKiMEE8he/rFURSHkj6Vl3dnHCVBn5pUuCqUng22SNKqa8caVcUTtn3OPRQcSzjio3tsoeRVUGpOmoomnQXbXgiwxj1mhNmqAeC4MudVFdnxJCEQZgbPqeDHA3cimRudOoz/Zv4s1DfD4UuzSF6kd06SRjndHa063lOrk96O7nwh0PvjJe/s8GosJ5jglM0ZuV3RVOhXagkhRNa3KVP53/rcEPSfamwQByvh/tWKQOt3xbuBu1Vpjul+RJvXCeMj8dB/eDlUK2Y/WjXC/c+b2Q2d496ZdE66A+GCR/U9RJA421DnxU9nVWZHymUkada1cV1hvLux8fKL77qrWsTj0hJGmD52Wz2WiklKjt2Jlyczl6eThncMdfn8/nj2vWJ+HQGiWV6e3vP9zwPw3ySOr4bhuH/Gxoa2pRUg9NtJwiCvsrT7M8CACrT4j5OyufzGALSloqLySYnCIL3V8IvPwEAi2OewHuKxeLhMw1n6e3t/YzneSfF3Eeu/nEhxJm5XO4LrQhu454DMkPHG8JM3G3Rxc8bc7ncjbOZ60wm8yQA+IEQ4rAE+tyy34nTHXsQBK8CgJsAoHu658yy3Kt2ZfUVz10mk+mvmLn/MSkVtZTyE57nrc3lcgiz6jraBWBls9nnVrIQ4/dVEteaOIefKpfL5wwPD2+va0LnQOEgCPbGbLVCiGOSGE4HYCUxyxPbWHPrranSo7ffCkI8P+J7xdSFRSL0b7J10jfrSvhEVMHceZIJOpMDyl6oFVnqKkB7XrMxur4w0MCH/mS4ZH2fyOKdwsIs4nHu1BkEOUCJWYAq5aZ2c1RYLDVTDlu6oAFhGk9YOoN1kOjFmrg77+NQDCQjOsQADU9g+KbbYghD+QxZhURhYnalbAbCiasXDVWbfAdNJEwRZjbZiYa2TI0V6oNhtsGpamalHa+T4py8j9R8e2pmNRDylFG7mhUDjpwWhLZTV2856ipccw2uPA2s8D9CgI+vCP13tU1p0hgnasN9reUzoagso1Im+wSbjG+XS5Z4DmgNdWVkLq/L6R1CYImhKG3TyOuaztKsOI+wDDt26RnNHwMrvWk1h2NFl/5wfv3C152LiVISPabaDw3tDHrrCCG+WknlHHtmOOr4NinlSYVC4RsNHUgLVtbX17dvGIZ/TypNvJRySEr51qGhodtbbTqCINi/YjiNvmdxG9uHnucdRdmGWm0aZtWfIAheBwCfTsC4+yHP8542ODj44Aw6nMpkMv8UQiQVjnx3GIbvGBoaws/ZLnesXLlyQVdX10VSykT8CxuhwEI1ZrFY/LMQIm5lAP6cX/ic5zxn7Y033lhux80xMDDQPT4+fkblogz9r5I4MLnKyzZu3PhIEo21chsHHHDAotHR0c9IKfFhW+yHEOL2MAyPmknoe7sArCAIPlYJ8z4n9snUN7yPAsCxhULh50m014JtiEwm858AcFESXoMdgJX8DjjhCyekl+/R81Hw4HSJ3rLKb0rd0doQQhdcEWRitZNiLgx9mMdweB0pWWzYINXpgCxsiUMNSfyhJsGE80XZA6MHx1A9qv6y5uoECui+XkMN63/FzM2GDXKrBIs4+ksJnBhX6PUJFWSgKKxI5kFqoaaaSpvAa5WOHp8Je4xIZpliuXvB9mlnO8QFSKzcmVSMS6GaITqCT3Y4AFMZqvNaTEGq+O0ZgQjDd+zZvL803ARQCiXah6yV4gyWtpvaAt6G8bkm6wSHEHbx9lEqKw2qUsIHXwrw8X3hKYiFfxohoRNaq7JUqj0RQlnnr4RQqbH0f+xRPX/o32Y2wwR1lFKK4TMaB8aqIEr+kEQyCRKcpDBd+gDpkFXan6y+chAXif8YzFFPjaJLQbNtoZD/2XV0+M21Ym1iUVkz2jcz/OrE7GbvF0JcAABLZlhHvafly+XyocPDwxvrPbEdy2ez2dsrIVkvSKrvGGK2aNGiK2ZjwB1HX/v6+p4ehiHK2Q+Ko36nzsdQTTgXL1ozmcxLhRCfT8CrbkclQ1xfPp+/v961onXGG4Y96j13BuVRYXdNPp8/cTaKoBm020qnoOH0fwghrpNSxv4d3giA1dvbu9rzPPRIi1uFsVlK+aFCoYDJD9ryGBgYWDI+Pv4NIcSRCQwAL6/WpNPpi9etW4ffAbv64WUymdcJITBb5vwEJmNLKpV6+vr164fqbatdAFYlm+Ydley0z693fDMpL4T4kRDi5MHBwfxMzp8L55CZ+1crSX6eFvd4OgAr7hmO1r9mzRqv+FTvZSDgM4APDDkMCm+9HRjlZsqzxu5R43N7btReR7XIN+oEbhBosRrLqrmicCnSU4eIuF7VtowDfTjzoHPjj4xm60NbYOuDj0O5WAbMtWZjtAC8lICFy5bAbns/SYEKk1GQ+h7JOFhlAs8hb44cy2IyBc/QiV331OIMN1CuGk5ptMUjUqbddOgMh+Zf+i8G+EzERhHsNk3oVHsHTnEynxQJYbTdM4Ovi0y4qIUBjZ0XPXTrbKVVWU7mRgVPzSxahysK8ePMgvgGhgeiysrH/whPAawUXlqWJGx7+AnYvnUUoKxVcqpNvOr0PfDTHqS6UrDbst0hNS9tIFYJQgU5QyVnqg4Hjc4LBSCapTQjoi1qVGTK7B+hkh610nZxGdUxIrVOtK5m0NFJN2bvfC5jPgJjPOvGTF6KP0nff+dFR5/956S+neraJrPpFJm3o2cSphdO6sAbziSzkyU1rprtBEHwrootEBoIJ3XcWS6XjxgeHsanjy1zYOrsChTBG4EDY+7U/Z7nvXFwcLDlVGizHXcmkzlUCIEqNlSzxXnIUqmUmYmnVDabPU5K+ZmE/PS2CiGOy+VyP4hzMlq9blJ6Ygjl4XH3tREAixJcJGEQ/q8wDE8YGhq6I+55iav+gYGB5cVi8S4AyMbVhlPvQ1LKNxcKhV9ErtcTaLhVm+jv739qGIZfkVIenEQfhRCvyOVyt9TbVjsALIKxG5NQA1UyXGMY5kULFy78ZKs9zKt3bWdTHhW66XQaMwIfG/cDgw7Ams1K1X/u2TddEIAMPy2FPALv4SMQykAsqxpSN+Mu2HKb5Cx8+JqjUIn4Y3EoIqmudMgggR1zvjW+joRfsapFsRRHnWOwkGOQTlBnfPsOKPx5PWwZegQeuG8jPHjvJiiNFQHKQBBLwwiv24dl/Stg5YG9sGyfvaD3GaspNJJogJuJkH/YqpRX1lrLKm+M5xZTJsOYKKhQVa9fxAC4KOLiMC86iSAgczmLRWrBJT0/LjDjpZoOHKiNq6YJsWpuQ3e9prNPo+Wj4aKs+CMvLlYYUbZCg2xM1krbnoI5NI96G+v/ILxCYJUSKUiDB2nw4f57NsLGfw7D5vxD8PhmBJ8lKJWLUA5DkL4ErzsF3YvmwaLdFkKwfx/svufusGpgFcxfNB+KUIaykFBWqqyQQlejIMsq+GgPmBBFZ34IQOlIXet1pYVxTFLJrYu3ibtMkwAso85zlIIKbLH6ingYAcFxAO8aWfbP+fixZ22ezurNtsx09uhs21DnB0HwPAD4NqotGlLhNCopl8svHB4e/uU0is6JItlsNkueDysTGtBYGIYvb7UwQgxV9TwPw0bjhi/DUso3FQoFzEQ4p45sNnuIlBJhaNwQEOetv+JTN1jvBGYymcuFEOh/lUSK9LwQ4hkzNZuvd2ytWh5vUlKpFIaJxB5G2AiAlclkThZCXJnAfGISjbfMZB8n0LdpNZHNZp8hpfx9QmHoPyuXy+8bHh7e1QyvJ12LbDa7u5Ty4gSz5l2Qz+frDrFrB4DV09NzuO/7t01r48++UA4A0AszCVA++97GWEMQBPh7jHt4QYzNdEzc45zcqrpPvvnK7kWjj54qhDhHglxglVU2qE6ZrzMIobtKzgjI8ImrNbfnZNDO99GuEbuN17IG7cYYnczbqwQjTq8t4DHiKkONWGmDxQXGc8HwPXn4x//cDQ/d9wCMProNJGrtsRiqryZjPh7AwhWLoe/QfeCAVz0TFixdZNVT5HNk4JkCJ9gn8q8iHyyFr1RXowFkWiSD7+lxRIVUbOzObC7aR3d01fM9EVLVc/tfYyKqX6qnuglPrQyx0/PoRNHpcVTrg/SrE8frdkK/O6FbFD7HYIgDCK1blnaUUqbpdD57XfnChzSkoAtSEG4rwR9u+A1sKTyi1HrdC7qVygohVxiGMDa2HbZu3Qoj27cr+Nm1oAu6F86D+UsWwp69K2B5dgXsf8h+ClwVIYSSxL/hf6Jm/cb+jLzZXCN7E+5nPK2c8SqlFAdMsmeWDS2kPAhmIiMzZcIOCYe5bNQxg1fzQ6CYVF9oB/GB9B7l69e+aG3svtB1brmZfWtSKvOTpJSfivvJjNPDUc/zrpZSfR3tKkeXlPIIAMwOktjxlXw+/+7EWptGQ729vQcTwNpvGsVnXEQIMRSGIaoI5hzA6uvrew6qAZIAWOl0emDdunXr61kIzJQ4MjKCZtOvrue8mZYVQnwtl8slblI40/7GeV4QBKhqxaxpS+Nsp0EA62IhxGlx9lNdSEl5SxiGR7ezgXMmk3k7hbDFPV1Y/2VCiLNnYiKeROea1AaG6GLyjI8nkDwDh/iTfD7/ynrH2g4AK+GMqb8qlUpvmomKuN65b/Xyvb29B3qedysALIuzrx0FVpyzG637zGvP2w/S3p0gwidplZQDrlyVlZZ7kHcTAS2+w+SQQFU1EwoNcFyApe+FLQyzqiwLc/gcViThKRZucTCYunvXtuquOTWZnqsmQgl3fPEWGP5rHsZHdkC5FCoQERZDFRKmPIF2BmkwpCztwcpDsvCctx8Gi/bcndwlNCzgkdpZQYWN7pYL67DHrqpKQzf0PaIwQJ4PonEuaHDRV7Srzr8cNuSurDrXvFcHCohUXQNsVW3NmpkIox3Z+Wau6lpUfzYZ2opWaedM93dCuByqsiREsg7qUnodhPR0yCD40CXSsP2hEbjzy7fB/f/aCOluH1JdaUilU5DuSkP3wm7onj8Purp0qODjjz0GW7Y8pupR783rhnR3F6QXd8Nue+0Oz3jxQbBw+RIoyjIUoaSVWELDTsM+iVcyLIoqCzXwjLxG+8x8PNXHqjqzoN6LrrcGabTI84rDTl1IpedVf9R1fVbxZcrd190tDz3viPMejvtbqo5dO/OuYCYoIcR3AeDFM6+lc2YrzoCUcnTHjh17PvjggyOt0r8OwJr9SrQ6wOrr6wvCMLwWAP5t9qOdugYpJRr0Yka8Xf4IggDnHMNLD4hzMhoBsIIgwD0Sd9h6KKW8tlAovC3O+Yi77iAI8AHTB+Nup/KEDr0DTy8UCriHOoczAxXfppcIIa5OwHsQb9A2FgqF3npDONsBYPX29n674n335gQ2V1lK+c1CodB5uEH3NhUvt78JIZ4S59x3AFacs2vrXnPrmnnjD3s/BSFfwP5W+r6VARWH9kUNdSygqfW+Bk5uyCCJOCIwiw3MGehI9qmO3Ko786D65QbaaWNqk+mPbd3LITw29Cjc8bmfQHHrOMzvnge+3wVj28dg67YnYHxkDMLxUIcO1uIzTAUcOBe8cAAOeeeLYN7i+Ro8KDjkhAi6FlQOsDKwivttsi2ScXtEg6UbrNZrGVSmGEbVLX1VSKOCD1ymamymnp1Rgal5VY2NGe1xzTmdznamfuk/6P9reGnxu1FuZwflAjCui2fW4hjMNKgiZbUpO6DyylfKq7HNo/DrL/4C1v3mX1YBhhV4qNoSyidNpH3omt8FCxcvhMW7LVL7sFQuwR5Ll8LCRQth+44x2FEeV95X85YuhP1f8BRY8eS9oeRJBbGUDos/Z6h4iqxJ9QLpfap2fkhZO1WORA2ZzDZ1zNyJNRsAFTGIVQIwlKkxoNJXCEphxZPHii8nO6FWg+n2JHhf7N6jfFLcKqykANazhBB3VnwCuqazTztl2msGwjB839DQEF50t8TRAVizX4ZWB1gUkowhjrFCFJrJcSFEkMvlHpj9zLZ/DZjZr1QqXQ8AL4pzNA0CWBhGFLdf13hFjXZlPp+PXekV53xns9mfVkLQXxZnG1T3fUKI9+ZyuaRCvBIYUmOa6O/vz5TLZYSucWfQVZe36XR6xbp16+ryq2gDgOUFQfCnJMzEAWC08r/T8/n8ZxuzA9q/liAIrgIAzEgY29EBWLFNrakYjdt3PM37iJBwocJA1hDHZB90oRajFVMOI/S0BkrfjNt0dxry0N2nep1FSyQSidZrxB4kX5qMYDm8Sd1FsyqFJU8CwvEibPpzHv7+o7tBPlGGPZbuAQN9q6F3VQ/k8gW46/d3wcMPPwKl7UUIyxpCmcO9W66GWB7AAW98Jhx0zL+RwookMHr0qgp+xUjCqOrayil7nm5fj8WgIBdMEVQgu25dnPs6GaTiKl2gRe2YLH0TttiM6NXON2o9Ve6UVuiYQwu3LACs1YEozopOmQkbpBPRsB2VV2mRBn+HgD9e+xu4+6bfgpRVyfbUniDjdg9AeAL8rhR0ze+GRUsWwcq9VsB//PsrYK8Ve8G63Dr417r7YPOWh2G0OAZivgf7P/9AyD5zNZR9C7E4c6EbLLmzaVBqKJ5TAlYaVtmZMabr9LpSmVnMFTkfwyvtx5aAlgPFFLBywhdZkQVSoJDsDZ94wxqMkontSARgBUGAHiQnxzaKTsXNnoE7hRAvaZVwkA7Amv12aHWAlc1mjwrD8EohBCoIYj0qmSb/XigUnhprI+1Vuchms9dIKd+KOVbi6nojAFY2m/2rlDLutRsTQqzN5XKfiGsukqg3CAL08gkSaOtOVMfsyhnbJptjtFvYvHnzt4UQr0vCbkFK+fxCofDreta81QFWT0/PUt/3/wEAe9UzrhmW3SKlfM1ctBGY4XxAb2/vGz3Pu26m50/nvA7Ams4sza7Mmdd+7HmQljdJCPeuNmTX0Mm1B2dFlSUSIZmps0e2a8Ru7rEJBBmtkjFqJxwWCTGsUvK4wzPNWhhWzXBkScLQH9bBvTf/FcSohFV7rYJnH/QsOPCAA2G33ZbAP//5L7j+uu9AfqgAO0bHICwZ5DRxIo2shWO7AMR8AS/52NGw58DeCjSZjITWtV3VY3GWrbY2xHLCK8nLqJr3uEDL1Kb6RlTLPaGGcCc6sNpZ8CYOnjP9cTtT7bN6KNVUdfH7tdGFGTpnGqxRXS03rWqgxf9GgMMAqxu64ME/bYJbPvkDpdLT61s1tgjEEirENN2dVgCrry+A1x/9eujLZmF8fBw25DbA3X/9IxQ2DcHj27ZCOSXh6S97Jgw8dz/YYXRYyIEYDTuQTluh1VwaHh9xYeqiCQ604YEEp9yt7Cq2jOqKQy4dXyy18q4Ky2QotAbyAN7fyqL4uktef8H/TXdV6y0XO8BaunTpkiVLlvyflHLPejvXKd82M7DF87yjWiUbXwdgzX7ftDrAooyb6MP0pNmPduc1hGH41aGhIczw2TloBrLZ7BlSyjUAMC+uSWkEwMpkMoUEIOcI+mzlcrnPxzUXcdc7MDDQXSwWn0ggIUJl28j/WrRo0bG7csa2na1nEAQXAsCHKl5Y3XGvu5TybYVC4Vv1tNMGAOupvu+jD9Me9YxrhmUflFLuXygUtszw/Dl32p577tk/f/78ujwt652EDsCqd8bqK3/yDWcuXwhdV0kBr1f38Bzyp9GM9a4yflXaTEeH7Okbe21GrVmKBVZVaiQOk4qAqyp4RaBM45Uqd+9IlJ/NBEj4xghX8GZ709/y8Odr74TUuA/ZngCe/7znw4FPORDmzZsHW7ZsgV/d8Su49dbb4KEHHoKxsR0gUYEV8Yly5rAGwMKuLX/2SnjxWUeaPIEurLKowyrDJqIdhkgWQE2AVNZii6K8Jgl13MmSR7iWmSwXx0wOnSZVaE2DU00ADtMlEJPVTedbPzSnQg6BixAa2mjKyN1V8mn9WrW3FAYPYuhgGtLQBWn40Ye/Aw/cu9FiyGqIZdrSSiyBAKsrDQsWLYDlK5bDMw96JjzvkOfAyr1WKn+sXGEQ7vz9b2F9fhC2PPYohGkJzzvmcOh5ep9CWCUlZCJjd0WNKJwvsrZRVMueVMZc3fkAulBLfTQdZRZDKUcoSR5ZlG0BPd/UR4IhlXG/siGGJgOiUmYVhZRXb1u8x2lXvfKUHfV9A02v9HS3z/Rqq1GKUt1/bcYVdE5shxkoQTNJBAAAIABJREFUVi4Wr8rn83jR3fSjA7BmvwRtALAwXOuCJMKSpZQfKBQKn579rM6dGjKZzDFCCAzhXBLXqBoEsJ4QQiyKq49U7zYp5fsLhcI3Y24ntuozmUy/ECLWm07qPP5WXJ3P50+JbTBtXnE2mz1eSomq9bj3Ld5wrikUCh+rZ8paHWBls9mXSykxxBldlWM9Kklz7i4UCgfX6yMWa6eaXzmGcCLQi+23oQOw4l3k069b+y7flxeHIlzK97+oulLG5tpcx3o94d/JREff39r3MJObq7bi93QNZAjvhg/SHanJ0Mehd0KHOU3UYNmb9yjoYSqj/9y+ZRRuPvd6mA/dkFkZwIte8EI46KCDoLu7GzZv3gy//fVv4O4//gk2Dm+CrY9thVKpRCbuNRQ2PPXVEAszzS3phsPWvAqW9u1Zpc3RcMTVrDEsMfOjQrmImTEIpDfVPNaAOLUFVi42c27xq85n0Fi9k2oJi1SZWdECapzH41Q2nWrNiIzEqqrXZp6oozxW5p2OXCnaHhUg03xVq+Gk6COlAVaXTMOjf38Qfnz2jRrSOqs7QYnlQCzPF+B1+SpD4ZLdl8Cey/eEfZ78ZHjeIYdApjejshXeu+5euO3O2yE3nIfHHn8MUou74N9PPAIWr9pdWbrj/6x6kedR+225YzFzFDFWZ4bs+FnRGPFsSh6ql1eNW4AIbSgmwywGXZ5NQar9wRzlla7DZi0kT6xBAHHyJ49d8+M4vrGms3dm024qm83+XEp52Gwq6ZzbFjPwa9/337xhw4ZCs3vbAVizX4EWB1h+EAR403XW7Ec6dQ1SypcWCoWfT11y1ynR29v7bM/zbokzE2EjAFYQBOhPlY55ZbZKKd/dzib/mUzmUCFEEtlUt4dh+NGhoaHLYl6Ttq0+CAL0lvteEgAmDMMvDA0NnVjPZLU6wMpkMm8VQnwuiUyOZOD+9nrmb1com8lk7hJCINiL5egArFimVVV65vVr9gFffC4E+RLX10rfRNOtu8kqqFVPoeJE1rDd9cFSUIvUWJGsg0rJFQVc+t5ax0dZpZejjInIQ1i25SIgAhgGREgoj5fhlotugpHCFth7RQ8c9rwXwOEvOAwWL14Mj2zeDLfffgf8/W//gAce2AyPb3kcxsa2K7BQkxg51eu7/uj/vHk+7Pvmg+DAI56l3p7InKoUVlSIx2yM350THRZDi+7UESFY9HptquUiF62YcfBHDTZm2qpvp1XXND3EYM5yBXYGdu2sB5PU78qrOPQN4UykuP6HeYnVTU4h9L5KSR+6wi74/dV3wD9v+bOTYZKQkem8M3ZWhqGxu++B352CBQvnw5Ldd4Nle+wB/f19cNihh8Kqnh6l9rvr7rvgl7+5Ax546AEYGRuBVU/NwouPfznIeYKCCUn5SFkRif7uZGI08NWeWPrzY9RXtOfYL4tnQSnQyJRdm7hzQtCJWQgZZNXIQGggloaxnoRQXueHxQ9e9OaLHqxvL01denq7a+p6apbIZrOHSClvjvMmZ4Zd65zW+Bm4Xwhxai6X+07jq66vxg7Aqm++apVuZYC1cuXKBalU6uNCiCRUHGG5XN5veHg4tjju2a9W8jXss88+q3bs2PFHAIgtNLwBAEsEQVCe7bPDaczuViHE23O53A+nUbYli2Sz2SOllD9IoHMYpnhiPp9Ho/LOUWMGgiDYv5Kx+XYAWJbABH03n88fU087bQCwThZCoB/dgnrGNZOyUsqPFQoFDKXuHM4MZLPZG6SUde2reiawA7Dqma3pl11zw5quHVKeJIW4GIRMqTBAgkpsth6FWuwPjVnTtJRKQSmWEgHBLSfroK2RjM1ZdcXhiGT4rsFXtSG5VRdZzsAm7dwzS47Ccgj3/ORP8Ncb74J5XfPgwH2fAq898rXKh2jLlsfgjttvh7/95e+w+cHN8Nhjj8P27WMQlstafVUDP5mZrFZfMcjyAVYe3gfP+8+XESzRVKQa6+j6WSVGJZxIwOhZbsygw9XM3bsdv16rWkctlOaUq/Lp2vmOISAy3W1VM8KxPvTgQqbqM2uN15ap0igp1ZIDriL0Kioyw3I+KrBkGlJFH3508rXw+AMUKU5yOF5Zq46rglgKmunMhOiFNX/RAli822LYY4+lMDCwGg5//mFKlTVYyMGPbvlvWJdbD9tGRyA1PwUHH30o9D93Xyj7IXAgoY17dE2wasyl8kyjcWrubCGWk13QVVFhCR0iqMsbwGkyDbKPFtdL/yaDPHOOowBTIEzC4xB673+Wf8B3jj32WLweb9hR3y6qr1m8ecAQn0S8HOrrWqd0DDOA6aSv2r59+zmbN2/eFkP9066yA7CmPVWTFmxlgJXJZJ4khED/qyR8qR4TQuzfyUAY3SrkmYQhZ6tmv9tq1zBbgHXAAQd0jYyMxBJ7X9Xjx8lL6EdxzUXc9ZKnHIaExn08JqU8tlAo/G/cDbVr/StXrlyWTqf/DgArEhjDL/P5/AvraafVAVYQBB8FgLPj9Odz5us9+Xw+ic9NPUvU9LJ9fX2fCsPwg3F1pAOw4pnZj1z7sadAqvx9CfL/s3cmcG6UdR//P5Nkd9vtQQ9aaHeTbHehCILcUBQpKt6++vpCOVoUEEF9AeUoFeRoQVAOFQXxBEQOFTxf7wtRVEDuUwptN8luKz04eu52k5nn3f9zzDwzmUlmkszsZnfGD3Y3eeY5/vMkm/nm9//99+CpgzJdSvpeKSormS6o+mCJgmdqypOSdWRTVamqG1bPTaYeCviFJvD2gytBLKjFq8Cx380bbjss2pTbAA9+/U+wOf8qTJjUDnvPfwN88H3/BdOnTYNH//Uo+2/Tpldhy+atMDgwADqDV47qcl6hlnfPIn2S8QINYNab5sLhS4+B1MQWkyaVIywntFJ0ViYcUQcu12G5OVa5wiuWHscCbBnIe6i0Ku8ql94lh6uSX+gO1YLtYRVWqOzOLqGyUgDderdprhSjd1lowHxeACA0cEeAtXPddvjdxT+GnZsHlUqQJr7i+1BuRHVgBja5H5aW1CDZloIJ7RNh8uRJsMv0afCG+fPZf+s3boAHH3sI1m34D+wYGIBSqQhz98nAm086GtpmtgsvLEwl5AdCYjuks2Bo2fAmvFK9q4R4UHSoVi/k9RkU+GV6aCkAS0Iq0c5UZJkVCqX6i59DKTyY1Ev/3WgVVmgAa+7cuR3JZBI9QbCEeWjjBHsJxK1DjsDDhmGc3tfXhx++R+yIAVb9oR/NAKu7u3tWqVTCFKTF9a+0ag+5VCp1aNBS81V7HQMNMpnMvwFgr7CWUi/AWrBgwYR169ZhmfuwDwRYSwqFwq/CHiis/rPZ7LmU0ijS+l7Vdf09/f39/wprLc3eL1Yi3LRpE1aEnBPBWh7P5/M838XnMdoBVjqd/iKqwaPwRySEfKiZlZc+L3ngZtls9iJK6dWBT/R5QgywfAYqYLNlP7z8NtDoR2WyoEwF5Ol8KrwSPlei0qCquLI8sBxQypYuKM/nEzQxmTmGolsy782t20iZzmjd0fOqbCZDIMBSB5/5xaPw/I8fA1RipVpaYPou06E7Ow/aWtugv28tvLrpNdi+fTsMDe4EXRe+V35jJqfDIIX4TwOY8YbZcMh5b4eJM9oVgCU7FQoyMVE35uFUbMlhTNGWiJj0aqqsFfOBjnw0sem6XMvfVQiaR/++hmXdKsmOCkmwQQU1OBVog/R5krPlXM+myTKFcViBUKNcgfXKM+vhb9f/BorbhhjcYftPvYYSDVaFWAlItSahdWIbTGhvh0mTJ8KUKZNhsLiT+V9tH9oBQ0O4F3VItqbgrR95B3Qe1A0lDY3cS8CgrlA5cqrCN57rkmXqoLNiIEsNdAAq5r/GjNe5WsusOMh7Z6Mo55iPCmCFsbJXJZRm76Ynlk5A++w1xy+/3u/Ly0+70MBSR0fHhzVN++qw0W+Hn4nEbcZEBIY0TVvc29uL/h0+v8Zo/LpjgFV/TEczwMpkMrtTSm8ghCyqf6WVexguZ/9MsVg8eu3ata+EPVaz9Z/JZP4JAAvCmncMsMKKbHm/6XR6mUi7CnvQTalUauGqVaueC3ugZu4/k8msAoDusNcwrIZ7fti7bZ8g44x2gJXJZBDEnhWB9x1omnbUaKm+HOQaht22s7PzE5qmhVaVNQZYjb+CS+++4ihNK/2BatBiOe6ovldYWZCrP/hNtDRsV5QoWIlQ3MzLKoTsfli0ZbBK3HVa0EriEUxDFDCr6p0pnq2UN2Qcwm50/traV+Ghm++DV557mUEKVMCkEiloaWlh5tz6kAHFnUNM7YKeVzytL8DhAbCmz58FB39mIbTPmmqmD1oQSoA7JcXLrs4SZvWmskn1FrPmps5UbWoRPBZpfoITOImHXVdrTtQrDhViVOGpoMzLfXQ+OXMYG8xS9EjO2DEzp/IezYek35MAQgLtsFMSFD2wUvDyIwV48KY/QnF7UUCeeiCWBloqCS1tKZZWmEhqzENON0pQMkqsOqHOVIAGdC/YGxacuBC0Ng2KmEiIDuusvqeYvWNdXi8bmd7HnlfUU9YW5q8lXp/B8suyKhkKgGVTWEnTdn4Onsv+X1VwMfil8ZRECpuHNH2fryy6Css4NuSo+jZRyyjZbLYNvQEA4IJYfVVLBJv3HErp9wYGBs4eyTTCGGDVv39GM8Dq6OiYm0gksErXh+tfadUeHtV1/V39/f2vVm05zhpkMhksVR8o/ShIiGKAFSRa9bVNp9OXEUJW1NeLr7M3JRKJI9asWRN7ylUIVyaTQRVzILDkK/qORsOpr6sLhUJPkHObAGDdBABnDlepTQZZVy1tNU07rLe3N1YTOoLX2dl5iqZpt9USUz/nxADLT5T8tzn7N19rnfj6pr9RDQ5FIxzufSXTBvH+lH8fjY/b0wMVeMUUVnhjL0GUrDIoq+9hf0QYt1vJifyeWZzL/LMsEiJvuFkbcznyJ+v2VX0OTzcoQOHR1fD3638HgGVcZBoVgiyhWqG6qKqIMC4ovMK5eAAsVGAdfO7RMHH6JA7rJDBSfLXKWI8JXdySDa3raPNaklTImXJolyYpJ1s/OpsERHd8TfXSg7rOr3yyYFHWJKVllFRqeQIt7lnFLy+BBNUgYSRh/WN98OBNf4LS9iFm6iYq7PGL60eJZe4VTCckQJIaA6r8P8LIEUIsqokSgAISJya1wIcvORnapk+EEikygGWIYgnlu1/O27Zs86JLdZVsJSsQmsoruWqpvjJwWqK1I2WQr1/osKQyS2i1eL9CzWX2yV931IA7JuxGTltx9IqS/3cn75Z1bSGvboUJ6bcB4C2NmGTcR1NFYB2l9MhCobBmpGYdA6z6Iz+aAdacOXM6U6kUAqwP1b/Sqj08rOv6e2OAVR6ndDr9B0LIMVUjWGODGGDVGLgaTkun08sJIVGYUW80DGNBX18f+qfFh0cE0un004SQfSMIUC6fz3cFGWe0A6x0Oo3Kn9MJIaEDLAA4KJ/PYzGL+FAi0NHRsSSRSKCFSChHDLAaGlay9O5LP0YI3AAatDNIpfhaSVUUSigQDDGYJcRPMpWPq6w4BpGPcV8rfn/Pjd05FDMYIFDdtTjo4uouvi7JfRT+IxbskA85GojsJ9CHivDEXQ/CS//3jJiAAElKGpTgDjY0FiiqHgBr1/3mwKEXvJ17YDGgJxRrIjom+WEQqAKwkmBE5EYKLqDEwXJHL4+TshInbFJolRe44tfMJRo1kS7rmjp7tA3hg0bYh1dTC2WlPPcraHYtyZYJtNxAnPR60gC9nZJGEjY++zL88yu/h+L2nVxNJCCWCRRrgVgoWUpilUICkAAGtpiMSaP8MXztpAgcsfgd0HPEXlBCDRZBHywRBfVFYi5bCaIUnoltgs/ISoSqSbvd/0ogK6mokkMx5ZUCs8zfRawwHpiKaXrRWT/L/oWh+2sA5LhrT7yiIVXdfWyZQC9pbKxlMpn/BoBbAWBK4LPjE8ZCBM7K5/NfH6mFxACr/siPZoAlFFhfBYD/qX+llXuglD5qGEaswHIJUyaTuQ8Ajg7rGsQAK6zIlvebyWTQ9BqLroR9bNI07S29vb0rwx6omfvPZDIvAMD8sNdACHkxl8sFGme0A6xMJnOjUGClwo5fIpE4dM2aNY+EPU6z9Z9Opz9KCPleWPOOAVbjIrvsnuVpo6TfBgn8Wy4xkwqcFNxkpvhZyisJrqyUQcvwXSqrGKhRTNptaYamAssOE5jQRLlD5Rot8YCtsp0FgSTg2LltEP50xc9g60uvcTMTSbZkg8AgxiXebgArAbD7W7Jw6DlvYzf0uAaO5vCwMJM5vAqXTKImzdadblhyDpUnb3tW8j51QIXmlPfkIzA+mrjuTksWZT6tAghPGGE+YU8RlREtM3E3sy4RqtiFYk6WJ6+LYKq2xiz5DVMIjQRsX7cN7lvxMxjaPMivJAIbKxeWd+O3MiHrgBu7I7Bi4EpALPxXw8cRaOFjKQLpt+wFbz3xHVyBxdIInRivHMLZLrcaWKGuknMvV1gJRy0GqChPl2RqKsUDy6muMv2xeDvmh2U7R/zOabYOlNxTSpCzvrJoRd1ZLQ0HWLNnz25vbW29nhDyica9xcY9NVkEnsrn8wfU/tVGfauNAVZ98cOzRzPAEh5YXyGEHF//Sqv28HSpVHpb7IFVHqd0Ov0PQsgRVSNYY4MYYNUYuBpOy2QymO6PlT3DPl7RNO3tvb29T4U9UBP3jxWc0cQ9HfYaKKXPFAqF/YKMM9oBVjab/TKlNCoPrLf29vY+ECR+46FtOp0+kxDyzbDWGgOsxkT2uHuOS3SV9jqTErgaCJ1qelBxIxum9pBKKrSRVisTckWQBFOcEBl426uavZvQit9Sy5tvaxyZ3aeYupt331KOxR8wARZL+VPkJTIUTB3G+9u+cSv85uy7gQ4aFsDinfCjVgijhl3ePcsqhFhprkWDrmPfCPt8+GDT/8qWb2cqdZS1ScjkckmtaZZPXM16lGlvEqKoXXGIVjnlr7Zw2Chi3RvSCSPsqimv7sv9rRh6kWlwTnjj6FT+agNbjDNy+KUZqMJKANmpwW+X3QUDG7ZzcIUvBeYVZSmTWBpqTRALVVgIrYQCK6lArBYNUukpcPyFJ0NRQxN3HfB1aKXZWqooVG7xQ3rD2XV5qmBL9cRSFVjcjF31wVJhFO+bK7msNEr2OxvTaqsJ1SCa4IsZ8nMwhZfCWmKQT3/xpCt+Uu+maTjAwgphxWLxqeE/XrvVO7n4/KaNAP7Ne0s+n39wJFYQA6z6oz6aAdbs2bNntbW1RVWFcE0qlTo8rkJYvqfC9umJAVb9r2O/PXR1dZ1lGAYqV8I+XqOU/lehUPh72AM1a/977733pO3bt6NHWOifoSiljxQKhUODxGq0A6woqxCKvfzLIPEbD22z2ewySukXw1prDLAaE9mlP7ykG4DcDADvtJmzszRCg/vyMHGJAFqy6qCsuqZUIbR5Y0n/LMWUvbw6oYBWAmxxiKAiBRffKxtpseAF50LWDfzLzxTgb5f/mncgFVisjYhbbcTGAgRSBcPv3s3/kpNa4IBzj4Td3sS/e2BrkvNCRZb5qDVd9SbcqnyloCsEdly0Y7edUniFtGJSl2WpcOparK+NZgI0lQ2GNSzGwdwmFQZhjWQ6IJ+YahtmN5aXmMVu70WYB1aC/ffXG38Hmx7Ncw8sBV4xpZaB0IwrxNi/puRP2ZYqNWVT4xeUK7GEIkumEybE760E6OwWOPmyM6CUKEGJlHjyrdx/Tu82V0Bn7TBR+oClRjKFlaxiKMzZTbAl/a0MKlIDlfRAAaJ4JrEaYysuTGEm+mBjMeDMx9RowiAGuVMvkaXXf2T5Bl8bzKNRwwFWNps9lVKK6YPxMY4jYBjGrX19fac36LuOQJGMAVagcLk2Hs0AK5vN7kIpvRYAPl7/Siv3QCl9JZFI7NPb27s+7LGarP9EJpPJA8DcsOYdA6ywIlvebzabPZFSencEI242DOMjfX19/xfBWE05RHd3d2epVHoUAGaFvQBK6e8LhcK7g4wz2gFWJpO5GAAuBYC2IOuqpS0h5NRcLhdaqlwtcxoN56TT6WsIIReGNZcYYNUfWaa+Ku55AiXkNqpBit3coriEVRjk/5lpgcpjlh5KSQvkjs6WQbsjXRBBmPR7UkEWU3ipQhF2R2rTw6gEQCya37baYJAtHBTW/OV5eOzGBxoKsBikwZtwAR6UZEs+OgFom90OR1//35BsxexliQuE+ZApWLJSIS2epgIr3peVSGiFxFba3ZRWWYv3wjksnVE2qwiWXBGYv83mSRMahxmcPZUvxQKgVlvxE/tHVstTYuZIVVUxKquuhxBLT0Dv31+CJ797v4BiGmhEgwQkWEXLBAIsHcAwdNB11EjJqpZil3LCao+jD4gFEwgYu6dg8bLTwWjVQWdQ2SKyFnZTL666XmVch8EcrxooFVXSkN0yZnf6ZXFlFq6Wx5GrsBSIJaGXUGPxVEJLrWX/mWykkFhy3fHL/2jf6P62mmzVuJ0FAMcdd1ziX//6118B4M3BphG3HoMRWNfa2nroiy++2LCSmX5jFAMsv5HybjeaAVZHR8cETdOuJoR8pv6VVu0B/1r05PP53qotx1GDbDa7G6UU08BCu8mOAVZ0G2o4HfSY4XTQP0Qw4nZCyHm5XA6LvMSHSwSy2exhlNLfAMD0CAJ0dz6fXxxknCYAWJ8CAPyCoz3Iumpse1k+n7+yxnPH7GmZTAZh+IlhLTAGWPVH9vy7l89MaMY9FOjRpqW6NFMXCix2zyr/Jw3HJZwylSCihWnELjypGASTUEv0o5i6m9ZUrOKauBHG551V9Tzy/aRaS+iTTHNrvKl94ddPwjO3PNwggIUpXQS0RBKSqSQkkgkgCQolXYeiXgRD1/mcKUD6f/aC/U5YIKVX7F93XmQ9isb4IuOKX1S5fpsYzdGL+BVRmGKtVVkvUOluv5YqjFXVCY3ECyqOssdCcCkeO9GsfDmWts+EHyx0ImXOdarSoFwDTU9AaasOv/vsXaAPFEHTNEgmUtCSaoWWRAurVkiHDCgVi7BzqAR6aQgMg0Ms0y2uAsRiajAXJRZM0oDOScGx5yyB1JQklDSePijRaIUSAGYwOCdjLyxbKikCKAax2P4jIBVVnCGzVD8O/ES4rfYSWzlUWab3lQK2hCcWw14K4BKG7t+fmNT+d8WiFdtqfTdr5A6DTCZzIABgSWHM6IyP8R2B7ZTS8wuFwreiDkMMsOqP+GgGWPj+kslklgMAGk839D3MLXKEkIW5XA7BfHyICGQyGfS4+yMAzAgrKDHACiuy5f12dXXtZxhGFL5UOxEu5PP5y6JbXXONlE6njyWE3BJFERxK6VcLhUKgLwJGO8Dq7Ow8UdM0/NwxOYIrf2s+n/9YBOM01RCZTOafALAgrEnHAKv+yC6987LjSYLeaRCatJKe8AZZgVYCUpmVCM3kKAPFGAJtyZtqy8+KqaqU1EBeZZCrtGS1Qfa7csibcZ5ohIc0MvImJeVwiD+y8rdPwTPfaQTAQnCVgJaWFLRNnAgTJ06AXaZNgfZJ7bB+4wbY9Pom2Dk4CHpJB21iAt569Qdh0uwpLtCqHEBJvy65VDXtzP3qWnQmSHaeGzfh/UsyUcdeCjKRqsME/Chfbn9ljeAQIclpWnvLunGQiiI82UpNFHcWbAsiwNKA6Al49PsPwNp/rIREMgkT2tph5i4zINPRCYM7BuG1ja/BwLYBGNg+CDsHBmCoWATd0MGglmKKgzV3JZYNYiFBSRKAqQmguyfhhAtOAdpKmQKLahYUqyp6ExBK1MJk8VFRnomixEuNpxYKDyxWEFFWd5SwSjxmel4hAOM+V9KqnauzFCUXg2B8prylaG+Q1zXdeN81J1+FfytqOgLumMpjZDKZmwDgf2uaSXzSWIsAvmp/tmPHjlM2btxYM2GtJSgxwKolavZzRjnAQlh+vqiaFkWayCdyuVzkILb+qxheD52dnR/SNO32MG+yY4AV3vVz9izScl+LYET8u/CDfD6/JIKxmnKIdDp94fA3ogjoJ0SwgKX5fP76IOOMdoCVTqffTgj5MQDsEmRdNbZ9MJ/Ph1bIosY5jfRpWIRgU5gKwhhg1XeJL//L5ckd/9EfA0L2k4oOZrBOMaVPohTLLJqbr5taLBNyIY5iPlniedMzC9ty0QVHXgiwTDDGbIREb+XfQFq391XoiDBtt0VCqExyD7wIj9/w1zoVWAivNGhtbYNJkycxcNXR0QEHHLQ/7D5nDjz73LPw+z//Hl557VUo7SxC5v17wT4nHCYWZKWOqVDEglb2inomsBOLMVVFUmnlEgpXMFV2R+8nml6dq5Opb78FAw3BWttnxs+1+1u5zZ2DGlw5hy/8MEcWF4BbTXGPK9ATsCX3Gvz9hl+zKoS7TNkF3nrYEXDUEUfC65s3w5NPPAX5NXl4/ZUtsG3LVhjYvgOGikNQMoRCT2JZ54UzBxe+V/g7emAlAWBaEmC3FBz/2VNAT+igawYSJEttKBdQ8fI41WdWaivz71I4ZkKAJjM9UAAshp0UuGWavSOMMlMJBZhS+yBogi/xFps6A4Jc+cZcuO69/sQrFtW6u+rZKbYxe3p6dkXfhmH/q9Ar59S62Pi8yCPwb0rpxwuFwj+iHDkGWPVHe7QDLCzTPfwN+5cIIaEpgJQo3pzP52MwrwSks7PzPE3TPh/mTXYMsOp/HQfoAW86N4apqFPm8mdd1xf19/fXXUY5wPqapmkmk0H1Fb6/RaFkPzafzweqBjTaAVZXV9d8wzCwSMDMCC76ura2tr1Wrly5NYKxmmKIjo6OuYlEoi9MdXQMsOrbCkt/dNmJYNA7KZF6Dn5TLMES3tqjQkrCLYabFAN3fo/KNVQm8BLPC3GGOF8CLN5aNysU4vnOBCh+O1qWFuXGseSdq4ABgjOYRGLTC/+Bv138K0nQ7P96u1uvAAAgAElEQVTyQaoeRNMg1dICk6dMgVm7zoA95+8Bhy04DLrmdUEqlYLHn3gc7rrnbnh5/ctAdknCERe9BybM4FnLJlcQP/Bp2jVWLP1PMftm0MWZcqjMk6l3HHfs5ctQiFclhZJj9T7CUTVe/huUp/P5P9dfSxZKXBSTVznGs8VRPGfbT4hYrIiwFliN0CCg7zDg+Z89BmsfXg3Tp02H97/j3fCutx3DUvA2rN8Ajz76ODz3zPOw8T8bYcvrW2BgYACKpSLzxlIhZZkSS4VYXKQEJEmAzkrChOwu8P6zjwWa1MEQKYRmFGzzdsTGtleshFu1lXzUMlxXvLBkaqGEWAJUmWoq8aJjQEpWIFS8sXhVQlyKcNvCdEJZidAyjx8yDDjiS4uvfMzflbW3ahjA6uzsPEXTNKxiNKmWicTnjMkIDAz/fUOPCKwYZ/MfDHO1McCqP7pNALDeTwhBxWem/tVW7oFS+mihUDgk7HGaqH+EHehhdGqYN9kxwIp2R6TT6X8RQqLY55iqeGo+n38i2hWO/tE6OjqmDxeNuBcA3hbRbA8Meh1GO8CaP3/+5MHBwZUAsHsEMXw1kUi8e82aNY9EMFZTDJHNZj9EKf1ZmJONAVbt0b38tsvbdrToD4MGlvqKkROK9+kCS1m+VgxcMbUT/osKEIldGOLiZu/iTlIav3PYRQT04pBLhWO29DmFyziVSLZVqjCHcwnzsAEBAjD42g74/bk/AmMLOmvbOJHKjCoEkUAikYC29omw++zZcOTCI+DwIxbAjBkzmK/R2rVr4Ve//TU89fxTsHXHVph/wkEw9y09HDxwuyFLiSXmrRZD5ANbCKtsIg6ihL86Y+N+8+4PRal4pmKMK24zf2P52an+QYSzpVBc2fYDj6vtEN5rctO4j+cO1phaCCvuYaqcnoDNuVfh6R8+BGRbCbozXfD+Y94Db9hjPqRaUrB923Z49rnn4f4/3Q99vf2wbcs22Dm0k6UScoAprqIZOiWGTiVWKwHoSMGeRx8A+x2zPxgJwwRYNoWZkmnL1uy6OCtOzqvGnhFeVaryyvTHEimBXIGFyim+ubknFtNw8cdYKiEBjb0AlDRCxRsLz8Nv5VToRan240OT+5ywaNEi3c9eUdv43zcVehamyrcRQo6TzDPoROL2YzYCP9V1/Zz+/v7IzNxjgFX/XhrtAAuvcSKRuIVSum/9q63aw85UKjVr1apVW6q2HAcNRLoZ3mS/I8zlxgArzOiW953NZr9HKUXlT9jHOkrpZwqFAu6h+FAiEOX7LgAMpVKpXYO+r412gIWfjzOZDHqxHhzB5toOAJ/J5/PfjWCsphgim81eQykNrQIhu9+i9PZCoXBKUwRklE1y2Q8vPcEw6LcpgckSQCGU4UoqVWmF96H8e2cTVHHNlfhdPs4BFR7c38qqTmimCkpDd9NDS5Z+s99OlyERD0Yi+ZD1tNqQQnHHEDx8032w8eG1taUREg6w2qdMggMOeBOc/NHFsMsu02DHjh2wprcXHnr4Ifj3qpXw+tZXYZc3zYY9Prw/tE6dwFIrecAsHZmcmSr8qaYys86hzE+outOrPIOTGreoNg43VdjQDSAKvrowA+01FwFs1GqOKvA0T5OeT1aMZWU+piQUQWNgB8fUNaA7AfoeeAkKf30BJrVMhGw6A4cfcAjsteeeMG3qNJY2+Otf/hb+et8DsPW1LbBz507QmdG/9VoSW0RuFmsROEcmWyJApmhAOlvhiEXvgFl77QY0wf2v5IZQxVeeMTOfENDJI1zSzJ6vk6uwZJogm5JYP1dUiTZsKlLBxlMFWYzEuZYXlkgZFP3w80WUCQFNh1eoRt53/YlXPhz0rdLXXqnWqaiag3/A31itbfz8uIvAWkLI4ihNsGOAVf8ei/JGKpVK9axatWp1kFl3dnbOIYT8kBByZJDz6mj7/nw+/+s6zh8zp86bN+8QwzBCh4cxwIp2y2Sz2c9QSr8SwahDw8q9K/P5/BcBoBTBeE0zRDqd/ohIjY4i/e3FfD4/P2hwmgBgoUfidwDg9KBrq6F9iVL63UKhgJUPI7lHrGGOUZ6CBVbQMuKwMAeNAVZt0b38tst3GWg1vmMQ+t8UaEKqegw0h2bpgPxfmeyG96OGSJ7gEMtSXZnG78Izy5ZKKHyxeGsmyLAgl4BdHPQ44IytfFz57akT/KiqJLW1oRuw5r4X4NlbHgI6JIgOXxg/3F6pCgNiSpFUAia0T4D5e+0JH/ivDzAj9zVr1sALL66E/v+shc1bX4eWznaYf9yBMDk9TSjX7NfFjtXEwOX0jUMLZe3WeVI6pPakWnJXfssJ/Q3JbYCGUAU70/He7dUHs1ogzUJ1Fv9XPaRmy9Jg2R9hlwy3kaEBKWkw9PpOWP27Z+HV59bC5ImTYfaMXWGPrm7Yc14P80z76/0PwFNPPA3bt2xj/mho8s/2rgk2xc5l/ziCiBNOEiC7p2DqG2bDm096O7RMSvJXq/S/EhUU1TV4J2YqG9sjXBJSYX+YKslBlQRUVkVCjIH0wrK8rywg5TR0twMtPBfVWpbhO/fgIkVKyTfaU9rSFYtW4GdD30f1q1+9Ky2dTp9NCEE/lDh9sHq8xlsLxM6XplKpL61atQorUIV+xACr/hCPdoAFAKlMJvMDAPiwn++n6o8IxD5YIojpdPpkQsiXAGDXBsTVs4sYYIUZ3fK+Ozo6jkokEvdHMSoh5EeU0nPz+fx/ohivGcaYM2fOxFQqtQIAzg0zNVfGghByby6XC2yg2iQAC4HS1yO67vcTQk7M5XIvRzTeqB2mo6Njj0Qigf5js8KcZAywaovu0jsueTfVyM1AaJdM92N+V2XqK2nYzlVYpn074ykCcknYpaYQSh8t9pg8i/CfGdQyBKcRBk3sZlbBUhIsuCpsRDsvaGLep/N2m/OvwhPffAA2v/hKuReWCzewRZQAM3BPtqZg6i5TYG7nXEgmk7B5y2bYumMb7BjYDjAlAfuedgRMnTdTMbUXLEp0Zq5MAXUqhJPpW+rYBlu7B3pynuDSzAtalT3uo6/adlmFs+ogDt6nqtIqD4wj/cBskBLnSYA4YRbGn3WJKiRro7CrgpJCzLPVNdi5YQc8/9NHYGvvKzBxwgSYNHESTG2fAkmiwcsvb4Qtr22BoR2DYAzpQA0OUd0gFhvBBm6RpGhAMq2w7/sOh+yB3aC18KIIgCbufGrlW8QFavHGajVPJVYyD5FSYXovQBTPEjaN1tmwQm3FYiK6c6qy+HNcgcVAFuOEdvWVAFZmxUJTiQXwBKHGadctvvrJIHuuju3Eh8lkMrvjt7aEkOODDBy3HVcReFjX9fdGZdobA6z691YTACxIp9NXE0LOA4DW+ldcuQdK6WrDMPbt7+9HX7dxe2SzWaz6uIJSekHY6eIxwIp2m6GqUdO0Z7H2TQQjrzQM4+S+vr7YO0gEu6OjoyeRSHwj7NRc5dpemM/nrwt6rZsBYKXT6YMIIY8GXVuN7VdRSj9ZKBT+VOP5Y+a0TCZz2vD7x1fD/jI7BljBt8y593x5QrL02nIK9HyKVjSoBiGorxI+VqZaytRWWYosvMFW2uLoTsUV78eebkgJx1PcJ0v2q2hiTG8ieXMvb8y9bk2dhj9qNT/rrp6pyXQDXvrt0/DSj54CYwd6EFVQYDnpDt58YyU4hFgtSUi0JSGR0JgarVQqApmUhMOXvgvad5vMTa+YPEca/SrqGgEJpKLNbVUMipRb11ugQl5qJ+RwMAw2qgPGVN0ljZRo1dJXDQTCPMX1XMeDsiKeEgjPCoUE8YpFuKyfpO+T6MSEWASKrxXhiTv/BltzmyCZTEFCQ7hFGbQq7SxxeFXkG4NX3ZNKO9MNi3Vq83BDk6jdU7DbYVl44zGHwISZE4AkTKrEvdPUIPALX+FSi5XgNhVgzmxsXjP+A1NIyRRBU4HF544VCqVSiym0lKqEUo2Fhu3sZ4ylmk5o+mXxeeI4DHaxmDPV145hNf4l15505Q3ESRQrrKyG7WPvLZ1Ov4UQcgcAZKu+WBrXABcb+9HUHk+8CY2ixLScoUEpfWtU1QhjgFX7xpBnNgnAOpYQghW7ptS/4qo9vG4YxvF9fX1/qNpyDDdIp9PzNE27mVL6rrCXGQOssCNc9rd8GiHkpwCwMIKRDcMwPt7X13f7sEI3sHlnBPOLegiSzWbfSSlFVWkUAJEWi8W3rFu37p9BF9oMAAsVbJlM5hUAmBp0fTW0HxTFalCVGlmxmhrmGfYpiXQ6jV64J4WtIIwBVvBLuezOS/c1NPJdSoxDObbiyg/uWWWlDlp+V+zWWjwnVVcIjOQ5EmJJcMUxDDdsR50Wv6+Wj7kbtzuTAhWi5ViixUfkT+WPWKdwoDS0fQie/PYDsP6hPqC6Yg5V3kV5QJn0hABBY/YESrJ4Zbj27C5w4CcXwsRdJ/H1KebcrBPkFSZh4NSs/EabcNWNmIe5EtmwDAa5qNTEjH1zI7Vh1ZOqNqi4Act1UFVQQwASISNR8RQ3SiWBi4p7XDqxwSF1lQzM4Ds8NyxnllYlDYpbivDcvQ/Bpmdxjxk8XxaNEfDnEgXQWR6uqWjiKizx2pIbRkIsBJBTEjDpTTNhn3cdArN6dgOaNDjAEqDUbS+pAMszLg646axLyKtgoucaV1KpKYKourK8qzgnNdvJOo8MUgn/LJpgu57BKcXEXdjAC/glYJZw3AJKfplIJs66ZtHygt93twDbprzLvffeu2X79u1nAwB+i1dXX34nzC47pV8YGBi4Osg5cVsrAu3t7e8wDOPe4bTPZFRxoZR+r1AoYNWy0I8YYNUf4mYAWN3d3T26rv+TUhpqKpuIZnF4nK8XCgVUHo3XG27S1dV1jGEY+IVFqCki7LMvISfkcjk0+q7ppnDBggUT1q1bh192hH1sppQuKRQKvwp7oDD7xxS2ZDJ5FSHkM2GOI/smhPwimUx+JKiJeBRzi3oMLIQznKKyPGzza2VdLw/H/4Ba0t6aBGBhdgB6Fr43omv5Y8MwPt3X17cuovFG3TDpdHofQggC6YPCnlwMsIJF+J577kk8UnzmZCDwLUpoi0ENroqSyYFmup+iolLrESLgYlUIObzCuz1eVU8oq0SKIPZnGbdLNZZl7s7+rivpcRyTWAomF5ERa6HiFHmjzSNge0ZAORkb/ty29Vvg2dsego1PrLU+ualqLK9Q8rtvfmgALdNaYfbhWZj33r1h4szJsp6cNQ2mNpMzktDKAdlkeqAybVNA42BG/Fdp2l0+SYd4pvqGMIU4rjow1/Prw1iVoEAFXBCQJKjN7ThUPOO6XKEmEttPbkPnRnOdiiSxyKpws+sEdr4+yEzd1z70EgxtHuD7DJkTe14AH6a042DIE2K1Epi473TY45j9Ye6+adDwDp15XwEQrXxPyQiriLRS+Dicw6vKW1m8VPzEh+JISWxMU11FcSriPAm5FLWWLX3QtHK3VFuyYiGrUKjALaba4qR7I6FwyrUnXflbvyqsgFvFvsfT6fQ0TdN+juqa6q+ehrVAk6/98/n8vxvW4zjrqLu7e1apVPoLAOwd1dIppa9qmrZPLR+Yg84xBlhBI1bevhkA1sKFC5O5XA4B1iH1r9hXDw/quv6R/v7+Vb5aj7FGmD5IKb0UAC6K4guLGGBFvoFQQXEiIeRW9JiLYPTNiUTimDVr1oz7NMLu7u7OUql0HwD0RBB3HOJXiURiyZo1azYHHa9ZAFY2mz2XUvrloOursX0/IeRkUaym3vu+GqcwoqeRdDp9OiEECzNMD3smMcAKFuFl9yybWiqm7iQE3s9AlPgfB04cu1jKKv4sB1SsBbsDl4/hz6anldmOe/RIIIY2QWYioumv5QJhJNBxUR4xQYg4xfaCclIuRVniBcB2vLIVXvrF07D2n72gby7yXr0USepdMf6cAph9SCfsenAn7HZAGpIT5Z9GXqaO3+ers5XrlL5HLteqrFKgBb5sUhDXBfm8ba/4LlT+5Ei8abmriRzx8rncSs1sa1Macp4jK+l5vaas5231BwTIokxhRaA0oMOGZ/tgw5MF2PB4DoClDgr1lVQ0sa9iuZG59MMyt2ISYOaCNHQu3Atmzd8dtBT6sIm0UFFuwSYsc/rEiSfl8uxgz31tZUI102DdbuAugZa9QqGsWKiqsSQYxDWW+1+ZzwqIJaGWVHQBkK9N2pa4aPmZy3198exza7gvPpPJHAEAmPc/Idjbae2tCSF/zeVyb6v1W/naRx47Z+K3vYlEAk330T8oyuPsfD5/U9gDxgCr/gg3A8DCVXZ2dl6padol9a/YVw+vEkIuyOVyt/lqPcYaCfD9AADsGcXSYoAVRZTtY2Sz2cMppXcCQHdEo383n89/PKKxRu0w6XT6HEIIVoCU3/mHPdfP1VpYpVkAVnd39xtLpRL6YIXukSg+j6J68epcLocphePqEH8brgeAJVF8uREDrGDb6/y7Lj2IUOMvoMFkrprit80cYCkm7axb1YAdlVf4GG8jgRdDXqLSoOVvJVthhpVUd1kqLG9W5YqpzAXa4RU+XA6L5HzsEiyR8iVSJYsDQ7Dx+bXQ98Bq2PT4OqCDlYXd2uQkzDqkE2a/qQOmzd8VWqdOBKJxFY1U0Jg+2GK2TAnDoJMyaxXO2bIYnX5eZie2852pXlWvvFPd5Unq7Ayvar/VGtRBwOwgwoEl3CiFy2MWuKl8gk2lJZpaZziSH82tprQwDeF5GijlJTaFGgtgcPMAvL5qA2x8rh82PJ4HY1sJ7eM4KMMKf6bRueV8hlUsdz9qD5h1YAdM3LWdpapqQnnFT5aDVviA4ARzntfLjricrybc3dJcHZ/jXlccViFwYtDJTIkU8Er4ZeFzUmUmWtrSBc0UQumVZSq4sDWj3n2tJbrgqo9etbbadpPvBH7aubbJZDI3A8Ana+6ghhN1XT+9v78ffW/io/YI4Ldl7wOAHxBCoqwc+eShhx568L333htqClYMsGrfGPLMJgJYh2ia9q/6V+yrB/wT/UM0jo9CSehrRhE2ymQyWJb+W1HdZMcAK8KLK4aaN29eulQq3UQI+UBEow8kk8n9Vq9ePS5VjRjjnp6e1mKx2IvWrRHFfDsALMrn87916BB8Dd8sAGvu3LkzEokEpiNEpdDNJZPJw1avXr3BVyDHUKPOzs4jNU1D/7a5USwrBljBorz07stuoGB8mkMoadwuPaoEwBJphQxMMd9phFcidVBAEEOzlFqmabvpcyUAlmnYzn9nTMesLmjN2y/vKGtnqpIczyBNEuzITMtjw1kPInAoDhZhx8Zt8FpuE6x/sgCvrd7AVFmkVYO22ZNg1j5zYOb83aF9t6nQMrUNEq1JIESzpQw61S12oZSZq8cXq/A5rn5zHGWErtxByitW/PEyYqUMYD3npU7zvZPqkrv4HsXhRVSBVLkFxeI8YkA1lva+nCDLfJYRHTeQpWIuhSkhlMT/EGLhi0dHmAWgD5Rg8PUdsH3DVtjwRAE2PdMPxutDzEMLcU37zCksJXXq3rvBpN2nQGpyCyRShKUNMrsrhKU8j08WRRTJf86FSwqnrM+NjarcinUhXarMUJn71TJyFz5WqKZCgCV9rkR8pJE7by+8swSUwhiy9EBm1C49tSyEZfpoiYRCDc3mWIYy+cR1i6/8tp8dU/OW3G+//do3b96M+f5RGCjLtWxsa2vbf+XKlePWZ8DPRfXTJpvN7gUA36aUHumnfYPavAYA/5PP5zF9MbQjBlj1h7ZZABbClEwmszrCIhIbRPW0P9Zy81f/lRmZHvAme2ho6BlCyB5RzSAGWFFF2hrnoIMOSm3atAnTRC8O24hZjkopvWPevHmn3X///Wh9Ot4O0tnZeZGmaVdFtXBK6b8opR/r6+vDipOBj2YBWEJpfsWwDQ76FkZ1XJDP59HMfdwcIs4rAGBpVIuOAZb/SF/w/QvaSWLCWiAwFdVW6H9l876SlQMF6OGVCctN3Z1m7KaHlvTSYv8SYQov6+4Jw3dluq7pXB6ExjPRTVEyWQoSd5Cjgoqy/syT7c8YRnlqoPNmWTAAO5ByBXUKRFIvm5O/eVxSS89VAflZjUQvypg13+X732NhtAysysJJyGWXgSzu68QPb5DFnuEiIn4IEmo+zr2a7L2IPcTSAikBQ6itWOFOhFnC8NzsTvQpxHxcXMVd0gEL8CHHwWKG+K/LdG3zt0E3R+OKl13MGafiFhUWAkV5ZaYQKkorS5llpRJa5u8SVAmIpRi5c4UW/r+AYvgT4SmHeD6l5PF8yxsPvXfRoqpCl5q3diaT+RgAfDeMjVuhzzva29s/9fzzz2+LeNwxN5wAkPjh7tNR3agM3xShf9nX8/k8ftCpujlrDXoMsGqNnHVeEwEsNOvFmz+84Y7quKOtre1/V65cuTWqAUd6nEwmcxYA3BjlPGKAFWW0rbGy2ewHDcO4cbjCZ2dEM3gtkUgsWrNmDdoRjKsDv0gyDOOPhJCOiBZOKaXf1jTts7lc7vVaxmwWgIWftdPp9PuHoftdADC5lrUGPYdS+h9K6cHjycxdmLdjdd45QeNVa/sYYPmP3NI7Lj6daonvcBUUB0q6VFspXljM58qEWdz7SlYnlIbtarogB1hcXcXVWNLAnT8mUxXxX/NGU9z8W/Y98oHy9bjjGsejCA0U2OAJvFy/bXSAJXY3L9LC2HQU9YsyPaaysVu482e5sZFyppDBqI8pE7RrfNxn7qLXUgewARv7Ew1ODxTrrwYMKiA2/xvW0bIekGWBJ9mpjHr5Smz71El1VEWWUPp5xkJ6Y2Ew0OjdhF4c3ODT7KUoQBlTW4mfGdQSIMsJ2mywCreW6wQqRsuKrIN8mfNRXifI1EwMxTy8pME7giaRWijaMON3TI+UKYYmADOTDqVRO1dqmT1rkFDUWexlxLau8ebrT/rCg9U2TbX96Hq+kLz/HgCOqjZAA58f1DTtzN7eXvwwEhr8aOB8R31X2Wz2eErpDQCwW4STxbLdS/L5PKZMhHLEAKv+sDYTwJo3b97Buq7/FQAm1r9yXz1sIYQcn8vlfuerdZM36uzs7NY0DSvsoWozsiMGWJGF2jYQGooXi8W7CCFRqXPx7/nPCSFnjafU3Pnz508eHBxE02v0AIvCNB+v8+uEkGW5XO47tSpImwhgQTqd3psQgukIb47w1XRTPp/HSp7j4XMqQsJbCSGnRBhf9J65vVAoRDpmlOtr1Fhn/+bs1rbXp/6eAhxlWbcL4CTSAU13K8VsXVq2cxAl1Vho9SN6Ealw+Lv8j+Ex5lmtgDChSHKCDf67RXbcbkS9YJR7XzZ+JMLHwZlsb1V+k3fJIleS3THjrbfARc5cOxfDdWX25lj8MUfullBGWcKgyiuVcWH/etEgdVHmRnHAuIAbyCf2CNirs7ntqgfuq1aQVRZx8YA0FHefiIinAEtWmMsBmDtEsdJZrf5FS5W4SniFWxLBFTa2qces3s3Lbs6/rGdX+0HPHadALLc2bOm2VEEBsViqIPfDEtUDTZ8rW0qhCaZQXSWibZq3S7CFIIxLzVh/mG7ICB/ccv2Jn0fLkopHTQCru7v7iFKp9H/D38jPqDZAA59/GgBOzefzjzewz3HdVTqdnie+nTw8wkCsJ4Scm8vl0C8hlCMGWPWHtZkAFlZDJYT8GACwuENUx+NtbW0Lx7oKS6SUocINlZotUQWX/R0n5IRcLndvrQU7FixYMGHdunW+qpnUua7NlNIlhUIBId9YOLR0On01vk9HeM2xQMIl2Wz2O+MklZBkMpn/JoTcQCmNSumGe/PJEiGnrs3lnqx1ozYTwJo9e3Z7W1tb1ErzDeL9ANPMx/SRzWbfRSn9aYRfHrF4xgDL37Y6787PHa4R8iuq0Rkyqc9gxdG4gbmZFih9sdT6hEyRZSEVXnmQgoHG1cLXCguwqWCM+1kLJZaAXfaZIiaSh/WT80bUS33lwpY46XE9QVFEobLKMa4UwciHcQ5sbTww5YecpM2IXTRWy9PJ880+vG+zuYZNOWTfXqd4rLMW5ZMdjfjbT41tVRvQ8px3FZrBnlYDJWkRtx0vWxoHRgqQtDWRqYQODOaEixzG8INS0BTZlH178IIDfI5CsagApvLJ8SdlE2UpwSCW0ov6CrFeExxWmf5WCKAYZHL6YYl2qMBSTOqZqTuDVqLeIEsVtLyy+Br4s8wvy/LPyms08ZZrl6zor7TnagJY2Wz2GkopfsMU5Q3NLZTSpYVCAX2U4qMxEUD/oBsppWcQQpKN6bJqL/iO/fX29vaLw0oFjQFW1WtQtUEzAayFCxcme3t7zwSA0Ctcqh81KKXXFAqFi6oGs4kbpNPpY/D1GqX3lfnHMwZYI7ZzstnsYZTS3wDA9IgmgZ/nHtc07WO9vb1PRTTmiA0jvjzC96t3u37iDGdmOqX07kKhgPYPopZ88IGaCWDh6jKZzIeH9/HXojIYF8D9t8lk8rSxbOje0dExXdO0+wkh+wbfRfWdEQMsf/G74M7LPg+acQEF2ipT/bg5O4OAohNRiVCmAmJ6obM6Ib8PLUsNxGqGsj+uzhJASyq1rDthc8JO9ZXbSrzUV2pbs41QOdn6Ma2K5Jw4vDAhgfpBTnIN6XuldqTeIYsB5RrL8yLtnXJNV/lhrV/p0LwSFf4alHXWYABUYUsFBQXBgJpnomTFTV4LyDLPkRO0k58ykFUGsXBGTrBkptqJ6SqgUy5AwlKeLmjhMrwZllZXzAhenMvUT3I2ZdDNmoP7dXGHca7BVNZSFhv+JTKblEwnNNMKmQJLpBIqlQSZ0opVKLTSD1FhheCOYLKggGEcWclYiDEE/BKG79sIJZ++bsmVt1baBEH3Jey5555zd+7c+UMAeIu/t9CGtMJvuJcVCgWsgBUfDYxAV1fXBwzDuAMApjaw28pvPIQ8UiqVPtbf3/9MGGPGAKv+qDYTwMLVivniPt6z/tX77uE1Stnr4tAAACAASURBVOmiQqHw51rTcXyPNAINM5kMVkX7MgAcH+FNtrnSWIE1AhfdGhJTg/5ECIlS1Yij35JIJM5fs2bN5hFdfYiDo+k1elCh4iyqip5iOVsopacXCgVUNdZ8NCHAwvcxtJ5YGOH7GPq0Lp85c+bXHnvssZphYc0XKeQTUZm7cePGKwkh+EV2a8jDlXUfA6zqET//7uUzNar/iBL6NqmSYuooBrDkIxxkyd+R8qA6S1YrNNVVasogu+Pm2iF7+qDleyVTDZU/J9aPDJyVwxt1RdUAFrcZErevbpIpCec87nDZDByDWEBPvEs4n8cJllURLFd/ybQq5xrsmMaxfssb3P3CusCrYJBIdVSqfNsfGApU34qe2ZD2U+sBco5ZV1iE7SlJlhQFllONJRlXGWYrg18e1Qv5y0X9XGt7WUiAVTmMNq0Va8rEXFKtVXayPQCe4TC75VU2+a/2nSWN2bk+SqixZHohZVgKCKrLmE+WI1WQIPziBu1Sq2bZu8ufpMLL1GBhX/gmdO/EuYklK45e4VncJ/BeTafTx6LsPcJvszCi+I3saXH6oI93ioBNpk2bNnXKlCkPRexvM0gIOS2Xy/2o1vSgSsuMAVbATeDSvNkAlvg2GNOeMG86UX8EfPWA7/R/03X94/39/S/5OqNJGu29994tO3bs+BSlFNMHo/IWs0UnBlgju1nQABsAfhahOhcXXKSUXjhv3rybxmoqYWdn5/GapqEHVSTG4souenLr1q1Hvfrqq1vq2VnNBrBwrdls9rOU0ssAYEI9aw947r8ppecUCoX7wvicE3AuDWsuFM8fEF9uZBvWcYCOYoBVPVjLvn/Zu4wEvZkSOs8EWIivRCpgmSeWuHE1axTiPSS2lYBLVVsx0IUAi0Msbg7P/a+s/pU5irtjG6KoQGDsT7k3NLmVq6G1XefEfxOeVy6hs8EJG1sSv6isTJ6vEDAb9HAwrXJ9kaOEYrVvP23Lt37xC7D41GuFVoERgeOiu+/T6nP3r8qyZlgDxFInUuaK7pIeKNMKzWXZyx2yGZh9KrtCTk1uJ3cHdpsxO1cxycP6iW078aT31VGBl1JEwe1yKCDOzIRVOpZpfQioeEqgSB8UPliWKksxZ5dG7cL83XLM4imIZgVD6ZPF2nOAxf+fQa0nDKKdcv1JK9A+yvUItDtHyE8AjTDv0XUdFTsD1d+24xZBIyBSQi8Mel6d7UOrKBkDrDqvjKVougUA3lh/b5V7SKVSPatWrVpd5zioGJFwPbJqSACA70m3pFKpK1atWrWxzjWMmtOFtwmaH6dHalIxwBqpyPNxEWJu3779fgBYEPFMUCl0VqFQuLPaZ/uI51X3cF1dXcfouo6m11FVHTTnbBjGJ/v6+r5Z7yKaEWCJlE2sctlV7/oDnI+3Gn/WNO303t7efIDzRnNT0t3dvU+pVML0Vyzy4E9A0OAVxQCrckDP+NYZqWmTZi+lAJcahLZJK3aEU6YRu3SvYkCLq64YrBIVBVXVFt5RirqEHGqJdEOpwuIKLmHyLtqaMyy7y3SojxxLKYcbFR7huZC2HiT64FjN36Gqr0x0os7bxWbL9ebZ5o/ltk47EMPZVZyjC7zyuyY3XycZjfK51wq43ONbfY5+ECWPTvW++BxcQVaFZdmeUqCTozMzrVDhPI79Zv1a1sYNZsnUvCpbUwVYNgipTtzOzxw92hfvGQrzCaWFI+gMLLH0P+FZJc3YGXjCxxE7CdN3p/G7VctQuF0J43bT0F1UL2R9KPosSl4FCksrpREGAliiogt+c3iEv7eFhrRCKfZn8vk83kzHRwgRENf12aqYvrFjbwCAw8OoRhgDrPovVLMpsHDFPT09uw4NDd1BCHlnxHv51WE/wKtTqdRNq1at2ll/9Ee2h46Ojv0SiQQWWdh7JGcSA6yRjD4fG43GhyE2FkiI+kY1r+v6ef39/WgQPSaOzs7OIxOJxNcppZF7BgHAakrpIY3wEG1GgIV/D7LZ7BfQiiLizcQqbOq6fvJY+AK2p6dnSrFYRCuP/4mwcmbZJYsBVuVdfO7tn5ubSGk3EArHcjglDNvdUgRNZZXEXFZKofWI8L9SqgzyaoOW4gphlg16OaZYBiI8yEQwgOUWB94DqsPMw2UsFXS5YiTHOVz4gp26T1xCMPNZZzOn0XsleOURLD8wxwY7akAagaBAgDdT77lbz1Rq43/tOCnHKjwW5Q4hbfIjc4Uyrh7iKXNX2Pp0G0BAIJRblT3tnLatqKVLZ+Ih9+UFBVh8qW59mWBJKqsMoakSKYRMlaV4YZkwS9q3cwM9y6pdpBSqwIp5ZZnOX0ylZVAwbtYmFS++9oPXbnXbakH2KlbN+dCwx8zdANAWYN/W23Q9AByQz+f/U29H8fmeEUAz979H/E07FdUIv9ro6xIDrPoj2owAC997Ozs7P0oIuZEQMqn+KATqAX36Pl6vv0ygEUNoPG/evLSu6z8DgAND6D5QlzHAChSuUBrPnTt3RjKZRM/Ld4QygHen+Hl1JXrs5HK530c8dsOHS6fTB+H7EgAcNgIwENfzv/l8/uZGLKxJARb6t87cuXPniwAwrRFxCNAHQqy7u7q6Tmv2tNhMJoN7CNP0UwHW3/CmMcCqHNILfnDpYWDAnZQYPfzGX/hTMZseobZiPlZcfWV7xFRYCbN3ea6sMGh6ZhELYLF+pQcWTye0HbK6n/qgK1RyrssDFnktX1Fjyfp+rnhEzM/me8XDVHaUm7G7qIfEuGXwyl3mI65IhWtoG0JeweovIy94VX6j7+eR6uPV0sLPFfVqUzPEqkA6PCMhB3OBRMzc3GWnWA+5biTbGQxfyW5Yc3fNHPvm0BxOGVeZn/fyrGc82zihmcvaZCVCYbDOpsM9ryyzefTCKvfB4mor7o1lB1g2tRU718JXMhqEkr+XdDjjho98/t9ue803wBLpg+h9hX+8ojzuyufzS6IccDyO1dnZ+UlN0xryATdA/J7O5/MHAYCnSVuAvsymMcCqJWr2c5oUYKHXSRulFGEs7quoj0EAOHbmzJl/aELjXjJnzpzOVCqFKUbvGqGbbPsf+LgKYdT71208LZvNHkcp/V7EX1zJuTxLCDkrl8s90KQ+Qqj8eROl9CsAcFTEylAWQ0LIM4ODg29/+eWXG5Li3KwAC2ORyWQuHvZIvHIE3t+GsEru4ODgZevXr98+Gl7YQeYwZ86cialU6nMAgPEb8SMGWN6X4Lh7jkukh96wRAN6q6EZmuV/xa3XuQG68j8GniTEsgzeTbN3Aa5YK5Y6yGGV9a9l3o731Pic8yiDSFzOVKGdfErpS/zI/nElGVxTZQG76u+2DGB5QCt1cs7525CSfFLtqmxtLtDL6xKGCq98qnLsn8RqfL1Xx00+dopjbH8pha7YphaIpe41Z7pemYLKHRa5zlhCsWpyLgVqWRJ4J3Hi+7wuFZYZZS8EytMHTZWV9LEyUwi5/5WEWqbHlahWKAGWxizfca5YwdBKF2QYTKYnyjRCVtGQbElo2qJrFl/xB7dXvW+Alc1m0azxb5TSzhp3cy2nUU3T3t3b24uTj48QI4DX1zCMRwghM0McpuzvGqX0rYVCAYFDw44YYNUfymYFWLjyzs7OD2qahqqRKJWiMugbNU07v6Wl5ecrV650lb3Wf3Ua3gOZO3fuHslkcsVIp4aoK4sVWA2/zjV12NXVldF1/WuEEDR1jzqVEOf8gqZpF06fPv13TQaGSVdX15GGYWAhhCirNqvXeYBS+tlJkyZ98/nnn0eIUvfRzACrs7NzjqZp+Hlyn7oDEbwDVOl+I5VKfWX16tVoodAUR3d396xSqXQOAJwXsQm+Z3xigOW9dT51z+WTJgyVbiRATpF+VWYqoPCushCWhFFSg6UCLKnOkm14yqDOsoGkD5b6nEhTlACrnD1Zk1aes4lQbMsqVx6pgMoGnlgnZZisPEjqnLxM2B1nWXzKGt1sojwkRDQuFyZceOVPdRUEXPlQ7fh456oEp5ynhwGygkCsqvBH3a+yse0kqZ6qHDsnzDKVXFVIjPl0mbTRIlfyg1l5V97X3lyWCxNj10iCNulvJUCThE/8X8XUnamoZKVCXpVQ6qp4W6UaoQKweB/8OQ7JpC8WA1uXDczYfO2N772xzJ7FN8BKp9NnEEIw9z2yg1K62jCMfceCd0BkQatxoPnz508eHBxE0+YTauyiptMopd8vFAofrelkj5NigFV/NJsZYGF6QzqdvosQclz9kQjcA/5N6MNKrYZhfK8RnjOBZxDwhGw2uz+l9FIAQEDREvD00JrHACu00AbtGFPM8e/C9QCwe9CTG9T+ZULItcVi8ftr1659pUF9htZNR0fHhGQyuQgAsPrdXqENVL3j+3Rd/0Qjq6Q2M8AShQnOGP5y44sA0F49fA1vsXnYrhGLE1zVDLYYPT09HaVS6QJKKX5G26Xh0aixwxhgeQfugu8vnwWk9E/QoJsnCaIBO5q3yzQ/K2FQmq9beiwnwBIeV6wPocBSUwVN43arne0mXdxhuiqWHEvwAzxkWqDJqlzUStitsy+35Kyy9EGXkHI+5Saxsjf21hr5WZXoqwbllRu8qoRQKoEa3zCgxtesPK0SZgwGsqqrsRoKscQCyir1lQWOwxc8/MRUTUf0WpGdlbn0KjhWVRBXaU7myWL2jovB4ZJl1M6rEorfgUACfzfBk0gtVACWmkYoKxuaGixRhVAFXoqd+5+KQ9pxN5y64nXn1vMTX3Yd0un0vwghB9e5d4OefnU+n0fZcnyEH4FENps9mVKKECsyfwNKKd7sH9VIM/cYYNW/WZocYGEqIUKZXwNAlBUJ1cDjN+z3EEIuzeVyZW+89V+hxvSQTqc/oGnapZRS9LxKNKbXxvQSA6zGxLERvXR0dExPJpNoQI5QeKT2yRYA+Aml9EuFQuG5RqwrjD46Ojrmapp2NiHkVACYFcYYPvt8hRByyYwZM25ppHKtmQEWxq2zs7NbmOljqvRIHJhq/hdd15f19/c/MxIT8DNmJpPBio3XiZTyqD0lK04xBlje4bnwrsuONsD4I75PG8LvSkFWDMhIA3ae7mclEEofK/aoMH/nVQs5/NIFxEIhiNmnMHKXKYVuN+HBAZY7EioDWEoY8GbWGyQ54sXS/ZwoxQOfmA+LH9S7ZvGQX4Dl2S5keOUFNvwCAD/vF0Hb1AKy3K5QtWteH8Tyg4Qcm9C9HqKnx5XNC6vyu5541h1g4ZPu8nhvBZY5nJ2QuYI3BrDUCoMSTgmQxYGWVE8JjywlNdACWCyBkKusbCosrt5yGrsTgM0JSBz4xcUr1jjD42v/CiDwYMQfXIdSqdSBq1atGrUfVIO+YEd7+87OzoM1Tbs94upj6AdxYaMMZsUH1EM0Tfs+AIT6zTchpM8wjJManQI5GvZJswOsnp6e1mKxeAEAfH4E4zlkGMbjw0pSrEC1agTnUTY0xmdoaOgzhJDzAWDX0TQ3OZcYYI2uq5LJZBByoqF6lGnmziAUKaUvEEIuyufzvwMANMgeLQfp7u4+sFQqoVLt8BFKYZaxwM/1vyuVSic3WrHW7AALPyOn0+nFhBCEM7NHaPPgvXgOAWMul8N092r3YZFOM51OY9GGmwkh8yL+3O9rnTHAqgCw7r7sekqN8zlk4pjJBpvwNwFwLON1pq8S/lUc7SD8sqAUKyImPLAc6YNCkSWhlnNmNniFT7rsdD86JRfGowxljVLthcRgHDVRmHsgVTDF7pIrT9p9TD+rcnZdFi3X+flVXjVCceVuLV79ZVpdH8X78AJZXtELE2L5xVUO3mMFw5ycuEIVCYt1Fd1N4e0xtsMpR8fKrxzkOqNUDrHKrqutj/KJ4yMmcBJ+WHavKwRcso1MI7RSA9n5hkwSdFq4O1IHpeW7SCukhJ52/Umfv8256/wALDQhvZlS+onqW7ahLe4bNh/9n9GsXmjoakdBZ3PmzJmZTCavI4SgXNzP3mjErCml9JelUunEdevW7WhEh7ECq/4oNjvAwghks1kEmN9En7UI97Nb8F8xDOOyVCp115o1a9AXq8qnp/qvn1cPCxcuTK5Zs2ZPvHECgA8DQGt4o9XXcwyw6otfGGdns1lMiUMoPFIqLLmsIUrp3ZTSzyUSiVdzuRyqWkbkwNfUSy+9NDWVSn2cUrpslKRabaSU4pcrf2p0UMYAwAJRlOg7AIBpniO2lyml2wgh39Y07Wu9vb39IwxkE11dXQinzzEM4zMAMLHRe6dR/cUAyz2Sl19+ubZjD+NZSugbLDWVorhS1VasAqHQX7EqgVb6IPtN2r8LtRUzcJcG8IqJuzSFl885Z2ZDMh50yQ/qcQqh7OOUAyxPFORQXzkoCu+WrVM9vAFW88ArN+xVvo/8tQr6Sq6Ms/yrsbyuanVc5roubzGTY4HuQEfuFa8o4iYqO9N1TNWF3f0KMABkDuQ9cT8QzrWN+aD3DpAm7syGXcAqNY2QqbBMs3duzK6atXMApoFGBMASii6zPqFMQZRG7kL1BaD95LrFVxzrjHNVSJHJZHanlD5MCInSvB1v8Ja1t7d/rVHGo0FfbuO0PclkMp8cvqn9AgBMiTAGLxiGcWZfX9/fGjFmDLDqj+JYAFh4Y9LV1bXYMIxrR/CbdnkxBgDgtwBwq67rD/b3979a/1UK1AOmCO+h6/pCQsh5hJA9Ap09Ao1jgDUCQa8yJFb5NAzj54SQkUq/st9WUIo3/Qgifr3LLru88PTTT0dW4Q39lAYHB7O6rh9JCDmbUvqmUXLFDErp9aeeeupFK1asaDgsHwsAC6+TUJz/YNiTqmeErxter8c1TfsypfShfD6fi1qRlc1md8MqmeKL6jdHaSNRS+xjgOUetaXfu6QbkuRFSqjGKwVKDZb0v1L0WFI55UwhRJglzN5t1QbFY5aXlgBaZlun8kPeXiqIp071FTvdVjhQduhPucTPdak86HInXAmqqHTLD8DyVIXZnggOYcp1NSZ/cwUwXjf84UAr9z1aaZX+1Fi1QSxX+OMRkAq4yh0hVSBC5lNem4CxK88ygrYgqtfJTUFlh1zqqV47xZ3TUdPFyz5p6V1lVRy0TNwlrLJSCfm6bForE1CpAEsYtsuWqm+WZei+qZSalv7KovPwPqoSxrMvKJPJfGz4G8Ubhg1co8yB79c0bXFvb29DgEYtfyDH6znz5s07xDCMWyil+0YYgx2EkCtmzJjx5UZ4dcQAq/4rN0YAFgjvnquGvdbwfSwyb7cKV+A/wpvrj0NDQ39pVGl7r/FQHdLX17eXrutvR8UVpXTBKIlD1U0aA6yqIRqRBsJf7q6IU80rrbUIACsxZW7Yr+fBYUh7f8iAONXZ2Xl4IpF4C6X0nQBw6ChTq/xZ1/VFYcVgrAAs/EI7m82eQin95igpXoEfzv9CKf1FKpW6b/Xq1ej50XAAqb6Q5s6d25FIJN5GCHmP8LqaNiJvKgEHjQGWe8DOv/3ST2lJ+LqZGmgCLA6lnOmE1iOovuJqLLxllYbt7HmhtmIKLKnaUn6Wflr8TPvhCiTkg+Ke2vMsB/fyVmBVRE0uc/LESWbbRqqvooRXXuClHnBVVeXi8dr1E2WvNm5X1O2auO2dauOWwbpGQKzKkqbK6Uw4YQmxqrwPVsRQgl75gVjVr6k70mR9KxUCVVN3fC6h+GRJQ/ZyBZaEWuxsRaFlVTC0Eg2FVxYQfCc76kuLr7IxoYrrQJn1hAkTbqWUonQrsvLZhJCfD6cFnLN69eq+gH/X4uZ1RmDOnDkTk8nk9zB9M8prDgA/LxaL56xbt67uax4DrDo3AQCMFYCFkejo6OhJJBI/AYD96o9MQ3rAP1kvA8AT4oblp8OVOHsb/K076ejoeKumaR/WNG2BqISGX0JU/9vVkCXW30kMsOqPYRg9HHTQQalXXnllCaUUPYRmhDFGLX1SSkuEEKxW+Dyl9FEA+HOxWHyoQanp2rx583pKpRIqz95MCEG1VQYAJtQy1xDP6TUM4/i+vr5HwhpjDAEsTDNvQ7UaAPxvWPEK2C/+bcCiH7iH/0Ep/XEI11Lbfffd57e0tOBnvIWoHCSEjKSvXcAQoYcRvb1QKJwS+MQxfsLSuy77OYDxQVld0FRg2dRWouag+ZhopbRhEAt/d4Aq6zFL0cUf49CrIsDyIAvox2Ue7NOJez+2draBAgIs745cAJbLpMVD3qCkKv7i4yhELjB0MT/IueqKxDq83auqKa586nUqvJp8xsDVr8kRnorJnO4lAyrFs5EAC2dqxqrsk3Wla1MeOj8+WFWvC4Iwt7RFNpzH2c55s9+9d4hVaVBRXwmwJdVXLL1QqKdMRZaYAz+fabjMNjallpJGyMzeRT+UJK66/qTlaH1if7vw2oVz585dkEwmUZ6/T4Tv+zuHwckVhx566DX33nvvaDJojTAEIztUNps9Eys9RVxmer2u68f39/f/td7VxwCr3giOLYAlvmk/jFKKe6ul/ug0rAf8O4vePXjD8hQA/FLX9V/09/evrWUEBAubNm3al1K6iBCCypCsUM6OBuVZ4CXFACtwyCI7Yd68eVNLpdJyQgje+I+2/YWvq6FhGwJUtLw8/AXcswDwQCKR+Ov06dOf96vyRfWmpmlv1jTt7cOqyUMAAA2tMbW+LeIvd/xe1+2GYZzT19eHBUxKfk8K2m4sASxcu7DJ+BEh5MigsQixPe5hVBZuA4CXCCG/13X93sMPP/zftX4uzmazmO6KX2i8T3ymnyo8EJvmSw0Z7xhgle+8s++8fEobGM9RQjus6oJ2/yuuwFK9rmQNQrv/FTdsFyburPIgT73jPlhWVUJTqSWed86Kg4TKxKcS9pJnK6zHMUSY8EqZuzpqxeX4BDe2ZpVTB91QghONuCmvvFVX3i/3qoCkpjc8f9fIKwq2PSTGd/botoeigljeAAsnWw0V2gNaDWK5XWdbDyIT0f0K+7y6yoLc+uHVCNUqgxbIUtMHpV+WxozYBdCSUKsMYKFCSkk2FGmE/DGh+qLaQ9cuuQIzSMyj0h8uLZvNfloYtkZp5riKUvqpQqGAZWDjYwQigB90hlMj/gkAu0c8/KWpVOq6VatWIcSs+YgBVs2hM08cSwosuSgBZr86mo3L8cabEJIHgOcMw3hS07SnisVi74QJE14pFos6IQSLHhBN01oopfj6nG8YxgGoCCGEzB9Oh0Evk6a7IXHbsTHAqv91HGYPXV1dGUrpdyilmJ4amUK7zjUh1PrPsOIGTc43a5qGnlkICvBoNQxjsqZpM/C1RSmdQQgZMYPvgOvENXyLUnpZoVB4LeC5gZqPNYAlvuBA/6dbUXwcKBjRNsZ0Qty7LwDAk5TSpzRNexFVh4Zh4N8N9rchmUwmdV3HPYzAdX8AOECk+6KP7WiDzTVFMAZY5WFbdtfn3mqA9nMKdJo9hZCrpWSCoN2sXVQptKmvBKRSjNo5qBKqLIaynP5X7vihGsByhwzlEIg94trYHxyR0aKB1FcugzZCfRUAXuEMnDqqWuFVJZTiVytU7Y989XxnNxxl7WW/EMsNEzofC6Rq8/jEXBUYiamPGhWWmAgHRs6jUQBLVBiUXlVCbaUqs2RqIf7LHheqKlOVZQIsRanlArC4O5Z5/gZCtYOuXbICfU/Z4Xmj09nZOSeRSNxAKT2upr8wtZ2Ef4D/MDQ0dHLY3jC1TW/cnEXS6TR+IxnltQdCyCMtLS3vffHFFzfVE+kYYNUTPX7uWARYovIUGrqfOgpTf6pdNFSj4k0q/psUNyLVPk9U63NUPx8DrFF9edjkMpnMEYQQrPQZpWfi6A9MtDPE9wT8wu+8fD7/77CHHoMAC3p6elqLxeLpw7FbDgBNlU4nfLLwbwOq7hC4IqRqFvBa03aNAVZ52Jbedcm5BMjnDaATyzywZPVAocDCPCNTjSV8rkRioUNpZaUHcoDFEwWd5u78XPtRhpZciEI19RX2yNHbSAAs7wn7BW+umzsAwHJCp0bDKy9wpYKBWr8NVZfpdZ294uj2uBN91QuxyoBeHRBr1AAsQXX8ACxPAORYjDMsUhHFFVaiGqEATc4qhCbIUgFWme+VBFROBZaiykJJKJAtAOQj1y++4hfydVUJYB2padqdw1Wz0jX9hantJEynuTqfz2OZ7moAtbYR4rN8RSCTybwXKzv5aty4RsXhipfvKRQKf66nyxhg1RO9sQuwcGWdnZ3dmqZdAwD/NVa+ja7/ao/OHmKANTqvi3NW2Wz2XZTSb4xy9UpzBLO2WT4tVOv/qO30YGeNRYCFEUin09M0TVtGKf20SBMNFpi4dWQRiAGWPdSX08u1gbvorZTQJZTQhIRRnh5Yiv8VN2oXSiwBohigkpBL+FvJx1BlYwIyRZXlvPjV1FfuTModdbgDrIjVV2LC3jembkjFERUHvHKPAT+nGryy2sgx3D2v3B710uLIx93BgF+U5Y0lvSLkDqyqY6/qqivv9MwyeBcKwHK7kpXfJqulEdqvu8uk600jrAKwcHzXKoRMbYWm69zMnXtxcZN2m5G7pahiPlgsSZCpuZRUQ1sKoanA2kmAfPHaxVfgl0zKa8QRTywPvW3btnMJIVdHnBrwCqX0XYVC4bHI/hLGA7lGAM3cU6nU88KoNrIoUUrvLBQKJ9czYAyw6okeP3csKrBEVLRMJoNpFV8HgMPGSrpd/Vd89PUQA6zRd008ZoTV3D5IKcXX1JymmfXYmOhaQsiSXC6H1XmqZ3A0YM1jFWBhaLq7u2eVSiX0/1zSgFDFXYQUgRhg2QN7wfeXz9IS+g8p0KOlgbtUWEkQZUEtqyKhcMgSyipp7m75XclUQel1pfpfmc8J0OW81I0AWCOnvsLVOACK+NWP+srlbB4e82SnnsgevTJ1UFXT9lrgVTnGqjntTEy/mqLOvJ625XrHwomf3JBl/RBLWbU7D3Js7Qp4z/UpL52b+5tjMICFfTgGFb+6p2d4JehAGAAAHF9JREFUoUuvJXrvK6m2stICrXRBDrgsgMVTCMXvDGBJtZVl0q7or7iyy8RbZhqhAUB+snnby4u/fea3me2Da7jxmyg0FCaEvDmkvz9e3f49n88vFGkyEQ8dD+eMQCaTwXSrpVFGhlK6o62tLVNPGmEMsOq/YmMYYGFwsKLYgaVS6eeEkLn1RyvuIYwIxAArjKiG06eoTHgspfQGAJgVzihxr2oEKKWbNE07NpfLPRAVvMLxxzLAwvVls9ld8Is0AECz8/gYhRGIAZb9opx71+cOTVJyCyXwRpkeiDf2TIFV5m/F1VYcJkgPLPmYhFvc70qeqysm7lyxxasOSrP3qilfHrIl38DD9fzGKrCqzaWyF70P9RVeMt8Aq7JGyu3Z8lSvSjjKeq4cdPiEHFXeF6pFxP5tS+0Qy20c57X00mH5UWH5VaM5hEtKdCIGWILscGDkPHxeW2UxbuuXyipUWclUQmwn1VamgbuaLigrE7LHnADLYeIulVumL5YwcgfyD6InTrrmI8sLngBrjz32OGznzp3/iNrAlFL6iUKh8K1R+PdyXE4pm83uTyn9V9SpVoSQc3O5HN4I1XTEAKumsNlOGuMAi601m80eZhjGr5qthHj9V7c5eogBVnNcJzlLVG4PDAycgUbilFL0EfIQ5TfXukbhbPHz+QZK6TmFQuEnUX/hN9YBFl7vnp6eXYeGhu4mhOAXqug5GB+jKAIxwLJfjGV3L19EqX6DAXR3y/9KKqpUdyuEUgqsMgGW0kaYtzN4JeCXDWAp5u6yMmE5MJDzqyhbcvGJKccR7JE6AVbd5u3KHPwosKpMly3Ig+m51q1zKrKcGCIMeNWoP96VQJY/iOXlr+YFMN1iGyDeNaqwvAGWHbX4iWs1FVZVDOWZRlj1TP7CrQqwrHRBCatMqAUEEg71lfTCkqbsdoAllVo2DZaZdmg+yn2wVgKBM6876UqsKO/+ATOTyXwbAD4e8d+rzclkcs/Vq1dviHjceDiPCAglHqpU3hplkNDMfWBg4Oj169djhajARwywAoes7ITxALBw0el0+hhCCFYm3Cu+4a5/3zSyhxhgNTKa0fSVzWbbhiulnTmspL0wTicMJeb4qR2rlH6eEHJXLpdD39BIj/EAsPBvQUdHxxsTiQT6Jb5tlFeujfT6j4bBYoBlXQWsPLnszksvAI1cYQBtUwEWKrDwvs+GsKoALJkmyECXUFqhgbuEVWoaIVdh1WbgXs6l3DVQ1QCWFwhS92mjAJb3WNX0RvWqr7xUPOUpXk7Y5YVP7MqrYCqhWt4DvCLkB2K5Iyn7DnLirHBVWBW0Ta6EKlh8qwEsr2tqXpcGAiw3UCTVVmr6IDd054hKAiz5WDnAYrhL1hgUXln232UaoVqJUAOyEYCcf+3iK+5wmxfzANB1/dlhP4tda9mkdZzzg3w+f1Id58enNjgC+I36jh07zqWUfiHim/vXsfploVD4Uy1LigFWLVGznzNeABZ+u57JZN6JN4Si5LifL0jqD3Dz9oA3zJh/PjnsJcQAK+wIh9O/+LuxeLik8OVReyiGs6JR1WseFW6GYdzb398/MBIzGycAC0Mr/RJXAMC7YyVW1d02QCnVCSHtYX9ejAGWdS0u+P517UTb+gUg9Gye3icrDGKCIEIoia8khCpXYNlUWwJISYClK5BKTSu04Fal5LsgCqzyfky4UUHS1HiA5dJjxWX4gFc21uKtBuI35W6ww/uxauortzPd4JXXB193F6TK7wXeCYGqmM6KWy0QqzKwKp9BpajboJ9HIPxol7xVWKMFYFVFX/zCOhbiFhKWLigrEeIpCsBC/yszjZClCwp/LKVaIQdTauVBd4ClKrA0IEPUgBUTV2lfXLFiBXJ1+5FOp8/EsthV/1Q1tgHVdf29/f39v2tst3FvdUaAZDIZlNCjH0SU5rx4g/zNfD7/mVq8PWKAVedVH9sm7mXBwRLqQ0NDRxJCvggAB4b94bv+qzNiPewYBhK3EUL2o5QeGfYsYoAVdoTD63/hwoXJXC73DkopguGDwhtpXPW8khDy6YkTJ/7l+eefHxqplY8jgMU+ymcyGVTnXgEAx45UzJtgXPxi4weU0rmEkLcDFqIK8YgBlhXcC++8vAOIcSMF+JAFq7i7lR1g8Vt4txRCrELIsZZaYRDTDaXXFfbFfbHUCoRSleW81GX4wJsJKad6ACxPQlUJk9i7rYyMeFuvhDT1Sfep+ABYZpPKc3aqp5zYwwlR6oNXlaFKLeCq6j4QDdxi7YRYbrF2N3V3680tzqMjjdDPN+SNUGBhqKsZuXvOxfaE+06wAJZLtUGlEiFPFywHWIqlu4BdKsASQEzUJpRKL4G8vrGDks/euGTFFts0jzvuuMTDDz/8ICHkkBD/9rh1/XwymTw6Th+MOOo+huvq6spQSm+klH7AR/NGNnnQMIyT+/r6VgftNAZYQSNW3n4cKbDk4hPpdHo+APyIEPLG+iM45nrATwTnaJr2R8MwrgeA94e9whhghR3h0PvX0un0AZqmfZlSGmkaeugri3gAQsjDuq6f3tfXh5WBI6k26LXEcQawWBjmzZs3tVQqXUsIOSPiS98Mw5Xw7+bAwMD5EyZMwMrlH40BVnSX7YLbL95PSyZvoUAPLgNYtnRBocyymbo7TNxluiHzubIAlpVW2HwAy0/6YJQAq5JiTAVYQWEVrsGJGpxAzKm8cgcYjUBX9v3vnQJoj3w1iFUNYFm91QKweATZ4RKY8ocqPOIaWOfVqPweUQ1iVdV0keoAy2OpjvV7Ayzue8X3nTNdUFYilGmFtkqEThN3m7G70p8LwAKAXxlgnPWlxVflbWHu7Ow8UtO0XwAAViGM8viyruuXjJQkPsqFNttY+E16b2/vRcNGsZdGbOaOXmjn5fP5u70sHL1iGQOs+nfZOARYLGhz5syZ2dLScielFJWHrfVHsul7wE8CW0RhhdsQaBuGcVMMsGzXdTOldEmhUPhV01/tEBaAe0bXdbz5xy9BJoQwxFjucpAQ8n8AsCyXy+VGw0LHI8DCuKO/m2EYFxJCzgOAKbFSl+3GncOK3J+2traeuXLlyq2ZTOaWGGBF+ypdeselRxKN/JCCMUf1u+IASk0X9A+w1FRBS4XFqxqqFQhHToHlU32FNw/UT5JhBQVWxfRBO4CpIhYLZN7eaPWVn7TBauiqmnqoUqTdkZJ8rbilE/qDUM5WlVILw04j9E4htFBRtRjKiPgHWN7ErZoCKxKAJeAWh1xOw3ZLdWWCLumMxVIU8X+mCxaDZISSxw2NnHr9SSueVmOJCoSrCSGYttUS4VvwFuXDv793mggnFw/FPri9m1J6M2aWRRgPhPHfSKVSF69atWpLkHFjgBUkWu5txyvAEjcqWEb9cwCwZHgPzh7HNyoGpXQ1IWTFzJkz73nssceKMcByfb3EAKvKW860adOmTpkyZSkALEYWUP871LjoYR2l9I5EIvGV3t7e9aNlxeMVYGH8Z8+e3T5hwoQllNJzAWAPzyyN0XKxwp3HpuHX8vcIIZfKYgIxwAo34GW9UyDL7r7svyil91JCU9JQnYElT4CFz0hjd6cCS6YZIvySwEumEcr0Q+t3HI/3Zj/CTyFsLMCqmARYEWD5SB+0MS7/aWwqwHLT+vhLH7RUP5WBWLl6ywQptktbDb9UTMRkPbmrqKwg1avCqgSwfFd/9FimUxXn9mr3hliNVWDZ4ZO7ZCxagCUqE4p0QabAcnhjBQJYQpXlBFgawH8AEidcs3j538xVi1SxO6LwNlEvOqX0AU3Tzsjlci9E/NYfD+czAl1dXbMNw0AfLPQ2qPYO5rNXX80e0zTttN7e3qd9tRaNYoAVJFrubcczwMKIYMrIcDEL9Dw5GwD2HYc3Kvg54olh1eVVhJDfyhuUGGC5vl5igOXvLSeZTqffQwj5JAAcDQBYsTA+yiMw7H9P/zFcSOfruq7/37p169B7btQc4xlg4UVAz8RSqYT791OUUkyljvIz0WjZB6gGvHFwcPBbarXoGGBFe3nO+NYZqakTd/sU0eAGhpJMoCQ9q9wUWPIxvJ2X54jH2PncB0sCLF1NK1Se5+ordyRgw0sesoRq6IdDNq/8iyYCWLaFVgJYbklhbtDDrfKgG1pxg1cce1SDX1XhiHjTq6w4cb9G3kos6xnn3nCOUy2VUIVY1c6Vr9iySDc8jbBq0p/tzaOaAqvqNYoohRChlGnYjj+J32VqIfPKYtUJua8VTzuUWKqCAssVYLE+ihqQ47+weMXPzYim0+lFhJAbAGD3CN+C8b3yhmKxeOlo+5AWYQyaYSiSzWaXU0qXRZxWNUgp/XihUPjBcAqj7jdQMcDyGynvduMdYCk3KvtTSi8Yhwa+fyGEXDRjxozHUXkld0oMsGKAVee7i9bR0dGdTCZRxXKmUDjW2eWYOv1VVLUYhnFbX1/fc0HT56OIxHgHWCLG+JkI/UE/BgBnDX+O3SWK2I+CMfB+8IXhtKzlAwMDv9m4ceM2dU4xwIr2Ci3/1vKJO9r1LwAh5zgN2zmIqgSwRHVCBqVGH8BqtgqEnjBHecILXznhST3pg27nBu/PjnXcfyvf6z60eOykaiosE16K1k6OGQRgVTs3OoBlISc/33g0AmAxaOT6llQFptlO8vDAMlMDpUG7UGDVBLCkektJF7QBLMsXC3VdFOAzm7e9fDObJsqi29rargSAT0esNHjZMIxz+/r6fhjt2348WtAIZLPZwyilvwGA6UHPrbP93W1tbZ9AfwW//cQAy2+kYoDlI1Kkp6dncrFYPA4Arh2B/e9jig1tguqP75ZKpYvXrVv3ivMGOgZYrrGOFVjBtiDe/LdSSrHi51eHTTkPDnb6mGyNn9mf0zTt4h07dty3fv16VF2NSkuFGGBZ+6+jo2NCMpl8K6X0CwBwwJjcmfZFPQUAp3V1dT19//33o3m77YgBVrQ74PI7L58yQOB2APohFWBJbIUqKpksKHCV4osloZXwtkKs4FBgSSN3dq5QZUmFVtgKrLEHsGpLH7Swh4VaVL5QybjdDjDcU9jcz7eP6ge4qDvfTV1XTQmlKrOqASwnAnOqumpPI1RW2nAFVvQAC0eslkboeW3NJyoBLNVw3QJYeEbC9LsSBu+qAosptURNQaEJtFRZFsTCx7hGS+gGhS8WIeTLQ8mpl7ApdnZ2vlHTtO8CwGHRvv1CzZXmIp7nuB9OVKj8JyHk0IiD8dpwYYEDent7837HjQGW30jFACtApPCm+02U0s8DABq8TxxjqSP4eXETIeQLyWTyG6tWrdrpFpsYYMUAK8BrpmrTgw46KLVp0yZUYqHKEdXfUfpvVp1fBA0QAqAP6HdKpdL169atQ1+hUX3EAKv88vT09HSUSqVLKKWYdo5f8gW95xvV1xwAtgPAL1Op1JmVPEljgBXtZbzo9otmGMnUHynAAV4AS4IrkTCoqLJU1ZWqxrJSCHUGrjguYCmFKuBSnnOu2oZqakwhbAjAopVcj6xZezo32dRTbtfW80yXzv0BLO9EQg5AKqX/BVVf1QavvN7aKiWFlq/dD3TymwroDazcExa9vhmyIT6PZdofLm+kcB+XDeMOEd12ViMUWGECrLIKhML7SqYJNg5gyV0vQRhTYP1kkJLTMJpY6vpYQsht4qYsqndg/OD2nXw+j/LrES0LHdWCm32cdDp9NiHka1GvI5FInL9mzZov+x03Blh+IxUDrKCRQm8swzBOGjY3PxkA9h8jVdWGAODvhmF8tbW19fde8ApjFQOsGGAFfc34aE/mzZu3h67rnwCAdwLAnhFXvPUxxcY2oZSWCCEF9ACllN7U19f3aGNHCK+3GGC5xxa/5HvkkUfeQSnFQkioLpwV3lWIrGdMH3+JUvpNwzC+W61SeAywIrsubKClt12+G0nRZ4DAzGoAS4IsK62wHGBx3ytvgGV7fhwBLG8pbBWAZTtx5AFWJfjF8Zj1//afKj3+/+1dXWwcVxU+586s17u4bhJsQh17d+P84BgRtXKlVgJUC2irCtqH8oBQQQgJRMMDCPFA4aGteIIHBEIgJCRASBB+VASogqKgVhECFQwBBI1JQzadXexNXZI6xFrv79zDnt3x/s7szHp2x2v7jmTZnrn3zL3fnb/73e+c0y4VdsLEjsSyK9sgnbopqbq5EXZXgHkbB6cliMAILG6AyzJIV0dA6+CgFFj9IbC4izWNlZMCa0t9VctiWMtMiIBLxRA8hPPz82PZbJZJiY8G++gFdrv4cDqdfjbg86rTbROB6enpI5qmLVsppLdppfdqiPjPaDR69/LyMk+0XTdFYLlC5FpAxcDqChEePXr0pGmajyLiI9ZkZVcqR4hopZJN64eI+P1UKsWJNLq6LSkCSxFYrg+PbRZIJBKjRHQXET2CiA8CwGkA0LZpbpirvVJRuz+HiM9ms9nft8cRGuaGc9sUgdV9hKampiZGRkYeJqJHAeA+ALht2MfUoX1ZRPwZAHw3Go2+6OX7SxFYwY70Z88+PadLukhIIjgCq6bKqtJfjkHcu0uXnGIlNaM3TAos+4+iboojqyeeCSxn3VU7YdKLAqtBXtgpf1r1V/YltkbEm3LIzXWPrTVD4kZC7WoCq5MBtKEInZ8X1dHZxQQWB3GvZiJkV8Eq8dQUxN0K9m6FdHcksOpB36slmggsgmumFHfyRCwupfwjALw52EcvXNI07d6rV6/+L+DzqtP5QCAejz8DAO/3YWI7VTmA+wOpVOoFL5UVgeUFpe5lFIHljiG7P62vr89JKXnV/SO7LFthHgB+TUTfKhQKLzZnkurWc0VgKQLL/c7wV4LjCmmaNoeI7ySiD1Zclxb2gCKLv8VfJqIfI+I5IrqUTqfX/SG1M7UVgeUJdz2RSEwT0dsrCqbHiOhBRLRfDPdkLvBCfyWir1buwedTqdSrbgsbW61TBFaw4/SFs0/ebxKeq7r4WRkFa3/X9FZbmQTr6qvqvtpRi4KqZy5slHdTYCkCqzbKO09gdYt/xS3sRmC51bVzR/RydbuRWO1kYDOJ1V631TWrk+5qJcMaY9JdgeXsVtpB09kQSG4KrBbeqqO+NyKwZmP4CaxGBsIaQbVFVtXIJl59HBCBBVBGgScwHo9/EgC+EbTPPhF9OZ1OP+HlhlBlhgeBWCz2Pl453oEWnU2lUo95Oa8isLygpAgs/yjVLMzPz48UCoUD5XKZV90/XVm1flu/bA/ADr/bL1feNV80TfM3KysrPInuqrpqboMisBSBNYBr0tYkE8QbGxu35/P5ewHgYwDw8C4jAbhfJhFdYKLYNM3no9Hoa91cdIPC1s95FIHVE3ra7OzsWLlcvhsR2bXw/oAzOffUWAB4zUqs8L1UKsV/e87+zCdSBFavcPsr//kfPflxKfHbzgQWk1WtYdx7J7AsussK4l4L6K4UWP0isJzd9ryopuzolMa+ZgJr++6DdkG8G/vao0wNA4HVSi+2t7CfBFYLXVW/mZ3jYO1GAssu8tpW8PaaympLYdUvAsuyXiPE6k6GLS6EIEm+gwkszizHK5yBbrquvzuZTL4U6EnVyXwjwPL4UCh0rhK/7IhvY70Z+K+u6+9KJpP8UdV1SyQSdxLRNwHguFtZn8cziPi4YRh/8mln6KrH43F25fkaIs4NunGRSOSeS5cuGYM+TxD2raDU70HEM5WsnZzwYBwARoNeIGjrKy9k5RDxOhF9fWJi4jsXLlzYlvKVgxWXSqUvWROxgUKKiJ8wDOOXvRBszQ1aXFwc7SX5g4/ObBDRmXQ6/VsfNlRVFwROnToV39zc/BAAsGtWworZGd7he6u91ezmnrMSIvyqEs/rrGEYf95LcT5jsdgCIp4FgAODvmgR8R7DMPbEu4FjZC0tLZ0moscR8b0AcLsVQ3Gn3WQ5Ycc6Ef1CSvmVlZWVK9sd11gsxqqtDwTg+vuTVCr1qe22c6/U+9wPnn4CkD5TV11VY1hVQ69XVVjNbn71LISi/leVn6wHZm8rz+qtWn22yKossBRdsonAcnIG7O5C2Bn0uNOOswuhU4wl+1Elcl+fc7RoHRikC2E/CSxGoJluaiawOuWf9sRUzUbzZhc4vtUaXynNmz2p5X6tNKzUyjZb7R5Ba4tOtBtJbwSWbTwpVwVWJ1ote/wosNDFf7BlnJwb6hYDi9trW6bFpEMmQotgwmq2QMtF0FJebSmw6m6AVlbCOiFVz0JoxcCSjeyD1au46nZouR5Wr2qtvo//K5vmGTx58uQR0zQDlzYnk0mOveL+ZNkrb5q90w9x/PjxNxIRT8oD2wqFghwdHb3uZfWaFTGbm5uHNE0LDbKBxWLRDIfDN7y0aZDtGITtoDDktieTyWsA0JGSexD9CtCmPjMzMyeEeIizFiLiTCXTGJO+POkL6nnLk+k0AHBsq+d0XX/GCwHsgpE2NTV1MBKJRAaNZS6Xu5HJZDZ9nAePHTs27aO+p6r8bNJ1/YZhGOyWqbYBI3D48OE3hMPhuxDxPiY4rPvqcEVJPrED6pZSRVlzs0JgrhHRNUT8OxH9rkLw/mG3ugi6DR+/G27dujUZDocH/hybmZm5dv78+b32bmCl0h1E9AAi8s8JIuLnFAd9D4rMYkzXAOAVRHxB1/WfXrlyheOb+vomn56ePkRE0dHRUffZl9uF1uV4oVDIrqysvO7DxJ6o+tTPnzqwsV5ui7HG/Hlts3shNY5aJRze5LkqD9/Y6v9Z5VuPDimcPTey5wo70PGBf3p19KnXM+4Mijtz1t4ugB6R7LF4b23xX7qleRb87U2OgOMDxlrbB6cS1ZX/xtZqJz+mrw/0JeMfHmVBIaAQUAjsbgSmpqaimqbNCyE4KPUpnrBIKTnT2gwijvW5d0z48KTkpUoQ4X8Q0ZJpmn9bXV3lj31fk5M+t1OZUwj4RoADvwshOIPhSSI6JoSYJaKYpRBmwvhgHwljvn82ACADAKtWAgQOyJ4UQvybY1wZhnHTd6eUgX2DgLVQNCulPC2EeCsR8XvhBCd87fdih5X5kheOL3JiHCL6S6lUWspkMqt7SSG4by4e1VGFgEJAIbCPEVAE1j4efNV1hYBCIFgEOEB1OByeKBaLh4UQk4jISTTegogJImJCi1fiD3kMWl0gInapTQEAu31wYox/maa5ioiZ7cQwCRYNdTaFQF8RELOzs7eZpsn3DysdDwghJkzTvAMApoQQnKjmoJTyACKy+xYv8LFKdyuDaBkRS0TEa4lMVN0UQtyUUvI9xqRVRkp53XK34v3rmUyGCas9pxDq66goY54QWFxc1A3DmEDEN5mmOckJHyuumkxozfJih/XD+72sy7PXF7uMM2GVRMSXpZQXhRD/4XcDALyqFKOehkUVUggoBBQCCoEhREARWEM4KKpJCgGFwL5AABcXF7XLly+PRKNRPZfLhUZGRnR2fc3n8wcrcdwmdV3nycqoRNR1RElExVKpdAsRb/AEOhKJFEqlUimXy5UmJyeLy8vLJaW02hfXjuqkNwRwYWFBX1tb08fHx7V8Pq+Vy2XBYROICKPRKPJvNoXIURsAcrmc1DSN3UJlKBSS2Wy2PD4+bi4vLzNR1Rm+xVs7VCmFQK8IaIlEIhQOh0O5XE4PhUKhcrmsCSHGmeBCRI6vGEbEEdM0QdO0gmmarMB9XdO064iYKxaL5bGxsWKhUCgZhsEu5er67XUUVHmFgEJAIaAQGDoE/g/Wm1f1F8qUygAAAABJRU5ErkJggg==;" vertex="1" parent="1">
          <mxGeometry x="111.73749999999995" y="102.1725" width="76.51834000000001" height="12.115000000000004" as="geometry" />
        </mxCell>
        <mxCell id="UAMNCxBC-hiewUGZ62pg-21" value="" style="group" vertex="1" connectable="0" parent="1">
          <mxGeometry x="390" y="84" width="100" height="48.46" as="geometry" />
        </mxCell>
        <mxCell id="UAMNCxBC-hiewUGZ62pg-4" value="app-ios" style="rounded=1;whiteSpace=wrap;html=1;labelPosition=center;verticalLabelPosition=top;align=center;verticalAlign=bottom;arcSize=16;" vertex="1" parent="UAMNCxBC-hiewUGZ62pg-21">
          <mxGeometry x="10" width="99.99999999999999" height="48.460000000000015" as="geometry" />
        </mxCell>
        <mxCell id="UAMNCxBC-hiewUGZ62pg-3" value="" style="shape=image;verticalLabelPosition=bottom;labelBackgroundColor=default;verticalAlign=top;aspect=fixed;imageAspect=0;image=data:image/jpeg,/9j/4AAQSkZJRgABAQACWAJYAAD/2wBDAAgGBgcGBQgHBwcJCQgKDBQNDAsLDBkSEw8UHRofHh0aHBwgJC4nICIsIxwcKDcpLDAxNDQ0Hyc5PTgyPC4zNDL/wgALCAPUBLUBAREA/8QAHAABAAICAwEAAAAAAAAAAAAAAAcIAQYDBAUC/9oACAEBAAAAAJ/AAAAAAAAAAAAAAAAAAAAAAAAAAAAAAAAAAAAAAAAAAAAAAAAAAAAAAAAAAAAAAAAAAAAAAAAAAAAAAAAAAAAAAAAAAAAAAAAAAAAAAAAAAAAAAAAAAAAAAAAAAAAAAAAAAAAAAAAAAAAAAAAAAAAAAAAAAAAAAAAAAAAAAAAAAAAAAAAAAAAAAAAAAAAAAAAAAAAAAAAAAAAAAAAAAAAAAAAAAAAAAAAAAAAAAAAAAAAAAAAAAAAAAAAAAAAAAAAAAAAAAAAAAAAAAAAAAAAAAAAAAAAAAAAAAAAAAAAAAAAAAAAAAAAAAAAAAAAAAAAAAAAAAAAAAAAAAAAAAAAAAAAAAAAAAAAAAAAAAAAAAAAAAAAAAAAAAAAAAAAAAAAAAAAAAAAAAAAAAAAAAAAAAAAAAAAAAAAAAAAAAAAAAAAAAAAAAAAAAAAAAAAAAAAAAAAAAAAAAAAAAAAAAAAAAAAAAAAAAAAAAAAAAAAAAAAAAAAAAAAAAAAAAAAAAAAAAAAAAAAAAAAAAAAAAAAAAAAAAAAAAAAAAAAAAAAAAAAAAAAAAAAAAAAAAAAAAAAAAAAAAAAAAAAAAAAAAAAAAAAAAAAAAAAAAAAAAAAAAAAAAAAAAAAAAAAAAAAAAAAAAAAAAAAAAAAAAAAAAAAAAAAAAAAAAAAAAAAAAAAAAAAAAAAAAAAAAAAAAAAAAAAAAAAAAAAAAAAAAAAAAAAAAAAAAAAAAAAAAAAAAAAAAAAAAAAAAAAAAAAAAAAAAAAAAAAAAAAAAAAAAAAAAAAAAAAAAAAAAAAAAAAAAAAAAAAAAAAAAAAAAAAAAAAAAAAAAAAAAB0da3H6AAAAAAAAAAAAAAAAAAAAAAAA6cSxFpXHfDuAAAAAAAAAAAAAAAAAAAAAAAB8Q9X3x8OS+PaAAAAAAAAAAAAAAAAAAAAAAAHl1ejbA9e8+QAAAAAAAAAAAAAAAAAAAAAADyqi6eCTLZZAAAAAAAAAAAAAAAAAAAAAAAcNR4+AszMwAAAAAAAAAAAAAAAAAAAAAADECV8A9K73fAAAAAAAAAAAAAAAAAAAAAAAeDSnqAzYmdQAAAAAAAAAAAAAAAAAAAAAACuMHAbvcHnAAAAAAAAAAAAAAAAAAAAAAAcVHPIB7Nw9jAAAAAAAAAAAAAAAAAAAAAAANNpkD1rcbiAAAAAAAAAAAAAAAAAAAAAAAIjq4G22r2cAAAAAAAAAAAAAAAAAAAAAAAISraz35wnXtAAAAAAAAAAAAAAAAAAAAAAdbw/N7ewdwEew36+8yR3c48nVvI+fW2T3PsAAAAAAAAAAAAAAAAAAADHhRDGmn9c5tzkeVtoyGPnSopjfWPkPakOWZF5AAAAAAAAAAAAAAAAAAADxq/xBwAH3ussybsPzqUXRPrOABnbLESTkAAAAAAAAAAAAAAAAAAEY1j8oAB9+9xeJgAA+pnsfzgAx5fn7F9gAYx1+jx9rvfeQAAGOHocHa73JkAAAAAAAMQlXLjAAAAADMl2r7AA+a4wrx7XazZwDHlRZHWlePxs9zat8lHefoABxRvGGia7xYz2dp36Vd3+gAAAAAAEN1m+QAAAAAMzDZv6AIsqpg364IDyIBh/rYAM7lYOR/oAYi6u+tADO+WQ3IAAAAAAGkU/64AAAAADsWCnL7AK7wQO3fH7DEaVk8cABmX7KdsBw1uhn5AA7NlZgyAAAAAAcFNNSAAAAAAe3a3dwAiOrg3W5QYiCsvEAAM79bLvAVphYAAfdqZTAAAAAAIWrVgAAAAAD3LebOADirBE2PbtfugRpVDiDk3+Rtj5/J0uLvHDMl2v5AjWpnyOzLkn7R2vM06I47+R6t1vUAAAAAA4qU62AAAAAB2bfbwAAxrPmbj2MjyaX+MM73ZbbMjHVhCA+sM2OnAYp5og9q223ZDES1i4DNhZ5AAAAAAjqo2AAAAAAZnmwoAAAYrZCgStaHsAMR3VDqD0LseueNRz4M2wk4BiBa9jdblAAAAAAxWqFgAAAAAPRu96AAD5+Rn7PGpF1huNxeyAMQ9WPAnywZHNR8HbvdzAHmUY4jtXx5AAAAAAxSrVgAAAAAJnswAAR1UsSTbAgyuY+rhb2AD5qDoA967vIiuqg7t7uQARJ1hL/ACgAAAAB06IcYAAAAAFrpRAAI4qOJLtoxT7Qhv1wMgARlU7AuTuyPKiYM2ulAAAAAAAAA1Gl+AAAAAAZu7sIABHFRxJdtHUolwCyc2AAOGjXlixk5vJo1xj0rLyp9AAAAAAAAR1UUAAAAADkvn2AACOKjiS7aNNpngzdPawACpsZCXLRsVFjsM7fLckbRyAAAAAAACLqogAAAAAdi+fIAARxUcSXbRFtU8HPfHnAAK7wQN8uFlpVO+EGceru+9b3u3PkAAAAAAIrqoAAAAAB93x7YABHFRxJdtEM1nwe3eQAAQnWwbPdgQ9WbiAGe9I8vSPyAAAAAAEa1KAAAAAAzdXaQACOKjiS7aIQreNnuvkAAh+sA968IxH9aNZwAGdvshv2QAAAAANHpzgAAAAAC0cuAAEcVHEl20QnWwbHdwAAQ3WQbDd4HBE8P6F8AByWLm/IAAAAAPDo7gAAAAACV7T5AARxUcSXbRENXh6V7MgAED14G4XPAY8nQtC0PU+EB9WrlIAAAAAHxRHogAAAAAdm7ftgAI4qOJLtojuouD6vT6gABWWGhJNtcgA8/R46irw8BsV2OUAAAAAFN9IAAAAAATLZoABHFRxJdtHg0fwZtvI4ABTHThONjgABww9XXojNv9/AAAAABW2EgAAAAAHJbKSQAI4qOJLto+KPeIJusiAA8CkfGLTywAAGI+qL8Cx04gAAAAAiuqgAAAAAB6dutyABHFRxJdtGKww+PVu73QAK/wAADkvH7DAZADFOdHE9WFAAAAAB5lGeEAAAAAA9W1u+gBHFRxJdtCN6k4E/WAyAHiUr88SPbhwUZ4Tku36gAVPjAWCn0AAAAACoceAAAAAADsT9OPYAI4qOJLtofFLdVHYtxv2QDr1MjsZtlJjFJ9ZFjZxyAcFJfBFpJbAAAAAAhqs2AAAAAABnZbOb6Ajio4ku2gi6qWB6NpZJAebV+Mg3+330VphYd22+9gMQDX8cl3feAAAAAA8+jvSAAAAAADNy9zARxUcSXbQfNWYpwPuV5t3T7PJieC/DDvXH2oadTXjHanWavU+jGvQFEPyJQteAAAAAAxWeGQAAAAAA3O5eQEcVHEl20Dz6h6YDPf2Dn8rwPnActpJWDFa4VBz7ls/a6Wqajxh3bl7OAAAAAAapS/jAAAAAAM2cmIAjio4ku2gPKqloeAADt2clfIOtVCOcAAHZtTJoAAAAAAVXigAAAAAA967PYAI4qOJLtoB14Cg7rAAzutmtuyA61eIU4wAZ2ez28ZAAAAAADWKXcAAAAAAGbMTMAI4qOJLtoAa7CMUeOA5d8mqUOQAMafB0Y9AB97hM0vdgAAAAAADFdoLwAAAAADcbk8oA6fijte4AHFp2m6/5vF3vZ2nefWAADq6TqXg+d8d319m3f3cgAAAAAADpUw1wAAAAAPu4G+AAAAAAAAAAAAAAAAAABoFROIAAAAAzONjMgAAAAAAAAAAAAAAAAABiAYAwAAAAA3S4XZAAAAAAAAAAAAAAAAAAA46nRqAAAAB6dxtmAAAAAAAAAAAAAAAAAAAPNp/qQAAAAc9sJIAAAAAAAAAAAAAAAAAAADw6jaqAD65vjiABzWelrIAAAAAAAAAAAAAAAAAAAPIqxH+Acm8yjvmzdrj8TSI0jLpgz61n5JAAAAAAAAAAAAAAAAAAAAOOHYT1PHLt0my1smQMefFUYaN57YJYnH1MgAAAAAAAAAAAAAAAAAAABjyuj7HbyABj48/77/0AAAAAAAAAAAAAAAAAAAAAAAAAAAAAAAAAAAAAAAAAAAAAAAAAAAAAAAAAAAAAAAAAAAAAAAAAAAAAAAAAAAAAAAAAAAAAAAAAAAAAAAAAAAAAAAAAAAAAAAAAAAAAAAAAAAAAAAAAAAAAAAAAAAAAAAAAAAAAAAAAAAAAAAAAAAAAAAAAAAAAAAAAAAAAAAAAAAAAAAAAAAAAAAAAAAAAAAAAAAAAAAAAAAAAAAAAAAAAAAAAAAAAAAAAAAAAAAAAAAAAAAAAAAAAAAAAAAAAAAAAAAAAAAAAAAAAAAAAAAAAAAAAAAAAAAAAAAAAAAAAAAAAAAAAAAAAAAAAAAAAAAAAAAAAAAAAAAAAAAAAAAAAAAAAAAAAAAAAAAAAAAAAAAAAAAAAAAAAAAAAAAAAAAAAAAAAAAAAAAAAAAAAAAAAAAAAAAAAAAAAAAAAAAAAAAAAAAAAAAAAAAAAAAAAAAAAAAAAAAAAAAAAAAAAAAAAAAAAAAAAAAAAAAAAAAAAAAAAAAAAAAAAAAAAAAAAAAAAAAAAAAAAAAAAAAAAAAAAAAAAAAAAAAAAAAAAAAAAAAAAAAAAAAAAAAAAAAAAAAAAAAAAAAAAAAAAAAAAAAAAAAAAAAAAAAAAAAAAAAAAAAAAAAAAAAAAAAAAAAAAAAAAAAAAAAAAAAAAAAAAAAAAAAAAAAAAAAAAAAAAAAAAAAAAAAAAAAAAAAAAAAAAAAAAAAAAAAAAAAAAAAAAAAAAAAAAAAAAAAAAAAAAAAAAAAAAAAAAAAAAAAAAAAAAAAAAAAAAAAAAAAAAAAAAAAAAAAAAAAAAAAAAAAAAAAAAAAAAAAAAAAAAAAAAAAAAAAAAAAAAAAAAAAAAAAH/xAA/EAAABgECBAMFBQUIAgMAAAABAgMEBQYHABEIEiAwMTdQEBMUFSFAQVFgcBYXIzJUGCIkM1JTVVYlwDRCYf/aAAgBAQABDAD/ANOp3D8dPpiNjCCd9INWxXOVaS2VBM1hanOmcFCAYB3D9EZGVZRDUzqQdItm9n4g4ViJ0IFopIrT2X7lOich5MzRFw7cO1BUcLKLKJm2UKOopQVYdkoPj+hwjsG+jqppkMdQ5SEvOdo6FMoxrxSyDyw2mZtD0XUvILOT7j+PtQLzrkKAbjGpe5jGqQfofOz0fXYxaQk3BEG2RMtylvXOzZGOyhxMI9NVZDI2yIZgG+igABsHh+htgno+uQy8nJLgk3v1/kbxKmVcCZJn1YNiPmmSWiwl5kwDYP0NcuUWjdVw4VKmjlPIa11nBI2OYkT18PFeFjWXc2qTZX9DBHYN9Z6vvKX9lI5XY3XAw7mfm2kW0KJloWJbwkOzjWocqH6GXKyN6pVnsuuICMk/cyck4fOlBUX6g8Q1gOji2bK2p4jsoHh+hvEPaBcSrOuIH/hiO49eM6IvdrIkiJTBHtG6TRsm3bplTR/QxysRsgouoOydomlLBZpKVUERHqrNbkbROIxcciJ1qZUWNMgEYxiAD+h2VJUYjG8y4KblP1V6uyNnlkY2MbmVcY/oEfRoj4dEAVfAGwbfodxDuxQoLZAOqk4+mbq/KmxRFNpTKPFUuLK1jkgFX9D+JIw/s3Cl/wDr7OUfw1EwcpOPCtYxgu7WpfD9sZJ7alQHTCOZxjNNoxapN2/h+grh+1aEE7lyggV1kGpMt/f2GOKJsu0Uo7DYW+muTKY8HZGxMd2koxfl5mbxu4KHh1Zco8jea+zZxh0CLl4ergYf7y8aXTDhulTmAX860RLB4DqccJTvjOZJSOh46Iag2jmSDVEA29gjtqRtMHEAIyEsybae5porIdhl/fCrxB00hhAicippLiFp5xDnQkk9M820V2IB81MgMddq1KiAMpyPWMRQFCgYogYPzyJgDx1YbjAVhD3ktJotzWDiNSTMdGvxIqamMuXSZE4KzKrdJy+dPDidy5WWN7Wztw0UBRuuqieGy5c4QSgjMquEoHiNIYSpz8OJdV7IdWswFCOl0BW5g6hEA0ZUhCiYxgKWx5ZqFc501pMrlxPcRkgsJk4KKSbEmMi2ydE3x047FM5zHMJjGExujw1E22fhBAY2YettQPEFZY8SklEW8klWc11OfEiK7g0Y5TXSWTKokcpyfnWw2iJq0eZ7LvU26Vyz1LS3vGteIMa1cvHLxwdd0uout2SqnKICUwgNbytbq5yEQkzuW8BxFRjkCpzsaqzPCXauWEhRjJloubfRzAQomEQAJ7JlTroGK9mW5lrDxGGNzpV+JAurBkC0WUxgkpdc6XMPb5h1U8i2OoKl+XvjHbUfMkJbRTaOTFj5MB3D85COwb6yPl+Op4HYR4EezE9YpSyyKj6WdqOF+8RQSCBiiJTML1aYsoEZT0gkSSuFimAEJGafOCiO47/YCGEhgMG4DjfNjqJOhF2Q53Me0eIP2qblqqRVDuCOwakrLCQ47SMqzai1yDUXqoJIWGOMdNZNYgHSOU5O6I7BrmDbf7lpJi3/AM543T0ra68j/mTceXRblWTG2LPxoilYIdcQBKVZKCRZNQNyHKcAHf7LzfXbbSr1qgAis4ST0raIBHf3s1Hk1+2lYEdgn43SVjhVh2Sl2BxTcIrBukoQ4AO/3eoCIB46yzmEIoV4CuOAF6sqdZUyihzHP6GAj9Pr9MX5Sd0x6Rg9OdeFZvWz9oi6arEWQ7RzlTKJjmApclZsePHS8RWXIt2a66rhYyqyp1VNx/HVRyBYKe7IpHvjmb0e7R12gyyDQ3Ir2dw/HU3ZYavNxWlZJu0LP8RMKzMZKFj3D48vnm5SImBsu2YJyNyskoYReTsgsB11lR3UVOcd/YBhDwEQ01mJNkYDNZB0gMVlm6xIgCU6usSF4j5BIxSTUQg4JXcuVGyCVNGSBo4KcpigYpgEN9+8u4RbImWXWIknY841OCE6LZdSTczPEPY3gmLFtGjBOTyLbpcw/F2B8JVXjpwYTLOVlB3H8db6ARAdwEQ03k37QwGbPXCIxOVLpECX3E+5UJB8RskiYpJuKQckrWWanZzESbSINnIHKIAIGAQ9MzJlIYBuavwywfM1DmOcxjCIm9FAdtYXyUaBfkgJZbeNIbmLv2s7WhWCppGLVQSOR8faH0HWIrSrXL4zAxxBp2J+yxNZYGeS7xNsjcs/Sb8yjWtI/Atnsi8knJnL1yq4WEdx7QGEvhqqZNs9UUIRm+Ms0pGYoG1FSaOBCOkym5u2I7AI6vWaYesioxjALIydnvdhtrgx5WQUOkI79ophL4ap+WbLVFE0SOResKTkmCurcCs1fcPvSRHYNZMvKNJrh3BDAaQevF37pV05VMqv6MzYupF2m0ZoKLuKBgdNuVGSteyqyRATTAhQApewPhriRFX5pBAP+V0RgnLKNBT/AJ0t/dE5v5ukRANZGy3HUtMzFnyPJewWWUs0id9LPFHK/eARAQEBEBx1mp9AqJRs+dV5GRskzlWKLxi4I4b9hwumggdZVQqaWTszuJZReGrix0GBjCI+I95k9cMHSTpquoi4xXmFOye7hZ05UpUo7gHpDxyizZrOVzgRHIdycXO1uH4mEGno1Yq8lbJdKNjEBUVoONYikMgFMgOZIA27ef62pLVBCUbkE6o9GK62rZb5HogQRbh4dIjsGstZaJXE1IOEVKaWXcKuVjrLqGUV+wAO2sb5LkKPIlTOJnETESzOci0JGPXKs26h1mnJyko7VrUMuIMBHcfsCSyiChVEjmIfD2Sf2uigi5FQPm/o+friMXCo11qps4MO47h6NV6xI2qcRjI1LmUpVKjaXCpsWJAMp3HDdN0gdFYhTpZLw8/r7paRg0FHcSJBKOw/QQKIjquVOZtMgRpEslFxx1QGdFhRQTEFn3TlrIxKXDi1ZHKaYcuFHThRwsoZRXpTQUWUKmmQxz17C1xnikVMyKwbxnDczKUoyk8soZDAFLSKAKA/WE+BqObwaOy6e8OtZWARZyEg2NN8O060KY8RJNXwTdWm64uKMtGuGph+g9IfQdYlyOpUJgGL5Qww6Kya6ZVEjAcnTmW7DU6sLZopyyRjib6iIiPQ0j3T9yRszQUXXq/D9NySZF5t0nGpRWC6XHlKLhqu/UbUGptAAEa9Gl0apV4xQKMHHCV7jOmPyiC1dYBqZ4fKy9KY8a5dx6ttw1aK0U7hJEsiyMQS+P0Hors67rc60lWJxKvXZltYYFnLMzbo+iuFyN0DrKGAqd5silrtshLHMPJ6KyZrP3STVskZVfGdCQo9fKkcpTyQBt3uUB+7Uzj2qTqoqv4Jooq1w/RWioKFgElBZR7OObFbsmqLZEAAPDpsc80rUE6lnp9kLNYXlonXUs/U5lujYfw1QcXTF4VBUhRaRtSxzXaciUI9kU7nYPw6dgEd9tP45nJNTtXrVJyhe8BpKEVkKpumo9ZOGDtRq5QURX6AEQ8B1ga+i/ZjV5FbdwAgIfToN4ay3ZzWW/vlCKczXoq9ZkLZOIxUclzLUfHsPSGBU2iIKvAAA+7q5Q/DWTMOsbGgtKQqKbSWdtF2TtVq4ROkt7S+Ia4drOKjaRrax9/Rs1WL5Dj5ymkflcj4j6KAbjrANHKoopa3yW5fs4+A6z9cxfTKVZaH3bdOJsVqW5yWVlSnThmjNBi1SatUiJIdgQ3AQ1krGDC5sTOWxSITMlGuYp8uyeonRc9ELLOoSZaSbI4kcVmdbWSuspdqO6fttsoEJUZaS32FU4qKGOYdze0vjrCdOTr9OSklktn/AGBDcNtZ9oqfuE7YxSAD9GJ5cYbJEQsJtk/RB8B1xDzvxVnYQ5D/ANz0WDiHE5OMotqXdaDiW0HCs4xqQCod4xykDcxgAPfo/wC6TXv0f90mvfo/7pNe/R/3SaBZMw7AoUR9tqnkK1WZCXXEOWQerSL5d44OJ1+jHNIXu1nTZCAlZMGLaNYoM2iJEW/a2Afu1m3HYTcSexRyIfMTePQGuHe0iB31acKCPRm94LXFskBR2EfHoi23xksza6aoEbNUkEwACdmwRSU3Av4xYvMm5QO1cqoKBsf2xrgzSSauCDsZBQFkE1Q8PQx8NZGlPnGQZp4BuYnovDzXwf2h3Mqk3TANg27+cDnSxdIHIYSm+Mdf1K2vjHX9Str4x1/Ura+Mdf1K2sFuFlcntCKLKHL7eIywihGR0AkfYeghRMcpSgIjimmkqVOQSVIAP+4coGIJTBuGW6aFSuSwN0xKw6KbOnrdtjJUg7AiqVdIipB3J7OIADfu0Nt4D49EO5BnNsXQ+CCpVkCKkEBL2pLAVclJV0+UkJBM/wDZyrP/ACcnr+zlWf8Ak5PX9nKs/wDJyeg4c60AgISknu3RBu2SQKIiX0OXdgxhXzsR2BdQVlzqmHc3ouBYkI/HKLkS7Kd/OflXI9OB/NJn7R1mCcGbyRJmA/Ml0YgrQWW+sk1iczUA272cKyE9RFniRN3Qht04mmxnccRTg5uZX2ZsZi7xbKCAfUfHoAdh1he9I2OqpRjhUPmfqeTnhmWNp5Yo7CPooBvqjMfltHhGm232DOflXI9OB/NJn7ZN2VhGOXhx2K9cnev3DpQdz9HDrB/DVt/MnLsfvOmybtqs3WKBk7FGKQtgfxin0N0cN8pzxMzFGN7bRGBM1aUjRDcVkjorHSUAQP0Qk0/r8mjIxrgyDqiZsh7Gmmzl1E46TIcpyAYpgEN/Uc3uBQxbJgHoyBPeLpk0wTBGOapB4d/OflXI9OB/NJn7cqvxjsZTiwDsYfHoL46xtFBD48hGvLym7+d4sI/JK65S7E6OHp+KF/Xab7FDw9hv5dZkqhq5e3KqROVn0lHlHw1Wcm2mq8qbCROdtX+ItkoBST0SqgeHyXUJwABnONQUTWIqQDpnKcvp2flOTGapdx9GYf8Az24j4IbfDpbeHfzn5VyPTgfzSZ+3Pzr3GNDpAO2h8ehkj8S+QQANxZIA2Yt0C/Qvf4k2QA/gnwB04bdC1ylDjvsAeHtydSCXarKNUylK/dNV2TlVu5TMmt1bj+Otx/HUZY5mHOBo+VeNRic63SN5Sru0H5IniRan2LLwaqYw2Y6TL8pQlwaqNXzR8kCrRyiunzB+PpWfyibGig7+jJHFNQpw8YxYHESzXAdw7+c/KuR6cD+aTP28RqvLToxLQ+PRTkAc3SFRENwD7BxINwNWodf7x8ejHK3uMiwCm+3TlvE4WdM03CJlLKuG6rVwogsmdNXtAYQ1HTUnErAtHP3LVSu55tUUJU5L3MohWM21awciLlYYt0iqRdIqiZynJ6PnRH3uLn5tvRgHWOZD5nj2Cdb7j385+Vcj04H80mft4khEK7CfXpx0UDZHrxRDcA8PsHEWUBojE339FJNyXiDNoOgQ3DV/xREXZMzkuzKUtdEn6g7FKTZGBESiHcKOw6qWSbFT1iAxenVaUTK8Hcylb83wUmA7+jZdbC5xfOEANxH0bh8mCvqMrHGNur385+Vcj04H80mft4kE+asQ5/rofHooCvucgQCmg8PsHEartS45PfQ+PRQyCpfYIoBuIeHU5ZNnrc7d0gmsjacBQEsY68MopFuLDh231/nOMcL1uqiq3UFNZI6am3bRXVQVKqkoYimJ8xDLKIQFjXKDwB39FuLMX1MmmwBuIhtt6NgWxBEXkY9U4FQKO4b9/OflXI9OB/NJn7eIhuJ6G1WDQ+PRX3HwljjXIjtoo8xQN9g4knXLHQLXf69GLEBcZNgSAG+g8OwIb6lavBzpBLKRbR1qXwDT3/MZn8XHnl+HKXS5jRUw1chLYrucNzGcQi6hFmqzc4kXSUSP2EzCRQpiiIDhvIQ2qDNGvz80r6IsmCqCiZvqWYaCwmXrMwbD6Kwerx8g3eNziRap2FvZqwwl0BDbvZz8q5HpwP5pM/bm9mLvFsiIBuI+PQmYSHAxR2GuPiyVZjHpR3Dv8RkgC9vjmJR6cFs/isoMjiH0Dw7ewa21IwkXLJiR/HNXJZfB9KlQMZJgoxVnOHKSbgdWElUXRZ+oT9aVFOWi3DYBKIBvt1UiyLVS1sZZMw8jddJ02SXRMBkvRMuRnyvJswmBdieigOw6wReAiZg9dfKgVp3s5+Vcj04H80mftuscEtSpljtuJvoYd/H2gOw6whMhLY1ZJibdTv5SmAm8jTDohuZPo4b4z3k7MSQh9A8O/wCIacNG7tuZByiRZK84JjJQizytiVg8l4h9BySsfItlG7roAdtYZmTTONY4yhuZX0MfDXEdD+4sUXLFL/d9GSVMicpyGEp8S5ESuEKDR6oUsuH17uc/KuR6cD+aTP2qFAxBKYNy2+JNCW6WjzBsHRw6WAGs4/glT7F71znSVupScqcQAyypl1TKnERP0cP0QLCgqPTl2P8AYR8NZUx+2uMAosikUssomdJQxDlEpujhteCeEmmYj9PRM+QwyWPvjCF3OPj6PAzj6vTDeTj1hScUDIEfeYcq6BipPe5nPyrkenA/mkz9ohvriEgfgLmhKpl2S6K5Nr12wsJZuP8AEiZJvMRbaRanA7fuDriHtgGFpV2yvSggo5XTRSKJlKrEEgaxGxZA29m4B4jrmL/qDXMX/UGuYv8AqDXMX/UGuYv+oO4IAPjrLkSSHyTLIpFAqXRw1HH42wE+70Swxic1X38aoG5XTZRo6Wbqhsp6PX7DI1qWQkoxcyLjHuTou7NASEStpXt5z8q5HpwP5pM+jNdaGwUFyqinzOhDboDx1gG9FAqlTfKbCHgHctVkZ1avOpV6YAJOS7qem3co9PzuOjCtaGfv7ZZRPma+x2l71qsQPF3ISSDxdIX7oB+bSP8AXutfNpH+vda+bSP9e60jMSKahTg+dCNdlE5mvR0ikICTt56VIrk1wUm2/Rw1tx5Z9zt9PRNtZogRg8ivjEJyoekM3rhg6TdNV1EV6DnpJYqUdbB92q0dt3jUjluumsj2c5+Vcj04H80mfQsmRZE6ahQMTIVVUqVyexvIPw/QydrMHaTpuqZJfGWRm14hylVOVKVAQHw7Tt43YtVHLlYiSGVsjKXaYBBmcxIjx6C+OsKVE1bphHbhLleewQ31kGMGIvs2zEvKHRw/XJNxGq1d2rsuAgPh2nThNo3UcLHAiVznf2ltsnLb/wBzo4eo0WdCWeGKIG9F4hK4MhV200kXdUQ2Hb0kB2HfVXvthqK4Hinxio4wyCtfoxyuvGi0U7Gc/KuR6cD+aTPoENw21mukDZav8xZp80iP0MPTDTb+Ck0JCNcGbucd5ai7egmzdnTZzHYmZ2OgI9V9KOkmzfJ2V3tyWNHsQO2hunFFIPcLYj74gjHJlKQgFKAAX28RMALSyMptMmyfREybyHlG8gwVMk6x1kmPu8aUgmIhK9gR2AR1mrJ6SyCtXhlwN0oIncLESTKJlKbCFrtSi4oA2N6LORaE3BvYxwG6UvHrxMu7j3JRKt6SACYdgDccW1sKxQ45ocnK47Gc/KuR6cD+aTPpMXmDb7szY8NWZg8tHI/+KENulNQyRynIYxT07O05BETaS5BlWddy1T7CQhUpQjVwkukuQDpKEUJvrcNb6lrRBwSIqScq1bBauISNZlMhW2p3i1ktszbHou5h6oufpiYx3MSSEexRMs5oFNbUmtIRyQFM46Ml1MLfS3jEhd3SyZ0ljJqFEp+iPkXUY7TdsnCiDil8QJeVNlakDCMNZYafbFWipJu7JzgPt321uGrFdq9WERPKyaCJ75nOQniKx0CRSPYHMJzbiIj04Rp5rBciSDhPdj6MIbhriCqvy6xt59BPZD0nF1aG0XuPZnJzNgACgAAGwdjOflXI9OB/NJn1TMQym4pxHv0AWbZCoD+jzRkVSmVj+nw1zDphPS8WYBYSbtsKGVLw2LyksbwQPl69nLsNgXDT6+WuSAQd2CQUKosqqcTqKGOYR36m7dVy4TRRTOopiPGJaix+ayaZTTIeHSb+XWcceGjJI9njkRFlsP4dIDtps9dM1QVbOFUVIrLt3iigRObUXI24ibUkGy7ONX1/aQn/APho/TriGtq5RBBvGt9S2U7pMAYjidcETUXVVUFRRQxz9MTFvJmUbR7FAyrmi1FtTaw3i0QAyvo+RKuW3U19GAUBcLInbqnSVKJVPRw+o6wBUxi6yvPOE9nHZzn5VyPTgfzSZ9dhr0dZ4laNlECrN8hYzlKS8MpymcRQhsO32BhGO5R6kyYoKLucXYjQqaacpMARxMgG3W/Yt5JkszeJEWb5Nxg9pr8zpqU68MIbDt9gYMHUm9SZs0TrOMVYxRpbIr6QKRWZ9I//AHWdKcMFa/mzVLZl6PTq24tdpYxCBR2Ys0Y9igzbkAiHZzn5VyPTgfzSZ9h4ybvmijVygmshfcCKpmVkan/EI8YumDk7Z23VQX27mwj92qVjGfuapDtmwt2NIx3C0hpys0vfPNgD7uy9YtpBmq0dIJrIZAwS6YGWkquQzlqqiqgsdJVMyanc2H8NVChztydgjGMx91QMZRFHa85CA5ktg/D0q+1RG31F5FnAAXetVmL1Zq5TFNf0UA31gKm/KoNSwu09nXazn5VyPTgfzSZ9kfqGrNR6/bm/updgRU9o4eZJqY61dfEeJTFXmoBUU5SMdNR7CDZVyoVNBM6ildw1brAJDmZfANqlg2uQJk3MkJpV4kgmgkVNIhSE7YhuG2rdjat28gmkGYJu7NgGwxhjrwyyco3kYaQiVxRkGThqp2CJmUMBSgJjV/FtssZii0i1UUKnw/xEcJHFgdGkV2jFqwaptmaCaCHpYhvrPtGFq7LamCX8EQ29FxvTVbla27ESiDNsgk2bJIIplTS7UlGM5dmZo/apOW37vah/1qM1+72n/wDWozX7vaf/ANajNfu9p/8A1qM1H0+vRLwruOhWTVx93bXbpOUxSWSIqnL4npkyJjrwiCSj/hygFhEWMo+bC54bH4D/AIWwtjgrw5WYoj7uTjDgXh1tYjsZ9GFBDhvnTbe/m49PTLhsbAYBfWBU+o3A1MYCBl0HL40TWYWDTKSMi2jQPsL6PZyKIovGqDhKVwxSJQRMMSDU77hvh1NxYzTtHTnhtkyiPws+zOCvDnaC78klGH0Th1tYjsZ9GFBDhvnTD/Hmo4gM+GtIBAXtiMbUdgCnsxKZyDx6MPTK5A7fLYVk3N6fLRbSZi3Me9TBRvdqo8ptlcRToBMT0NFI6yxE0yGOfFdHJTKqRNcofMvzgPhrKdCTuldH3BShKOG6jZdRFYhiKeglLzDtrBePReOi2mTS/wAOUNvzkIAPjrOeNx2UtkShoQEPH0HG9Gc3eypteUxGDFi3j2KDNqiVJD85rpJroHRVIU6eWMbqU+ZF6zKIw/2+Bgntjl28ZHJCq5o9QZUuvIxjQAMp+dZ2EZWGJcRkggVVtfqO/pM6dmuUyjQQ2H7a1aLvHSTdskZVbFON0qXEfFuyFNM/ne01aMtkGrGSSPOnd6NJ0mYO0fJiZDuFIY/8pRHQMHghuDVfR2y6X+YioQe41bKvHCbdBI6q2JsUkq6ZJiaSKpLgG3h+ebDXI2zxasfKNyrN8hYslqY4M4TAzyJENt+tNE6pwImUTnr2HrhYAIqSP+DbwnDnHJgU83LruDRmJ6VFAX3ME3VM3hItmAA2jmiIe4SANvdk0qwarlEqrZA4SNBqkqA/FwDA4zPD7VXxTHj1nccrYMBWiNAysao3lEX8U+inJm8g0WarCG3UAb6gK3K2WSTYxTQ7hbHOKI+mpleuhI7mA8Pz2q3RXSMkqmVRO54DjJdVV5XlSxzmw44tNaOPx8QuKYlMURAxRAdtItl3JwIgioqaFxZcZ0Si2hF0k6/w5bCVWwSu4V2hVqrkKEXFIJqcofhrbq8dbB+GpeCipxqLeTj27tKw8PME+5lYV4vHKzWDrnEiYyDJKQSfwMvFqCR9GO2wiAh4htopDGHYpREYaj2WeOBY6EeLBVuHdwcybiyvSpEgq7E1uPKyiWKTVEAAPD8/GKBvoPg8q8DICIvIdguJMf1BI/OStxgGaxMexLytGLZuAF27whvo6KaheVQhTgvWoNyO60QwUFvAQ7MQFtFskRAgFDYPoH/qN/8A/8QASRAAAgACBAkHCQYEBgIDAAAAAQIDEQAEITESEyBBUWGBkaEiMFBxsbLBIzJAQkNSYnLRBRAUYHCSM3SiwiRTY3OC4TTARNLw/9oACAEBAA0/AP8A06oXmNFVe00JlKFN+wUImD+iS3xIrhRxoLMc/k4X1PCh9lVBixvvO+hvaI5YnfSYNGgI29R+iCiZZjIAUEwawf4MM6ve7KT5KsZKvUtwyGYCVEgou5R+h8IWsxtJ0AZzQWCCpk0UaXI7MqNW4SkasIToP0OgiZ0scygZyaQyRV6qp5KDSdLaTl1KE9YaywGUl4n9DoSl3djIKBeaVVitXh+/pc6zwHMV+JgQyR7NPqZ7v0OYB686nNeIfidnMVmKIayzTvOwW0qsFYSjTIX/AKGwU8mhPnubFG+lYcxIjHOTfzEdTCqYYXJ6z7bhq/Q6qrj44BvdvNB6h28xVyIlbiZgs/NGs0hKERFEgqiwD9DYaF2OgATNKzWGdZ5lnYN0suKbW9VFzsxzAUHKjRSLYr52P6HPAxK9bnB8TlxDb7qDOzHMBSKAazWSLXOgaFGj9D49dQHqAJylPlq3EBwEHidQowBjVhxy4p1nRq/RA1tif2ZBPmwkJl1nNQcr8FAbgzeA30hiSQ4agAD9BhnixAo40GYRwx4U1Kx8KG4PEwe2mmFFV+w5dXrGN8sxUEYJBuBpPPHP/wBaZxBhs54yoM0VsBD/AMV+tB6kGGFHDIF4iR1B3TnT/Qgs3hTSsADtNNcEHsah/wA6Ay+FD6ojqDuNDnBmPz3KYhkzdupRbQWCPW2kNij60b2dVAhjqmLeNDeYjljxyBc0Nyp4UHs60BFHG3jS4xqm0x+1vrQj+BFOLibjfs5gXk2AUX2FU8o0+sWDfS4RaycY24WDjRvZw3xabllQ3kmZyh6qRTg7rqC8lcXE3izhRrMXW7FJ1NdvlRhNWUzBGo/nYeaCeU50KLyaGYx5kYzjsXto5m0SIxZjtPNC4jNRfYVryiy1TtG+hvjVc4xN1440Ps8YFcf8TI/cLyTYKL7GAcY+4XbaXCPXG44A8TQ+xhnAh/tHOgzaqxuVDOzNso1mJityIh+BvA2/nSX8MHkQdbkZ9VHNhY2KNAFwHPi4gyoLAojEgbDQ3q8Yy3Cz0EXEGliw60bYkLRP3hxFIihkiI0wwOg897sWMqndQmQBjgdtDcymYPoHxxVHjQaayn1p/Mp9aG7BrCnxp8Jn6OL8NwvbQXzrKfWn8yv1ofdrCHxp8LA9JWpWK0pmIOlV+LXmo5JZmMyTr6Fity4c5mCT6y+IpGQPDdDMMDn5sCZJMgBRCUiVxPPinPgn1RrvNGMy7sSTtP3T5dViktDcdWbrFFODHq7HlQm+mg83mER5MeoXmgsESKcUn1PChuECECRtadDeDHYDcDKmlmJ+/VQXGHGZew0Hq1kCKONtM8SrMUbcZijWYmtjFmeo3HfQiYIN/PqJs7sFA2mi2YFWHIB1ubN06GwMwxr7zZwofUhxMBdyyoc7uT25Azw4rL2Gg9SsERR/VOmeJVmMNtxmKN7CtDFtPUbjsNDn6NjL5eMh/gKcw+I8KEzJJmT0PWWlAdzZAc/2ngeb+03MEsDaIYE232Dbk11hVqwuaTeadhlzIuwjymOhReTQzH4mIJxW1gXLxoxmXiuWJ2nnBfVawS6S1Zxso1mJityHPwNn6jbzqzBCN5KEfibOdQpOawEODDXqUePOC+rVglgB8JvWgE4lUjEBxrHvDWOi6wDDqkI52946hfSM5eI7GZYm89DxTgpDhrMseqljJUFPJX5znOoWUUSAGYc0IMUjrmJ+GSI6YPXhCmCJ5bCyEDyYWt/pRrsI8lBoUXAc+M9LFWMTOLAH9w1X0irNIiGYPMoCzuxkFAzk0BKxa0pk8fUuheJ5+E2EkSG0mU6jQDBhRrlrH0bt6JhIXdibFAEyaQzi6rDPqwwe039DsZuxsWGvvMcwo48rW3W06l0DnPs2IWcAW4trCdhkcmrxBWI7SsCqZ8TIZbrKLFFoq4P93ZR2LM7GZYnOT6FGby9Wn5vxLoPbSOoZHXsOg8xBbBrUVD/Gcer8o4+gqQVZTIgjOKVRBMn26e91jP0RXxh1iRtEIG7aeA6HiWs582GudmOihkY8dhy4raTq0DnYilXRhMMDeDRiWKIMJ6vqIzrrpnH3E8qJKSINLNcKRpNWaxLzjoHwjKrSkQhfiluLnw10iMWd3MyxN5OUxkFUEk7KNbjK42ASNS30zrVoQUbzOmlqxLsFJS5NZambCZYg4gUF0OIDCfxFJyBdOSeprjl1pgIgJniW98eNGAZWBmCNOV9oAwoMjaies/gNZobyc+TEMkhw1LMT1UaRxSjGRdouFBe1YimR2LIUGmApO80Fw/DJ9KHPDh4B/plQ3ANjE3G3jRLTGqwJYD4kvHGmjJq7hgJ2MM6nURZSsww4+E5wdYMx0NDUuzHMBaaRImDBWfmwxYo3dvQ0ZwkNFEyxNwpWAHrUXX7o1D0Br4iJgMdqyoM0V2cbiaLckJAoGwZVXQsRnY5lGsmykd5hZ2IuZRqAylaT1uIth1IPWPCkuVWowwojHrzdQy3EmhxUDA7DQTZqjEbkt8hN3UaQmwYkN1kVOiWVV1wqmzG1oedNmbV1ZVUP4aAM0lsJ2mZyYhmzHzYa52OoUZfLVuIvLc6tA1cwoLFFEkrGojM2ukFikRGEipF4OTCP4mrg6DYw3yO3ob7QP4WHK+RtY7gd/Q6EwqkGHres+y4bfSanJ6xI2NFIsGwHjlQjyRcawwzD4dJpCUKkNFkFAzAc1CWcKOBIRPhfT15qQHKRIbC1SMmrRBEQ6ZZjqN1KzDDy91s6nqM8ir1V3X5pWcZUYzJ15P2koiuSLVh+ou63bzSkQ66FF4Niv4HZkxov4d+pxg9suhqlAxjge+//AEBv6GrUVYa6p3nYLaVWEIa65Z9p5/XT5hT5hT5hT5hTQDPIq0EsoPrNco2mVI8RokRjnJMzkwpRK1FHqpoGs3UgoEhw0EgoHOVRZxlUWxoQ8R2ZTf4mrAnY4HA78iM8KFsLAnsyY0ZIe9gKQ0CKBmAEuarMBoZ6yLDvpDcow1gyyIUZHB1hgaOoYbR0Kay0ND8K8kdnQ1Qg4EMke0f6AHf6AIkK0GXrinzmnzmnzmnzmmIi2MxI83IrDGsRgD6q2LxnuySZADPStgR6y0rQSLF2Dx502EHPSuzj1fQoJ5S7D2jJgR1MTWhsYbiaOoZSM4P3/jIU+OTBrEOIeoMDR1DAjQbebrMVorIhXBBYzMrNdOtPpTrT6U60+lOtPpSGgQE3mQl0JAq8SJuUmjsWJOckz6Gr0d4xOkDkjs9AxkHvjJxEXu5FVIqsPQAt/GeTVP8AExpiyS+aNplz/wBmH8QkhaUucbrdmVBh/h4hzzSzsl98FocXc4+uV9noIbqTa8MWKw02WHpT8KyD/lJfHoeHU4c+srM9voGMg98ZOIi9374EJ4hPUpNI0RojHWTPJrccQkJHqJfxPDn4qFHBzgiRpVaw8LYDZwlkwYqR0GphI90ffWas8MDWRZxlRGKsDmIsyYLTVlN+ojONVLuUZQoh0qxu6jQ2gg2HpKI8JN7joZmA40SEijYB6BjIPfGTiIvd+9qvih1sQvjlfhliOPiflHt9ArsFI/WZYJ7Mms1NxLSVII8civzrMEysmTyhsPblj/49Y8pD2A3bKG+LVThr+02jjQ+zjNim3NKhuKmY6PetQhxJ6Gxqz3imAJbvQMZB74ycRF7v3x61CTdM+GTEiKg2kCkKGqDqAl6A0KJCJ6iCO05MRnhnapyKvOLVYh96VqnUbqQnKOjCRUi8HmRmhRmA3XUGaswhM7RI0zvVYoYbjLto3qVtDD43caG5oThhw6LWtwj29DKwNIkBHG1QfQMZB74ycRF7v3vXZ7lOS1dhD+oegpW2WfWv/WSK7DG8yyYa+VhCwVgD+7tpDYqyOJFToI5wGc4MQr2UF+NGDE/cPEUNmLrXmE6nFm+VGEwymYI1HoiHGhN/UB49DmqIh61GD4egYyD3xk4iL3fvNbfuZJr0LvegivqB+xskV6D3hlKLKzDXz9TjP130nJKzD5UJ+pvA89PlVSOcKGRqGbZSVtVit53yHP29DrCDjYwPQ9QrDCXwNyhxn6BjIPfGTiIvd+9a4w3pkrXoXeHoLV4GXUjfXJ/Gwu8MuIJNDiLhKR1GhtwAMOET1XjZRfa1M4yzWLxuoLCrqQRsPOIQyupkQdINCAlWrTWCL8LfFrz9DRKlFAGvBPQ/2lCxVpsxi2r4jb6BjIPfGTiIvd++FXV4qwyYVahvuYUIn6A0WLEl1ADxyRWQ+4E+HNH1okIFt99D/lRMJRsadBckdDDbfaKLe9XlFH9NBesRSp48yDMEXilRUBmJtjQ7g3XmPQrqVO2kCO8OXUxHQ0CIsRGGYgzFKxDBZQfNe5hsM+fxkHvjJxEXu/fAeHF3MB45KmdI9VhvvUegVaqYTDWzE9gGTV4MWL/TLx54/wCbCVu2h9aqxSo/aZigtEKsLi23iYpOyIVmjdTCw5cKIFjKD50M2MN3ZSKgdGGcETHQsWKI69TgHtn0PXmwoBY2JF0f8u0Dn8ZB74ycRF7v3xapECjWFJHEDKqTtVmGgAzXgR6AkbEQz8KDB7QcmDV1gqdbGZ4L6CwkyRFDA7DS0mrn+DEOge6eFIRk8NxxGka8qq4VWc/KbOBHQtZq5gufiQ2cG4dDqQysDaDSqKFjKT/FXM48eexkHvjJxEXu/eRIikCsuq/LOY4EZNbhiNCB99bxuPDn4EBjDnnc2KN5FHYsxOcnJr1ZZwdKryR2H0OqoXq8QC1wLSh0g5tdFJBBvByYVYSIBowll/b0L9nx1jXeqeSe0dEQGwlOY6QdINIQArNWJtQ6RpU5jzuMg98ZOIi93I+0IAwj8aWHhLJqsZYkveGcbRMUrENYiEaCJ88JVitSP7FPE7smIwVQM5JkKVaroh1tK075/f1066ddOunXzsVxHUASlhiZ4zyTDgni3QtagPC2kWcaQnKMDmIMj0RCN4uYZ1Izg0RfK1Zm874k0js5zGQe+MnERe7kfZ7fiYchaVFjDdbsyrYlSLG/OyeI287BXkrO139VR1mlZiGIx0TuA1AWZP2ePxMUkWTHmjf2fe0Nl3ikOIykY5sxlpp/vN9af7zfWn+831orBh5Zs22lZq6RJ6yLePOQ6tCVpaZT8ckmDDB/cehq9KtQ9HK87iD0TDYMkRGkVPXTzUr6Dkt84zdYpEE0iQ2wlYaiOaxkHvjJxEXu5DqVYHODfTCxtXY+tDa0brtmTBcPDdTIqwuNKuoFZg+98a6jw5uEpd4jmQUDOaVRiICGzGHO58NAyvtIiO8xaqS5C7rduQladlHwscIcDk1ecWq4R85D5yjqNu3m4SF3Y3AATNKxHYoDmQWLwAya5W2YHSqgKOM+hvs+LgxCBbi3+hlv6LnNqvE5UNutTd1ilVZUd1aaOxE+TnH/AHzOMg98ZOIi93J+zgXUAWxIfrL4jKgtNXU8DpB0UAk0FjJYp0oT2X8zDvZzKeoDOdQojWITJo0ri+rVlVMiNWmzETsTrJ8aASAGYZFdhYqIQLMNPqCN2TV3Dw3XMR4UhL5erE3/ABLpHZzTWV2OhmP9sHt3ZLsFUDOTSr1dVeWdza3EnoatQWhNqmL6VaK0JxrBl0XGT8RH04b2y2CQ2czjIPfGTiIvdyq68yFFkGIb16jeMpTNWUyINFEgztgxlHzZ9tDfBrfk2B6zYd9DaGRgQd2QMzxBhHqF9LhWI4KQxrAvPCnqJcialW4ZUdwkNFF5NGGHWYw9pEN+wXDJhjH1Y/6i5tomNtFMmUi0EXjJhthJEhtIg0Fgr0Be8viN1CPZuCR1i8ZQExBDYURupRbRhgvFJ8rEGzzR1W015P2YRGckWNE9RfHZ0R9oLgRZCwRVHiOw9FQX/EVjRgLbLaZDbQZuZxkHvjJxEXu5UdcB0PaNYpFJNVrMrHGg6GHMC7ExmXsNB75DdopKViqPChvXHlRuEqG9mMycuIwVUUTLE3AUrC+bf+HX3Rr0nZl1pv8AFIg/hRD63Ue3LFzw3KkbRQXLWVETibaaTDZTwNPmf600iEWPE0N6QJQx/TRrSzGZO3KrDhIaKLyfCg5dYij2kQ3nqzDUOiMDG1cnNEW0b7ttEYqym8EXjon7RMoUxaIS3bzPcOaxkHvjJxEXu5cQZ71OZlOY0dpQa0ou1PoPb6DFbBSHDWZJoRNBelX1DS2vdzEZCkSG4mGBpFbyUW8wifUbwOf0GKwVIaCZYmkZZOwtEFT6q+J6K+0yXMhYsUecNt+/oiNEGMYeogtY7qQEEOGozKBIc1jIPfGTiIvd5iIMF4bqCGHVQzZqhEa0fIc/UaIZNDiKVYHqPPT5dcjAhAPh949VGEotbiAYbahoGoc1FUq8N1mGGulrPUyfKQ/l94ar+uiGTI4kQdY54GUSsxBgw06znOoUdZRa24t6lHqjosjGVdz6kQXfTbSC5SIjC1WFhHQ9fGDABFqwRn2ngBzeNg98ZOIi93mgJLHXkxE6mFtLxArHIiDUDceFAZTiQzgnqN3MtcqKWJ2ChvjVvkWalvNFt8qJQlOpM+2iiSqokAOrnZcmtQOREHXp20FoQHAigdRsOw0FhWNDK9vMm4ATNG9vWhiklttOwUEjiIc0hA687cKQxJYcNQoA6h0bHISuKo818z7bjr6Ghyi1pxmhg3dZupDQIiqLFAEgObYgtCirhKSLRZT+XWn8utP5dafy60UECLBhBWAN9vOEWq6gg7DRr3q04R4WUNyuFiAdlNEWAy9hNM1rj+2mnGMf7aZ8FHbwFM4gwAvaTQf58YgbllQZ4UIAnbf6Eb1jQww40PrVWIU4XcKZliorjhKmbGQWXsJp8zj+2mnGMf7afCjt4CmcQauB2mgvEWNgg7FAoPXWEC37jb0hWIZhup0GinCgRZWRIZuP/wCz9COwVVUTJJuFK3KLWmF4OZOods/zlVQXqz+9pQ6j20hsVZGEipF4PQcFpVOG489879Qza+r86D/zoSDdEHjv6CgyiVuMPVX3RrN1IKBIaKLFAu/OjgqysJgg3g0rTEwiLcU15Q+HQEd8EAXAZydAFJYVYjStixM5OrR+do64LA3jQRoIpEJarViVkRfqM49OisERFEyxNwApWl8s9+KX3B4/nhrUiDzobZmU6aOSavWFHJir4HSOd1Cn+2fpT4lI52IwVEQTLE5gKRF5EM2irA/3a/z04s95TmZTmNGbkVlFtTU4zHXdzDGQVRMnZRvbVs4uzUt53Uzw6sohrvMzQevWJxCd9B7kBR4U+UUOZoYPhQ3ssEKd4lQ3YL4xBsNvGi2yhnAiS+U37DRTIpGQqePMMbZDkoNLG4ChXlRiOTC1IPH8+MJMrCYI0EUaZNXYTgsdWdeyg9tBXGQztHjQZiPuNyopY8KH2lZ8kvG2l5gVReGGfpQXxnGHEP8AyNvNHNFQNLqN4obRDfysP6jfQevVXmf2mRoP82Cy+H3ahQ+uYZVd5kKXmq1UzY6i9w2UF4QWsdJN5P5/0UNpL1dSTtlTT+GWn+lCVewegaGE6aWqyHwoLjDgKD2U0D/1HD//2Q==;" vertex="1" parent="UAMNCxBC-hiewUGZ62pg-21">
          <mxGeometry x="36.44166666666666" y="5.075730000000001" width="47.1138888888889" height="38.31705277777779" as="geometry" />
        </mxCell>
        <mxCell id="UAMNCxBC-hiewUGZ62pg-39" value="commonMain" style="rounded=1;whiteSpace=wrap;html=1;labelPosition=center;verticalLabelPosition=top;align=center;verticalAlign=bottom;fillColor=#f5f5f5;fontColor=#333333;strokeColor=#666666;dashed=1;" vertex="1" parent="UAMNCxBC-hiewUGZ62pg-21">
          <mxGeometry x="-150" width="100" height="48.46" as="geometry" />
        </mxCell>
        <mxCell id="UAMNCxBC-hiewUGZ62pg-12" value="androidTarget" style="rounded=1;whiteSpace=wrap;html=1;labelPosition=center;verticalLabelPosition=middle;align=center;verticalAlign=middle;arcSize=50;fontSize=10;" vertex="1" parent="UAMNCxBC-hiewUGZ62pg-21">
          <mxGeometry x="-143.8" y="6.230000000000004" width="87.6" height="16" as="geometry" />
        </mxCell>
        <mxCell id="UAMNCxBC-hiewUGZ62pg-120" value="iosTarget" style="rounded=1;whiteSpace=wrap;html=1;labelPosition=center;verticalLabelPosition=middle;align=center;verticalAlign=middle;arcSize=50;fontSize=10;" vertex="1" parent="UAMNCxBC-hiewUGZ62pg-21">
          <mxGeometry x="-143.8" y="27.230000000000004" width="87.6" height="16" as="geometry" />
        </mxCell>
        <mxCell id="UAMNCxBC-hiewUGZ62pg-45" value="note" style="rounded=1;whiteSpace=wrap;html=1;labelPosition=center;verticalLabelPosition=middle;align=center;verticalAlign=middle;fillColor=#dae8fc;strokeColor=#6c8ebf;fontSize=10;" vertex="1" parent="1">
          <mxGeometry x="180" y="190" width="80" height="20" as="geometry" />
        </mxCell>
        <mxCell id="UAMNCxBC-hiewUGZ62pg-47" value="keys" style="rounded=1;whiteSpace=wrap;html=1;labelPosition=center;verticalLabelPosition=middle;align=center;verticalAlign=middle;fillColor=#dae8fc;strokeColor=#6c8ebf;fontSize=10;" vertex="1" parent="1">
          <mxGeometry x="280" y="190" width="80" height="20" as="geometry" />
        </mxCell>
        <mxCell id="UAMNCxBC-hiewUGZ62pg-81" style="rounded=0;orthogonalLoop=1;jettySize=auto;html=1;entryX=1;entryY=0.5;entryDx=0;entryDy=0;" edge="1" parent="1" source="UAMNCxBC-hiewUGZ62pg-53" target="UAMNCxBC-hiewUGZ62pg-57">
          <mxGeometry relative="1" as="geometry" />
        </mxCell>
        <mxCell id="UAMNCxBC-hiewUGZ62pg-82" style="rounded=0;orthogonalLoop=1;jettySize=auto;html=1;entryX=0.25;entryY=0;entryDx=0;entryDy=0;" edge="1" parent="1" source="UAMNCxBC-hiewUGZ62pg-53" target="UAMNCxBC-hiewUGZ62pg-65">
          <mxGeometry relative="1" as="geometry" />
        </mxCell>
        <mxCell id="UAMNCxBC-hiewUGZ62pg-53" value="notes" style="rounded=1;whiteSpace=wrap;html=1;labelPosition=center;verticalLabelPosition=middle;align=center;verticalAlign=middle;fillColor=#d5e8d4;strokeColor=#82b366;fontSize=10;" vertex="1" parent="1">
          <mxGeometry x="180" y="250" width="80" height="20" as="geometry" />
        </mxCell>
        <mxCell id="UAMNCxBC-hiewUGZ62pg-57" value="user_state" style="rounded=1;whiteSpace=wrap;html=1;labelPosition=center;verticalLabelPosition=middle;align=center;verticalAlign=middle;fillColor=#d5e8d4;strokeColor=#82b366;fontSize=10;" vertex="1" parent="1">
          <mxGeometry x="80" y="290" width="80" height="20" as="geometry" />
        </mxCell>
        <mxCell id="UAMNCxBC-hiewUGZ62pg-60" style="edgeStyle=orthogonalEdgeStyle;rounded=0;orthogonalLoop=1;jettySize=auto;html=1;entryX=1;entryY=0.529;entryDx=0;entryDy=0;entryPerimeter=0;" edge="1" parent="1" source="UAMNCxBC-hiewUGZ62pg-4" target="UAMNCxBC-hiewUGZ62pg-5">
          <mxGeometry relative="1" as="geometry" />
        </mxCell>
        <mxCell id="UAMNCxBC-hiewUGZ62pg-96" style="rounded=0;orthogonalLoop=1;jettySize=auto;html=1;exitX=0;exitY=0.5;exitDx=0;exitDy=0;entryX=1;entryY=0.75;entryDx=0;entryDy=0;" edge="1" parent="1" source="UAMNCxBC-hiewUGZ62pg-65" target="UAMNCxBC-hiewUGZ62pg-57">
          <mxGeometry relative="1" as="geometry">
            <mxPoint x="190" y="300" as="targetPoint" />
          </mxGeometry>
        </mxCell>
        <mxCell id="UAMNCxBC-hiewUGZ62pg-65" value="crypto" style="rounded=1;whiteSpace=wrap;html=1;labelPosition=center;verticalLabelPosition=middle;align=center;verticalAlign=middle;fillColor=#d5e8d4;strokeColor=#82b366;fontSize=10;" vertex="1" parent="1">
          <mxGeometry x="280" y="310" width="80" height="20" as="geometry" />
        </mxCell>
        <mxCell id="UAMNCxBC-hiewUGZ62pg-90" value="..." style="rounded=1;whiteSpace=wrap;html=1;labelPosition=center;verticalLabelPosition=middle;align=center;verticalAlign=middle;fillColor=#dae8fc;strokeColor=#6c8ebf;fontSize=10;opacity=50;dashed=1;" vertex="1" parent="1">
          <mxGeometry x="380" y="190" width="40" height="20" as="geometry" />
        </mxCell>
        <mxCell id="UAMNCxBC-hiewUGZ62pg-91" value="..." style="rounded=1;whiteSpace=wrap;html=1;labelPosition=center;verticalLabelPosition=middle;align=center;verticalAlign=middle;fillColor=#d5e8d4;strokeColor=#82b366;fontSize=10;opacity=50;dashed=1;" vertex="1" parent="1">
          <mxGeometry x="380" y="280" width="40" height="20" as="geometry" />
        </mxCell>
        <mxCell id="UAMNCxBC-hiewUGZ62pg-113" style="rounded=0;orthogonalLoop=1;jettySize=auto;html=1;entryX=0.25;entryY=0;entryDx=0;entryDy=0;" edge="1" parent="1" source="UAMNCxBC-hiewUGZ62pg-93" target="UAMNCxBC-hiewUGZ62pg-94">
          <mxGeometry relative="1" as="geometry" />
        </mxCell>
        <mxCell id="UAMNCxBC-hiewUGZ62pg-93" value="db" style="rounded=1;whiteSpace=wrap;html=1;labelPosition=center;verticalLabelPosition=middle;align=center;verticalAlign=middle;fillColor=#e1d5e7;strokeColor=#9673a6;fontSize=10;" vertex="1" parent="1">
          <mxGeometry x="80" y="400" width="80" height="20" as="geometry" />
        </mxCell>
        <mxCell id="UAMNCxBC-hiewUGZ62pg-94" value="base" style="rounded=1;whiteSpace=wrap;html=1;labelPosition=center;verticalLabelPosition=middle;align=center;verticalAlign=middle;fillColor=#e1d5e7;strokeColor=#9673a6;fontSize=10;" vertex="1" parent="1">
          <mxGeometry x="130" y="440" width="80" height="20" as="geometry" />
        </mxCell>
        <mxCell id="UAMNCxBC-hiewUGZ62pg-114" style="rounded=0;orthogonalLoop=1;jettySize=auto;html=1;entryX=0.75;entryY=0;entryDx=0;entryDy=0;exitX=0.25;exitY=1;exitDx=0;exitDy=0;" edge="1" parent="1" source="UAMNCxBC-hiewUGZ62pg-95" target="UAMNCxBC-hiewUGZ62pg-110">
          <mxGeometry relative="1" as="geometry" />
        </mxCell>
        <mxCell id="UAMNCxBC-hiewUGZ62pg-95" value="presentation" style="rounded=1;whiteSpace=wrap;html=1;labelPosition=center;verticalLabelPosition=middle;align=center;verticalAlign=middle;fillColor=#e1d5e7;strokeColor=#9673a6;fontSize=10;" vertex="1" parent="1">
          <mxGeometry x="250" y="370" width="80" height="20" as="geometry" />
        </mxCell>
        <mxCell id="UAMNCxBC-hiewUGZ62pg-104" value="..." style="rounded=1;whiteSpace=wrap;html=1;labelPosition=center;verticalLabelPosition=middle;align=center;verticalAlign=middle;fillColor=#e1d5e7;strokeColor=#9673a6;fontSize=10;opacity=50;dashed=1;" vertex="1" parent="1">
          <mxGeometry x="380" y="405" width="40" height="20" as="geometry" />
        </mxCell>
        <mxCell id="UAMNCxBC-hiewUGZ62pg-110" value="ui" style="rounded=1;whiteSpace=wrap;html=1;labelPosition=center;verticalLabelPosition=middle;align=center;verticalAlign=middle;fillColor=#e1d5e7;strokeColor=#9673a6;fontSize=10;" vertex="1" parent="1">
          <mxGeometry x="180" y="410" width="80" height="20" as="geometry" />
        </mxCell>
        <mxCell id="UAMNCxBC-hiewUGZ62pg-117" style="edgeStyle=orthogonalEdgeStyle;rounded=0;orthogonalLoop=1;jettySize=auto;html=1;entryX=1;entryY=0.5;entryDx=0;entryDy=0;" edge="1" parent="1" source="UAMNCxBC-hiewUGZ62pg-111" target="UAMNCxBC-hiewUGZ62pg-94">
          <mxGeometry relative="1" as="geometry" />
        </mxCell>
        <mxCell id="UAMNCxBC-hiewUGZ62pg-111" value="key_value" style="rounded=1;whiteSpace=wrap;html=1;labelPosition=center;verticalLabelPosition=middle;align=center;verticalAlign=middle;fillColor=#e1d5e7;strokeColor=#9673a6;fontSize=10;" vertex="1" parent="1">
          <mxGeometry x="280" y="440" width="80" height="20" as="geometry" />
        </mxCell>
        <mxCell id="UAMNCxBC-hiewUGZ62pg-121" style="edgeStyle=orthogonalEdgeStyle;rounded=0;orthogonalLoop=1;jettySize=auto;html=1;entryX=0.405;entryY=0;entryDx=0;entryDy=0;entryPerimeter=0;" edge="1" parent="1" source="UAMNCxBC-hiewUGZ62pg-5" target="UAMNCxBC-hiewUGZ62pg-101">
          <mxGeometry relative="1" as="geometry" />
        </mxCell>
      </root>
    </mxGraphModel>
  </diagram>
</mxfile>
